<svg xmlns="http://www.w3.org/2000/svg" width="80" height="80" viewBox="0 0 80 80"><defs><style>.a{fill:#fff;opacity:0.15;}.b{fill:#ffebc4;}</style></defs><g transform="translate(-820 -418)"><rect class="a" width="80" height="80" rx="10" transform="translate(820 418)"/><path class="b" d="M87.532,123.166c-.715,3.242-2.982,5.265-5.9,5.426-3.183.166-5.419-1.589-6.663-5.319-.092.345-.159.589-.236.84A6.285,6.285,0,0,1,62.46,123a2.419,2.419,0,0,1,.152-1.034c1.285-3.4,2.6-6.788,3.88-10.191a.773.773,0,0,1,.855-.613q20.14.025,40.281,0a.748.748,0,0,1,.823.563c1.269,3.251,2.52,6.512,3.865,9.738a3.891,3.891,0,0,1,.033,2.9,6.3,6.3,0,0,1-6.361,4.227,6.4,6.4,0,0,1-5.914-5.369c-.95,3.6-3.161,5.587-6.824,5.31-3.107-.218-4.955-2.157-5.721-5.358ZM66.77,130.574h3.546v21.3h17.2v3.58c-.252.017-.488.033-.714.033l-5.663,0q-5.663,0-11.326,0a3.116,3.116,0,0,1-3.075-3.025c-.017-4.831-.008-16.663,0-21.493a1.342,1.342,0,0,1,.018-.265c.005-.04.011-.083.016-.13Z" transform="translate(774.235 324.843)"/><g transform="translate(864.269 454.354)"><path class="b" d="M0,0H9.3V22.581H0Z" transform="translate(0 25.981) rotate(-90)"/><circle class="b" cx="6.836" cy="6.836" r="6.836" transform="translate(4.395 0)"/></g></g></svg>