<svg xmlns="http://www.w3.org/2000/svg" xmlns:xlink="http://www.w3.org/1999/xlink" width="466.739" height="63.677" viewBox="0 0 466.739 63.677"><defs><style>.a{fill:url(#a);}.b{fill:url(#b);}.c{fill:#594e3a;stroke:rgba(0,0,0,0);stroke-miterlimit:10;}</style><linearGradient id="a" x1="0.5" x2="0.5" y2="1" gradientUnits="objectBoundingBox"><stop offset="0" stop-color="#ffebc4"/><stop offset="1" stop-color="#c5aa7b"/></linearGradient><linearGradient id="b" y1="0.5" x2="1" y2="0.5" gradientUnits="objectBoundingBox"><stop offset="0" stop-color="#ffebc4" stop-opacity="0"/><stop offset="0.473" stop-color="#ffebc4" stop-opacity="0.451"/><stop offset="1" stop-color="#ffebc4" stop-opacity="0"/></linearGradient></defs><g transform="translate(-726.631 -72)"><path class="a" d="M-7449.053,11596.757a18.235,18.235,0,0,1-9.584-3.327,16.672,16.672,0,0,1-5.2-6.149,19.882,19.882,0,0,1-1.828-5.7,24.353,24.353,0,0,1-.236-6.153,20.766,20.766,0,0,1,.754-4.086,17.759,17.759,0,0,1,5.457-8.595,18.916,18.916,0,0,1,7.1-3.854,20.833,20.833,0,0,1,7.462-.838,15.841,15.841,0,0,1,8.694,3.283.962.962,0,0,1,.224,1.516q-2.047,2.8-4.095,5.6c-.25.344-.53.649-1,.58a1.535,1.535,0,0,1-.625-.245,6.345,6.345,0,0,0-2.768-1.217,14.208,14.208,0,0,0-2.413-.04,10.482,10.482,0,0,0-3.067.628,4.472,4.472,0,0,0-2.943,3.443c-.195.894-.282,1.811-.416,2.719l.076.006a3.179,3.179,0,0,1,.882-1.531,1.716,1.716,0,0,1,2.526.032,3.225,3.225,0,0,1,.925,1.915,4.088,4.088,0,0,1-.6,3,2,2,0,0,1-1.3.91,1.737,1.737,0,0,1-.681-.02,2.049,2.049,0,0,0-2.191.785,1.448,1.448,0,0,0,.187,2.125,5.6,5.6,0,0,0,.861.509,2.807,2.807,0,0,0,.271.12l0,.11c-.148.035-.294.081-.442.1a3.925,3.925,0,0,0-2.814,1.592,3.8,3.8,0,0,0-.373.888c-.067.181.015.271.215.269.419-.006.841-.006,1.26,0,.16,0,.358,0,.332.218-.009.073-.215.169-.338.175-.259.015-.515.012-.774.012q-.179,0-.358,0c-.358,0-.39.032-.28.381a2.939,2.939,0,0,0,1.42,1.65,4.459,4.459,0,0,0,2.375.629c1.3-.023,2.6-.076,3.894-.216a19.584,19.584,0,0,0,7.137-2.287c.25-.134.492-.282.742-.413a.919.919,0,0,1,1.347.363c.478.786.938,1.586,1.4,2.381.678,1.164,1.353,2.334,2.037,3.5a1.014,1.014,0,0,1-.282,1.572,17.2,17.2,0,0,1-5.152,2.706,19.827,19.827,0,0,1-6.309,1.01Q-7448.3,11596.809-7449.053,11596.757Zm-1.967-21.124a.446.446,0,0,0-.422.454.374.374,0,0,0,.422.4.391.391,0,0,0,.442-.413.457.457,0,0,0-.433-.439Zm103.481,11.368a10.949,10.949,0,0,1-6.551-2.2c-.693-.507-.713-.771-.166-1.4.39-.457.789-.908,1.188-1.354.466-.521.71-.55,1.281-.137a7.2,7.2,0,0,0,4.732,1.558,4.893,4.893,0,0,0,1.581-.358,1.768,1.768,0,0,0,.256-3.178,29.8,29.8,0,0,0-3.013-1.386c-.882-.387-1.8-.7-2.648-1.144a5.085,5.085,0,0,1-3.064-5.376,5.114,5.114,0,0,1,3.487-4.311,8.9,8.9,0,0,1,9.025,1.22c.649.475.652.754.134,1.374-.317.384-.649.754-.958,1.146a.8.8,0,0,1-1.243.169,5.911,5.911,0,0,0-3.851-1.1,4.216,4.216,0,0,0-1.5.4,1.568,1.568,0,0,0-.2,2.809,16.7,16.7,0,0,0,2.428,1.144c1.167.51,2.375.949,3.519,1.5a4.924,4.924,0,0,1,3,4.683,5.366,5.366,0,0,1-2.965,4.884,8.608,8.608,0,0,1-4.346,1.063Zm-12.8-.134q-4.129,0-8.266,0c-.943,0-1.1-.16-1.1-1.074v-17.608c0-.823.195-1.027,1.03-1.027q5.082-.013,10.161,0c.826,0,1.053.23,1.068,1.027.009.469.009.943,0,1.415-.015.8-.242,1.027-1.057,1.03-1.263,0-2.523,0-3.789,0h-2.27c-.978,0-1.016.035-1.016,1.019,0,.841.018,1.682,0,2.521-.015.532.2.73.748.725,1.662-.023,3.327-.012,4.986-.009.946.006,1.115.163,1.144,1.06.015.515.009,1.027,0,1.539-.012.714-.2.911-.952.917-1.016,0-2.031,0-3.047,0h-2c-.794,0-.876.076-.879.841q-.009,1.66,0,3.321c0,.725.082.795.847.795h2.576q1.93,0,3.865,0c.894,0,1.08.177,1.1,1.033.012.532.009,1.067-.006,1.6-.015.631-.227.853-.873.87-.306.006-.614.009-.929.009Zm-16,0a1.08,1.08,0,0,1-1.054-.641c-1.077-2.017-2.2-4.011-3.269-6.033a1.143,1.143,0,0,0-1.176-.7c-1.734.029-1.734.006-1.734,1.693,0,1.54,0,3.079,0,4.619,0,.841-.224,1.051-1.088,1.06-.649.006-1.3,0-1.953,0-.963,0-1.149-.184-1.149-1.112v-8.739h.005v-8.74c0-.937.187-1.13,1.138-1.121.614,0,1.234,0,1.851,0,1.781,0,3.56,0,5.338.1,2.092.113,4.051.728,5.218,2.616,1.633,2.625,1.1,7.025-2.174,8.638-.617.3-.469.673-.219,1.1q1.72,2.974,3.429,5.952c.509.891.271,1.292-.777,1.3h-.9c-.48,0-.958,0-1.435.006Zm-7.218-15.836c-.041.757-.015,1.52-.018,2.276,0,.736.018,1.476,0,2.215-.018.468.166.689.655.672.987-.041,1.979-.012,2.957-.122a2.585,2.585,0,0,0,2.459-2.046c.332-1.487-.015-3.051-1.819-3.327a28.293,28.293,0,0,0-3.876-.184C-7383.32,11570.519-7383.542,11570.854-7383.553,11571.034Zm-10.533,15.833h-8.8c-.943,0-1.109-.154-1.112-1.071-.006-2.934,0-5.867,0-8.8q0-4.336,0-8.677c0-1.024.151-1.173,1.211-1.173q4.885,0,9.773,0c1.077,0,1.251.175,1.257,1.208,0,.413.006.824,0,1.231-.015.841-.224,1.039-1.106,1.039h-6.051c-.9,0-.922.029-.925.9s.023,1.767-.012,2.646c-.018.538.192.728.733.722,1.639-.023,3.283-.012,4.922-.006,1.039,0,1.2.163,1.2,1.176,0,.472.006.94,0,1.414-.009.7-.218.911-.952.914-1.033.006-2.069.006-3.105.006h-1.938c-.812,0-.847.035-.85.841,0,1.15.021,2.3-.009,3.446-.009.51.195.685.7.682,2.148-.021,4.29-.009,6.435-.009,1.074,0,1.229.151,1.229,1.219,0,.472.006.943,0,1.415-.015.629-.224.853-.873.87-.355.006-.708.009-1.062.009Zm98.565,0c-.838-.012-1.074-.256-1.074-1.089,0-1.479.009-2.951.009-4.43,0-1.455,0-2.907,0-4.368v-8.671c0-.957.192-1.161,1.188-1.152.6,0,1.2,0,1.8,0,1.706-.006,3.419-.006,5.122.1a6.493,6.493,0,0,1,5.239,2.521,6.438,6.438,0,0,1-3.094,9.578,14.384,14.384,0,0,1-5.09.6c-.969-.012-.992.017-1,.963,0,1.639.009,3.277,0,4.919,0,.829-.192,1.016-1.033,1.027-.4,0-.8,0-1.2,0C-7294.936,11586.867-7295.229,11586.867-7295.521,11586.864Zm3.111-15.729c.015.783.009,1.561,0,2.34,0,.842.009,1.686,0,2.526,0,.431.195.652.64.641.248-.009.495,0,.745,0a15.916,15.916,0,0,0,1.714-.059c2.3-.262,3.277-1.592,2.96-3.836a2.142,2.142,0,0,0-1.883-2.017c-1.155-.175-2.337-.163-3.5-.247-.035,0-.067,0-.1,0C-7292.264,11570.479-7292.409,11570.717-7292.409,11571.136Zm-43.494,15.729c-.853-.009-1.054-.189-1.057-1.013q-.009-4.431-.006-8.862v-8.677c.006-1.024.157-1.158,1.222-1.167.652,0,1.3-.009,1.956,0,.771.021.978.222.978.964.009,1.973,0,3.938.006,5.911,0,.739.07.817.817.817l2.1,0c1.17,0,2.337-.006,3.507.009.564,0,.739-.238.73-.748-.012-1.927-.006-3.856,0-5.783,0-1.013.171-1.167,1.225-1.17.564,0,1.138,0,1.7,0,1.057.009,1.24.187,1.246,1.24v6.77q0,5.26-.006,10.524c0,1-.192,1.182-1.216,1.182-.629,0-1.263.009-1.892,0-.853-.009-1.053-.2-1.053-1.016q0-3.292-.006-6.584c0-.757-.038-.794-.824-.8-1.875,0-3.743.009-5.614-.012-.553-.009-.736.184-.73.716.02,2.215.015,4.433.015,6.647,0,.85-.192,1.036-1.08,1.045-.39,0-.78,0-1.167,0C-7335.335,11586.867-7335.621,11586.867-7335.9,11586.864Zm26.275-.026a8.073,8.073,0,0,1-5.786-2.616,9.068,9.068,0,0,1-2.1-4,12.705,12.705,0,0,1,.273-7.445,8.278,8.278,0,0,1,8.787-5.57,8.045,8.045,0,0,1,7.291,4.843,9.887,9.887,0,0,1,.955,4.628,10.664,10.664,0,0,1-2.177,7.188,8.147,8.147,0,0,1-6.668,2.989C-7309.24,11586.85-7309.433,11586.847-7309.627,11586.838Zm.48-16.214a4.144,4.144,0,0,0-3.97,2.9,9.626,9.626,0,0,0,.079,7.041,4.029,4.029,0,0,0,3.635,2.806,4.087,4.087,0,0,0,4.188-2.463,9.041,9.041,0,0,0,.815-3.824,10.264,10.264,0,0,0-.713-3.777,3.944,3.944,0,0,0-3.895-2.681C-7309.054,11570.621-7309.1,11570.621-7309.147,11570.624Zm4.747,6.455.015,0A.051.051,0,0,0-7304.4,11577.079Zm-114.8,7.7a8.524,8.524,0,0,1-2.884-5.128c-.079-.414-.137-.83-.183-1.249a11.572,11.572,0,0,1,.241-4.243,9.4,9.4,0,0,1,2.6-4.552,8.737,8.737,0,0,1,11.371-.623c.687.553.71.763.163,1.408-.282.332-.573.658-.855.987-.6.7-.751.725-1.5.188a4.8,4.8,0,0,0-5.323-.276,5.369,5.369,0,0,0-2.366,3.708,9.972,9.972,0,0,0,.279,5.044,4.809,4.809,0,0,0,7.768,2.18c.736-.605.879-.594,1.534.128.32.353.623.717.949,1.068a.691.691,0,0,1-.032,1.118,7.68,7.68,0,0,1-4.1,2.15,12.435,12.435,0,0,1-1.915.157A8.6,8.6,0,0,1-7419.2,11584.783Zm114.784-7.7h0Zm.016,0-.016,0Z" transform="translate(8334 -11486)"/><rect class="b" width="200" height="2" transform="translate(860 123)"/><g transform="translate(0 4)"><g transform="translate(1084.266 75.861)"><g transform="translate(18.801 0)"><path class="c" d="M544.322,1296.056a7.54,7.54,0,0,1,4.27-5.119c1.436-.57,3.565-.594,4.567.816a2.625,2.625,0,0,1,.316,2.507,4.921,4.921,0,0,0-3.443,1.935,4.549,4.549,0,0,0,1.846,7.006,10.662,10.662,0,0,0,5.55.34,13.8,13.8,0,0,0,3.316.456,40,40,0,0,0,10.38-1.208c7.284-1.8,13.461-5.572,19.533-9.837a75.756,75.756,0,0,0,14.552-13.479,15.346,15.346,0,0,0,3.811-9.687,8.383,8.383,0,0,0-.424-3.375q-.493-2.769-3.928-1.435a5.17,5.17,0,0,0-.94,3.608.666.666,0,0,1,0,.445.613.613,0,0,1-.413.473.706.706,0,0,1-.65-.014c-2.583-1.337-1.269-6.72.172-8.515,2.326-2.9,7.424-2.645,9.962-.159,3.225,3.156,4.794,9.632,2.962,13.794a16.846,16.846,0,0,1-5.086,6.115,7.152,7.152,0,0,1-1.028.66,23.936,23.936,0,0,1,15.173,6.479c5.812,6.049,3.457,15.7-1.979,21.125-5.089,5.075-15.381,4.462-18.134-2.616-2.222-5.715-.617-14.559,7.011-14.361a.878.878,0,0,1,.614,1.483c-.521.488-1.235.5-1.673.892a6.152,6.152,0,0,0-.022,9.1c5.422,5.074,10.7-4.3,9.253-9-2.067-6.72-11.458-10.783-17.828-9.05a.981.981,0,0,1-.206.033,75.421,75.421,0,0,1-10.379,8.893c-5.477,3.858-10.936,7.2-17.33,9.274-4.218,1.371-9.58,2.545-14.264,2.075a.985.985,0,0,1-.183.091c-1.82.679-2.866,2.055-4.912,2.247a14.731,14.731,0,0,1-6.861-.979c-2.836-1.224-4.774-4.078-2.872-6.684C544.365,1298.913,543.8,1297.968,544.322,1296.056Z" transform="translate(-544.119 -1258.874)"/></g><g transform="translate(8.306 16.079)"><path class="c" d="M532.809,1307.094c1.51,7.6,8.951,9.6,15.955,8.683,5.8-.761,11.828-5.771,16.391-9.229,9.412-7.133,16.276-17.064,25.741-24.069,8.411-6.228,19.563-3.86,28.132,1.031,8.323,4.75,14.406,12.628,11.818,22.611-1.118,4.315-3.654,8.054-7.9,9.706-3.96,1.539-10.084,2.669-13.859.191-.78-.512-.063-1.763.736-1.259,3.257,2.055,8.088,1.052,11.576-.036,4.068-1.267,6.545-4.356,7.747-8.359,2.583-8.6-2.106-15.807-9.15-20.374-5.712-3.7-14.976-7.086-21.78-5.3-6.486,1.7-11.487,7.423-15.986,12.081-8.656,8.963-17.656,17.886-28.98,23.491-4.357,2.156-10.537,1.868-15.02.139-4.24-1.634-6.239-4.509-7.048-8.857C530.979,1306.483,532.6,1306.022,532.809,1307.094Z" transform="translate(-531.16 -1278.73)"/></g><g transform="translate(0 40.367)"><path class="c" d="M522.4,1309.12c1.437,2.62,3.044,5.623,6.239,6.311a8.86,8.86,0,0,0,2.384.082c1.88-.122,2.144-.131,3.259-1.6.692-.913,1.328-1.838.206-2.744-1.19-.961-4.755.181-3.29,2.569.483.788-.742,1.495-1.234.722-1.549-2.433.438-4.889,3.068-5.171a3.725,3.725,0,0,1,3.668,5.023c-1.031,2.885-5.542,3.165-8.071,2.744-3.876-.644-5.9-3.941-7.62-7.123C520.514,1309.022,521.9,1308.209,522.4,1309.12Z" transform="translate(-520.904 -1308.722)"/></g></g><g transform="translate(727.141 75.861)"><g transform="translate(5.709 0)"><path class="c" d="M462.3,1296.056a7.539,7.539,0,0,0-4.269-5.119c-1.436-.57-3.566-.594-4.566.816a2.623,2.623,0,0,0-.316,2.507,4.918,4.918,0,0,1,3.443,1.935,4.549,4.549,0,0,1-1.846,7.006,10.663,10.663,0,0,1-5.55.34,13.813,13.813,0,0,1-3.316.456,40,40,0,0,1-10.381-1.208c-7.284-1.8-13.461-5.572-19.533-9.837a75.739,75.739,0,0,1-14.552-13.479,15.346,15.346,0,0,1-3.81-9.687,8.368,8.368,0,0,1,.424-3.375q.493-2.769,3.928-1.435a5.169,5.169,0,0,1,.939,3.608.672.672,0,0,0,0,.445.611.611,0,0,0,.413.473.705.705,0,0,0,.649-.014c2.583-1.337,1.268-6.72-.172-8.515-2.325-2.9-7.423-2.645-9.962-.159-3.225,3.156-4.793,9.632-2.962,13.794a16.838,16.838,0,0,0,5.086,6.115,7.143,7.143,0,0,0,1.027.66,23.936,23.936,0,0,0-15.174,6.479c-5.811,6.049-3.456,15.7,1.98,21.125,5.089,5.075,15.38,4.462,18.133-2.616,2.223-5.715.617-14.559-7.01-14.361a.878.878,0,0,0-.614,1.483c.521.488,1.235.5,1.672.892a6.152,6.152,0,0,1,.023,9.1c-5.423,5.074-10.7-4.3-9.254-9,2.067-6.72,11.459-10.783,17.829-9.05a.975.975,0,0,0,.206.033,75.371,75.371,0,0,0,10.378,8.893c5.477,3.858,10.937,7.2,17.331,9.274,4.218,1.371,9.58,2.545,14.264,2.075a.978.978,0,0,0,.182.091c1.82.679,2.867,2.055,4.912,2.247a14.736,14.736,0,0,0,6.862-.979c2.835-1.224,4.773-4.078,2.872-6.684C462.258,1298.913,462.821,1297.968,462.3,1296.056Z" transform="translate(-378.42 -1258.874)"/></g><g transform="translate(0 16.079)"><path class="c" d="M470.009,1307.094c-1.51,7.6-8.95,9.6-15.954,8.683-5.8-.761-11.828-5.771-16.391-9.229-9.412-7.133-16.276-17.064-25.74-24.069-8.412-6.228-19.563-3.86-28.132,1.031-8.323,4.75-14.406,12.628-11.818,22.611,1.118,4.315,3.654,8.054,7.9,9.706,3.961,1.539,10.084,2.669,13.859.191.78-.512.063-1.763-.735-1.259-3.257,2.055-8.088,1.052-11.576-.036-4.068-1.267-6.545-4.356-7.747-8.359-2.583-8.6,2.106-15.807,9.151-20.374,5.711-3.7,14.975-7.086,21.78-5.3,6.485,1.7,11.486,7.423,15.985,12.081,8.656,8.963,17.656,17.886,28.981,23.491,4.357,2.156,10.536,1.868,15.02.139,4.24-1.634,6.239-4.509,7.049-8.857C471.839,1306.483,470.222,1306.022,470.009,1307.094Z" transform="translate(-371.37 -1278.73)"/></g><g transform="translate(92.621 41.013)"><path class="c" d="M500.261,1309.917c-1.437,2.62-3.044,5.622-6.238,6.311a8.886,8.886,0,0,1-2.384.082c-1.879-.122-2.144-.131-3.259-1.6-.692-.913-1.328-1.837-.207-2.744,1.19-.961,4.756.181,3.291,2.569-.483.788.742,1.495,1.234.722,1.549-2.433-.439-4.889-3.068-5.171a3.724,3.724,0,0,0-3.668,5.023c1.03,2.885,5.542,3.165,8.07,2.745,3.877-.646,5.9-3.942,7.62-7.123C502.148,1309.82,500.762,1309.006,500.261,1309.917Z" transform="translate(-485.744 -1309.519)"/></g></g></g></g></svg>