<?xml version="1.0" standalone="no"?><!DOCTYPE svg PUBLIC "-//W3C//DTD SVG 1.1//EN" "http://www.w3.org/Graphics/SVG/1.1/DTD/svg11.dtd"><svg class="icon" width="24px" height="24.00px" viewBox="0 0 1024 1024" version="1.1" xmlns="http://www.w3.org/2000/svg"><path d="M214.138366 966.003965c-86.003121 0-156.072331-69.971217-156.072331-156.030334V214.096365c0-86.008121 70.06921-156.030334 156.072331-156.030334H356.013668a42.544092 42.544092 0 0 1 0 85.089183H214.138366a71.046143 71.046143 0 0 0-70.93815 70.941151V809.973631a70.980148 70.980148 0 0 0 70.93815 70.94115H809.982635a70.980148 70.980148 0 0 0 70.937151-70.94115V668.09133a42.542092 42.542092 0 1 1 85.084183 0V809.973631c0 86.059117-69.967217 156.030334-156.021334 156.030334z m253.66966-409.661996a42.542092 42.542092 0 0 1 0-60.215884l352.950872-352.970871H668.107333a42.544092 42.544092 0 0 1 0-85.089183h255.354545a42.546092 42.546092 0 0 1 42.542091 42.544091v255.368544a42.542092 42.542092 0 1 1-85.084183 0V203.371098L527.917917 556.341969a42.474096 42.474096 0 0 1-60.110891 0z" /></svg>