<?xml version="1.0" standalone="no"?><!DOCTYPE svg PUBLIC "-//W3C//DTD SVG 1.1//EN" "http://www.w3.org/Graphics/SVG/1.1/DTD/svg11.dtd"><svg class="icon" width="24px" height="23.98px" viewBox="0 0 1025 1024" version="1.1" xmlns="http://www.w3.org/2000/svg"><path d="M0.800625 73.542455c0 39.968726 28.777482 72.743081 63.949961 72.743081s63.949961-31.97498 63.949961-72.743081c0-39.968726-28.777482-72.743081-63.949961-72.74308S0.800625 31.97498 0.800625 73.542455zM256.600469 0.799375h767.399531v145.486161H256.600469V0.799375z m0 364.514777c0 39.968726 28.777482 73.542455 63.949961 73.542455s63.949961-32.774355 63.949961-73.542455c0-25.579984-11.990618-49.56122-31.974981-63.150587a57.554965 57.554965 0 0 0-63.94996 0 75.141204 75.141204 0 0 0-31.974981 63.949961z m255.799844-72.743081h511.599687v146.285536H512.400313V292.571071z m-255.799844 657.085848c0 39.968726 28.777482 72.743081 63.949961 72.743081s63.949961-31.97498 63.949961-72.743081c0-39.968726-28.777482-72.743081-63.949961-72.74308s-63.949961 31.97498-63.949961 72.74308z m255.799844-72.74308h511.599687v145.486161H512.400313v-145.486161z m0-219.028616c0 39.968726 28.777482 72.743081 63.949961 72.74308s63.949961-31.97498 63.949961-72.74308c0-26.379359-11.990618-50.360594-31.974981-63.949961a56.75559 56.75559 0 0 0-63.949961 0 75.141204 75.141204 0 0 0-31.97498 63.949961zM768.200156 583.543393h255.799844v146.285536H768.200156V584.342768z" /></svg>