<svg xmlns="http://www.w3.org/2000/svg" width="24" height="24" viewBox="0 0 24 24">
  <defs>
    <style>
      .cls-1 {
        fill: rgba(255,255,255,0);
      }
    </style>
  </defs>
  <g id="营销中心" transform="translate(-196 -20)">
    <rect id="矩形_2" data-name="矩形 2" class="cls-1" width="24" height="24" transform="translate(196 20)"/>
    <rect id="矩形_1" data-name="矩形 1" class="cls-1" width="20" height="20" transform="translate(198 22)"/>
    <path id="减去_6" data-name="减去 6" d="M-55.5-37.5h-15A1.5,1.5,0,0,1-72-39V-52a1.5,1.5,0,0,1,1.5-1.5H-67v-.751a.751.751,0,0,1,.75-.75.751.751,0,0,1,.75.75v.751h5v-.751a.751.751,0,0,1,.75-.75.751.751,0,0,1,.75.75v.751h3.5A1.5,1.5,0,0,1-54-52v13A1.5,1.5,0,0,1-55.5-37.5Zm-9.45-9.056a.755.755,0,0,0-.53.22l-3.406,3.406a.745.745,0,0,0-.219.53.745.745,0,0,0,.219.53.745.745,0,0,0,.53.22.746.746,0,0,0,.531-.22l2.819-2.819,1.847,2.261a.752.752,0,0,0,.543.275h.038a.753.753,0,0,0,.529-.219l3.655-3.641v.749a.751.751,0,0,0,.75.75.751.751,0,0,0,.75-.75V-47.6a.751.751,0,0,0-.75-.75h-2.571a.751.751,0,0,0-.75.75.751.751,0,0,0,.75.751h.536l-2.841,2.83-1.849-2.262a.752.752,0,0,0-.543-.274Z" transform="translate(271 77.75)"/>
  </g>
</svg>
