<svg xmlns="http://www.w3.org/2000/svg" width="24" height="24" viewBox="0 0 24 24">
  <defs>
    <style>
      .cls-1 {
        fill: rgba(255,255,255,0);
      }
    </style>
  </defs>
  <g id="客户管理" transform="translate(-152 -64)">
    <rect id="矩形_2" data-name="矩形 2" class="cls-1" width="24" height="24" transform="translate(152 64)"/>
    <rect id="矩形_1" data-name="矩形 1" class="cls-1" width="20" height="20" transform="translate(154 66)"/>
    <g id="组_5" data-name="组 5" transform="translate(0 -0.5)">
      <path id="路径_14" data-name="路径 14" d="M292.407,84.022a5.072,5.072,0,0,0,7.131,0,4.97,4.97,0,0,0,0-7.071,5.072,5.072,0,0,0-7.131,0A4.97,4.97,0,0,0,292.407,84.022Z" transform="translate(-131.972 -9.486)"/>
      <path id="路径_15" data-name="路径 15" d="M160.355,556.273H152a4.5,4.5,0,0,0-4.441,4.549v2.284a2.639,2.639,0,0,0,2.6,2.667H162.2a2.639,2.639,0,0,0,2.6-2.667v-2.284A4.5,4.5,0,0,0,160.355,556.273Z" transform="translate(7.629 -479.773)"/>
    </g>
  </g>
</svg>
