<svg xmlns="http://www.w3.org/2000/svg" width="24" height="24" viewBox="0 0 24 24">
  <defs>
    <style>
      .cls-1 {
        fill: rgba(255,255,255,0);
      }

      .cls-2 {
        fill: none;
        stroke: #000;
        stroke-linecap: round;
        stroke-width: 1.5px;
      }
    </style>
  </defs>
  <g id="秒杀" transform="translate(-372 -20)">
    <rect id="矩形_2" data-name="矩形 2" class="cls-1" width="24" height="24" transform="translate(372 20)"/>
    <rect id="矩形_1" data-name="矩形 1" class="cls-1" width="20" height="20" transform="translate(374 22)"/>
    <g id="组_3" data-name="组 3" transform="translate(-0.347 0.261)">
      <path id="减去_10" data-name="减去 10" d="M8.321,16.641a8.321,8.321,0,1,1,8.321-8.321A8.33,8.33,0,0,1,8.321,16.641ZM7.293,4.408a.352.352,0,0,0-.345.286l-.7,3.725a.352.352,0,0,0,.345.416h1l-.335,2.853a.351.351,0,0,0,.241.375.338.338,0,0,0,.107.017A.351.351,0,0,0,7.91,11.9l2.447-4.431a.351.351,0,0,0-.307-.52H8.976l1.246-2a.352.352,0,0,0-.3-.536Z" transform="translate(376.026 24.021)"/>
      <path id="路径_10" data-name="路径 10" class="cls-2" d="M447.113,82.182a9.937,9.937,0,0,1,4.331-4.562" transform="translate(-71.766 -54.142)"/>
      <path id="路径_11" data-name="路径 11" class="cls-2" d="M451.444,82.182a9.937,9.937,0,0,0-4.331-4.562" transform="translate(-58.097 -54.142)"/>
      <rect id="矩形_55" data-name="矩形 55" width="1.56" height="6.24" rx="0.78" transform="translate(378.023 40.662) rotate(-135)"/>
      <rect id="矩形_64" data-name="矩形 64" width="1.56" height="6.24" rx="0.78" transform="translate(386.258 36.25) rotate(-45)"/>
    </g>
  </g>
</svg>
