<svg xmlns="http://www.w3.org/2000/svg" width="24" height="24" viewBox="0 0 24 24">
  <defs>
    <style>
      .cls-1 {
        fill: rgba(255,255,255,0);
      }
    </style>
  </defs>
  <g id="店铺装修" transform="translate(-196 -108)">
    <rect id="矩形_2" data-name="矩形 2" class="cls-1" width="24" height="24" transform="translate(196 108)"/>
    <rect id="矩形_1" data-name="矩形 1" class="cls-1" width="20" height="20" transform="translate(198 110)"/>
    <path id="路径_23" data-name="路径 23" d="M131.3,67.63V65.277a1.16,1.16,0,0,1,1.143-1.177h13.714a1.161,1.161,0,0,1,1.143,1.177V67.63Zm0,1.177h16v3.909a1.176,1.176,0,0,1-.719,1.093l-4.568,1.881a.59.59,0,0,0-.351.643l.5,4.239c0,1.3-1.595,2.354-2.858,2.354s-2.858-1.053-2.858-2.354l.5-4.239a.593.593,0,0,0-.351-.643l-4.568-1.881a1.179,1.179,0,0,1-.719-1.093Z" transform="translate(68.7 47.076)"/>
  </g>
</svg>
