<svg xmlns="http://www.w3.org/2000/svg" width="24" height="24" viewBox="0 0 24 24">
  <defs>
    <style>
      .cls-1 {
        fill: rgba(255,255,255,0);
      }
    </style>
  </defs>
  <g id="菜单管理" transform="translate(-372 -152)">
    <rect id="矩形_2" data-name="矩形 2" class="cls-1" width="24" height="24" transform="translate(372 152)"/>
    <rect id="矩形_1" data-name="矩形 1" class="cls-1" width="20" height="20" transform="translate(374 154)"/>
    <path id="路径_42" data-name="路径 42" d="M18.928,7.639a1.261,1.261,0,0,0-.887-.932l-.309-.072a3.083,3.083,0,0,1-1.781-1.417,3.116,3.116,0,0,1-.328-2.275l.1-.292a1.282,1.282,0,0,0-.361-1.241A8.7,8.7,0,0,0,14.251.688a9.377,9.377,0,0,0-1.172-.6,1.259,1.259,0,0,0-1.249.305L11.615.62A3.04,3.04,0,0,1,9.5,1.463,3.052,3.052,0,0,1,7.384.613L7.178.388A1.263,1.263,0,0,0,5.928.083a9.076,9.076,0,0,0-1.176.6,8.575,8.575,0,0,0-1.108.726,1.271,1.271,0,0,0-.36,1.237l.089.3a3.12,3.12,0,0,1-.327,2.272A3.065,3.065,0,0,1,1.253,6.639l-.3.068a1.277,1.277,0,0,0-.887.932A8.667,8.667,0,0,0,0,8.966a8.667,8.667,0,0,0,.068,1.327,1.254,1.254,0,0,0,.887.932l.291.068A3.054,3.054,0,0,1,3.04,12.717a3.119,3.119,0,0,1,.328,2.275l-.084.288a1.282,1.282,0,0,0,.361,1.241,8.7,8.7,0,0,0,1.108.722,8.938,8.938,0,0,0,1.173.6,1.259,1.259,0,0,0,1.249-.305l.2-.221a3.069,3.069,0,0,1,4.245,0l.2.222a1.262,1.262,0,0,0,1.249.3,9.115,9.115,0,0,0,1.177-.6,8.311,8.311,0,0,0,1.106-.722,1.276,1.276,0,0,0,.361-1.241l-.089-.3a3.1,3.1,0,0,1,2.122-3.688l.292-.068a1.277,1.277,0,0,0,.887-.932A8.667,8.667,0,0,0,19,8.968a8.945,8.945,0,0,0-.072-1.329ZM9.5,12.779a3.811,3.811,0,1,1,3.788-3.81A3.8,3.8,0,0,1,9.5,12.779Z" transform="translate(374.5 155.034)"/>
  </g>
</svg>
