<svg xmlns="http://www.w3.org/2000/svg" width="24" height="24" viewBox="0 0 24 24">
  <defs>
    <style>
      .cls-1 {
        fill: rgba(255,255,255,0);
      }
    </style>
  </defs>
  <g id="客户分群" transform="translate(-328 -64)">
    <rect id="矩形_2" data-name="矩形 2" class="cls-1" width="24" height="24" transform="translate(328 64)"/>
    <rect id="矩形_1" data-name="矩形 1" class="cls-1" width="20" height="20" transform="translate(330 66)"/>
    <g id="组_6" data-name="组 6" transform="translate(1 0.928)">
      <path id="减去_17" data-name="减去 17" d="M8.143,14.931a8.1,8.1,0,0,1-2.994-.568A4.524,4.524,0,0,0,1.81,6.788a4.5,4.5,0,0,0-1.8.373C0,7.021,0,6.9,0,6.788A8.133,8.133,0,0,1,3.641,0c-.014.145-.022.3-.022.453a4.524,4.524,0,0,0,9.048,0c0-.151-.008-.3-.023-.454a8.133,8.133,0,0,1,3.642,6.787c0,.123,0,.249-.008.373a4.524,4.524,0,0,0-5.141,7.2A8.1,8.1,0,0,1,8.143,14.931Z" transform="translate(330.857 68.962)"/>
      <path id="减去_19" data-name="减去 19" d="M3.166,6.333A3.167,3.167,0,1,1,6.333,3.166,3.17,3.17,0,0,1,3.166,6.333Z" transform="translate(342.167 77.108)"/>
      <path id="减去_18" data-name="减去 18" d="M3.166,6.333A3.167,3.167,0,1,1,6.333,3.166,3.17,3.17,0,0,1,3.166,6.333Z" transform="translate(329.5 77.108)"/>
      <path id="减去_20" data-name="减去 20" d="M3.166,6.333A3.167,3.167,0,1,1,6.333,3.166,3.17,3.17,0,0,1,3.166,6.333Z" transform="translate(335.834 66.25)"/>
    </g>
  </g>
</svg>
