<svg xmlns="http://www.w3.org/2000/svg" width="24" height="24" viewBox="0 0 24 24">
  <defs>
    <style>
      .cls-1 {
        fill: rgba(255,255,255,0);
      }
    </style>
  </defs>
  <g id="场景营销" transform="translate(-20 -64)">
    <rect id="矩形_2" data-name="矩形 2" class="cls-1" width="24" height="24" transform="translate(20 64)"/>
    <rect id="矩形_1" data-name="矩形 1" class="cls-1" width="20" height="20" transform="translate(22 66)"/>
    <path id="减去_11" data-name="减去 11" d="M-63.5-35.321a2,2,0,0,1-1.014-.276l-6.5-3.823A2.007,2.007,0,0,1-72-41.144v-7.713a2.007,2.007,0,0,1,.986-1.724l6.5-3.823a2,2,0,0,1,1.014-.276,2,2,0,0,1,1.014.276l6.5,3.823A2.007,2.007,0,0,1-55-48.856v7.713a2.007,2.007,0,0,1-.986,1.724l-6.5,3.823A2,2,0,0,1-63.5-35.321ZM-60-49a.751.751,0,0,0-.75.75v6.5A.751.751,0,0,0-60-41a.751.751,0,0,0,.75-.751v-6.5A.751.751,0,0,0-60-49Zm-3.5,2a.751.751,0,0,0-.75.75v4.5A.751.751,0,0,0-63.5-41a.751.751,0,0,0,.751-.751v-4.5A.751.751,0,0,0-63.5-47ZM-67-45a.751.751,0,0,0-.75.751v2.5A.751.751,0,0,0-67-41a.751.751,0,0,0,.751-.751v-2.5A.751.751,0,0,0-67-45Z" transform="translate(95.5 121)"/>
  </g>
</svg>
