<svg id="组_13847" data-name="组 13847" xmlns="http://www.w3.org/2000/svg" xmlns:xlink="http://www.w3.org/1999/xlink" width="57" height="36" viewBox="0 0 57 36">
  <defs>
    <style>
      .cls-1 {
        fill: #333;
      }

      .cls-2 {
        stroke: rgba(0,0,0,0);
        stroke-miterlimit: 10;
        fill: url(#linear-gradient);
      }
    </style>
    <linearGradient id="linear-gradient" x1="0.024" y1="0.398" x2="0.983" y2="0.36" gradientUnits="objectBoundingBox">
      <stop offset="0" stop-color="#c5aa7b"/>
      <stop offset="1" stop-color="#ffebc4"/>
    </linearGradient>
  </defs>
  <rect id="矩形_804" data-name="矩形 804" class="cls-1" width="57" height="36" transform="translate(0 0)"/>
  <path id="联合_25" data-name="联合 25" class="cls-2" d="M4.968,12.538H3.825l.889-6.7H5.871l-.9,6.7Zm-3.21,0L3.036,5.185H1.264l.254-1.471H3.3l.274-1.6-1.591.055L2.246.606,7.02.415l-.274,1.56-1.638.066L4.821,3.714H6.459L6.2,5.185H4.56L3.282,12.538Zm-.615,0H0l1.431-6.7H2.587l-1.437,6.7Zm25.121-.013h-2.12l-.855-3.353h2.125l.856,3.353Zm-8.685,0,.916-1.578h.428a.5.5,0,0,0,.361-.149.676.676,0,0,0,.2-.393l.376-2.173h-5.7l-8.733,4.2L5.75,10.56l3-1.32L11.46,8l2.969-1.348h5.7l.18-1.02h1.88l-.181,1.02h5.322l-.281,1.578H21.737l-.415,2.409a2.371,2.371,0,0,1-.253.736,2.278,2.278,0,0,1-.455.6,1.906,1.906,0,0,1-.588.4,1.394,1.394,0,0,1-.642.149Zm-1.972,0H10.37l.909-1.571H14.4l1.076-1.782h2.127l-1.987,3.3-.006.053Zm12.9-.143,2.033-7.714H29.1L32.216.021h2.253L32.529,2.9h.629l-2.5,9.484Zm10.23-.068,2.053-7.8h2.039l-2.053,7.8Zm-6.759-.066,1.316-2.132L34.769,4.51h2.06L35.35,10.116l-1.337,2.132ZM6.144,8.913,8.312.536H9.768L7.6,8.913Zm2.808-.829L10.324.191H12.1L10.879,7.212l-1.919.872ZM27.073,6.021A13.808,13.808,0,0,1,24,5.388a18,18,0,0,1-2.722-1.129,25.27,25.27,0,0,1-3.1,1.129,16.77,16.77,0,0,1-3.283.632l.289-1.673a18.871,18.871,0,0,0,2.213-.5c.675-.193,1.337-.408,2.033-.666a18.355,18.355,0,0,1-2.187-1.667A13.566,13.566,0,0,1,15.907.191h2.754c.207.138.535.374,1.09.795a17.246,17.246,0,0,0,1.886,1.239c.916-.436,1.7-.857,2.332-1.239.71-.427,1.1-.657,1.345-.795h2.774a22.147,22.147,0,0,1-1.812,1.327c-.776.531-1.678,1.076-2.755,1.667.6.249,1.185.468,1.806.666a14.782,14.782,0,0,0,2.032.5l1.144.013-.186,1.66ZM12.45,5.838l.3-5.3h1.47l-.307,5.3ZM41.629,4.069l-.107-2.611H38.287l.006-.036L36.441,3.98H34L36.836,0h6.772l.462,4.069Z" transform="translate(6.485 11.813)"/>
</svg>
