<svg xmlns="http://www.w3.org/2000/svg" xmlns:xlink="http://www.w3.org/1999/xlink" width="101.1" height="20" viewBox="0 0 101.1 20"><defs><style>.a,.e{fill:none;}.a{stroke:#c5aa7b;stroke-width:1.5px;}.b{fill:#c5aa7b;}.c{fill:url(#a);}.d{stroke:none;}</style><linearGradient id="a" x1="1" y1="0.469" x2="0.019" y2="0.441" gradientUnits="objectBoundingBox"><stop offset="0" stop-color="#ffebc4"/><stop offset="1" stop-color="#c5aa7b"/></linearGradient></defs><g transform="translate(-1021.729 -336)"><g transform="translate(1021.729 336)"><g transform="translate(0 0)"><g class="a" transform="translate(0)"><ellipse class="d" cx="9.583" cy="10" rx="9.583" ry="10"/><ellipse class="e" cx="9.583" cy="10" rx="8.833" ry="9.25"/></g><path class="b" d="M150.119,0l-3.833,6.82h3.757l-2.382,5.762,7.557-8.421H150.7L153.539,0Z" transform="translate(-140.836 4.24)"/></g></g><path class="c" d="M40.732,17l-.9-4.057h3.005l.211,1.008h7.134l1.4-1.886H40.13l2.1-4.057H37.758a19.88,19.88,0,0,1-4.282-.869,26.326,26.326,0,0,1-3.795-1.55,37.791,37.791,0,0,1-4.331,1.55,24.07,24.07,0,0,1-4.579.869l.405-2.3a27.042,27.042,0,0,0,3.085-.681Q25.746,4.6,27.1,4.11A26.083,26.083,0,0,1,24.05,1.82,21.31,21.31,0,0,1,22.184,0h3.843q.478.305,1.514,1.092a24.936,24.936,0,0,0,2.633,1.7q1.94-.916,3.254-1.7T35.307,0H39.17q-.86.705-2.518,1.82T32.8,4.11q1.18.493,2.516.916a21.43,21.43,0,0,0,2.844.681l5.24.043,1.337-2.562H40.734l.38-2.158h4.754L46.392.021h3.133L49,1.029H57.57l-.38,2.158H47.873L46.541,5.751H57.42l-.386,2.257H45.4l-1.071,1.9H55.78l-.3.54-3.533,5.661H43.525l.191.892Zm-35.4-.044L6.57,7.75H8.185L6.929,16.956ZM0,16.956,1.991,7.75H3.606L1.594,16.956Zm2.453,0,1.78-10.1H1.76l.356-2.02H4.59L4.979,2.63l-2.22.07L3.135.564,9.784.305,9.407,2.442l-2.285.094-.406,2.3H9l-.356,2.02H6.359l-1.781,10.1Zm31.218-.023-1.192-4.6h2.964l1.192,4.6Zm-9.158,0,1.28-2.16h.593a.714.714,0,0,0,.508-.212.951.951,0,0,0,.279-.539l.526-2.983H19.747L7.568,16.814l.455-2.583,4.182-1.808,3.774-1.7,4.149-1.848h7.951l.249-1.409h2.617L30.7,8.877h7.42l-.381,2.16h-7.42l-.584,3.311a3.253,3.253,0,0,1-.353,1.01,3.339,3.339,0,0,1-.629.822,2.885,2.885,0,0,1-.818.552,2.19,2.19,0,0,1-.9.2Zm-2.78,0H14.461l1.275-2.155h4.351l1.5-2.448h2.964l-2.77,4.529-.011.074Zm36.655-.023a1.465,1.465,0,0,1-1.274-.658,2.068,2.068,0,0,1-.291-1.6L59,2.325l.36-2.043L59.4.047H77.183l-.4,2.278H61.92L59.846,14.09a.5.5,0,0,0,.064.388.334.334,0,0,0,.29.153H74.612l-1.118,2.278Zm12.049-3.757a12.119,12.119,0,0,1-2.7-1.386,18.257,18.257,0,0,1-3.188,1.386,22.681,22.681,0,0,1-3.812.869l.5-2.842q1.256-.282,2.33-.634a17.054,17.054,0,0,0,2.056-.822,13.279,13.279,0,0,1-1.6-2.865A25.849,25.849,0,0,1,62.863,3.24h3a23.081,23.081,0,0,0,1.173,2.678,10.194,10.194,0,0,0,1.371,2.019,18.658,18.658,0,0,0,2.073-2.019q1.02-1.151,2.128-2.678h3a37.809,37.809,0,0,1-2.447,3.617A22.36,22.36,0,0,1,70.55,9.723a11.449,11.449,0,0,0,1.777.822,19.609,19.609,0,0,0,2.116.634l-.5,2.842A17.854,17.854,0,0,1,70.437,13.151ZM8.564,11.977,11.594.47h2.024L10.587,11.977ZM14.4,0h2.474l-1.7,9.635-2.686,1.2Zm2.967,7.75L17.788.47h2.044l-.425,7.28Z" transform="translate(1045.646 338)"/></g></svg>