<svg xmlns="http://www.w3.org/2000/svg" xmlns:xlink="http://www.w3.org/1999/xlink" width="57" height="36" viewBox="0 0 57 36"><defs><style>.a{fill:#333;}.b{stroke:rgba(0,0,0,0);stroke-miterlimit:10;fill:url(#a);}</style><linearGradient id="a" x1="0.024" y1="0.398" x2="0.983" y2="0.36" gradientUnits="objectBoundingBox"><stop offset="0" stop-color="#c5aa7b"/><stop offset="1" stop-color="#ffebc4"/></linearGradient></defs><g transform="translate(-428 -1656)"><rect class="a" width="57" height="36" transform="translate(428 1656)"/><path class="b" d="M9223.417-12197.617l2.031-7.716h-1.431l3.11-4.648h2.259l-1.937,2.88h.622l-2.5,9.484Zm-21.665,0-.055-.4H9190l2.071-3.31h-1.1l.5-1.7H9205.8l-.5,1.7h-10.961l-1.012,1.631h8.148l-.1-.926h2.537l.384,3Zm14.74-.016-3.2-2.179-4.311,2.179h-3.705l7.014-3.551.436-1.475h2.933l-.57,1.937-.925.463h2.022l4.134,2.626Zm17.156-.055,2.054-7.8h2.041l-2.057,7.8Zm-6.757-.067,1.318-2.127,1.477-5.607h2.057l-1.478,5.607-1.336,2.127Zm-8.788-2.093.94-3.187.01-.043a.305.305,0,0,0-.07-.275.459.459,0,0,0-.359-.129h-8.711l-1.073,3.635h-2.365l1.5-5.075H9220.1l.095,0a1.587,1.587,0,0,1,.588.125,1.382,1.382,0,0,1,.5.344,1.043,1.043,0,0,1,.254.5,1.25,1.25,0,0,1-.036.616l-1.027,3.481Zm-25.574-4.012.5-1.7h12.794l-.5,1.7Zm15.545-1.354,1.409-4.786h13.979l-.857,2.917-.028.086a2.385,2.385,0,0,1-.334.641,2.865,2.865,0,0,1-.579.592,2.712,2.712,0,0,1-.717.4,2.184,2.184,0,0,1-.681.144l-.086,0Zm2.592-1.458h9.123a.681.681,0,0,0,.423-.156.724.724,0,0,0,.251-.328l.016-.049.389-1.318h-9.655Zm25.879.738-.107-2.607H9233.2l.007-.034-1.852,2.556h-2.441l2.831-3.978h6.775l.462,4.063Zm-31.942-.361-.5-2.246h-7.686l-1.862,2.246h-2.488l3.03-3.705h11.166l.827,3.705Z" transform="translate(-8758 13878)"/></g></svg>