<svg xmlns="http://www.w3.org/2000/svg" xmlns:xlink="http://www.w3.org/1999/xlink" width="115.594" height="19.004" viewBox="0 0 115.594 19.004"><defs><style>.a{stroke:rgba(0,0,0,0);fill:url(#a);}.b{fill:#c5aa7b;}</style><linearGradient id="a" x1="1" y1="0.469" x2="0.019" y2="0.441" gradientUnits="objectBoundingBox"><stop offset="0" stop-color="#ffebc4"/><stop offset="1" stop-color="#c5aa7b"/></linearGradient></defs><g transform="translate(-1020.99 -277.997)"><path class="a" d="M15984.2-10251l-.764-4.062h3.451l.177,1.014h8.193l1.963-2.771h-13.148l2.9-4.062h-3.781l.579-2.16h4.743l1.274-1.786h-4.67l.579-2.16h5.611l.74-1.01h3.4l-.691,1.01h9.839l-.579,2.16h-10.8l-1.279,1.786h12.4l-.579,2.16h-13.362l-1.355,1.9h13.149l-.379.539-4.665,6.552h-9.674l.157.89Zm23.748-.021,1.432-2.023h2.559a.916.916,0,0,0,.575-.209.992.992,0,0,0,.35-.515l.068-.262h-9.979l.482-1.806h10.78l2.324-.966H16005.5l.512-1.9h16.551l-.507,1.9-2.256.966h4.228l-.487,1.806h-7.349l-.116.446a3.115,3.115,0,0,1-.467,1,3.978,3.978,0,0,1-.772.813,3.684,3.684,0,0,1-.969.551,2.947,2.947,0,0,1-1.062.2Zm-53.843,0-.088-.543H15938l2.719-4.529h-1.5l.623-2.325h19.6l-.619,2.325h-15l-1.328,2.229,11.158-.024-.181-1.242h3.475l.636,4.11Zm20.176-.028-4.46-2.98-5.824,2.98h-5.072l9.477-4.858.539-2.02h4.014l-.708,2.654-1.251.636h2.771l5.752,3.588Zm2.128-3.024,1.171-4.368a.44.44,0,0,0-.1-.435.634.634,0,0,0-.491-.177h-11.905l-1.336,4.979h-3.262l1.862-6.95h16.62a2.431,2.431,0,0,1,.941.173,2.027,2.027,0,0,1,.7.471,1.455,1.455,0,0,1,.366.691,1.687,1.687,0,0,1-.024.849l-1.278,4.767Zm29.806-5.378,1.375-5.145h17.75l-.684,2.563a3.258,3.258,0,0,1-.471,1.01,3.845,3.845,0,0,1-.771.82,3.689,3.689,0,0,1-.97.551,2.973,2.973,0,0,1-1.062.2Zm3.56-2.067h10.751a.9.9,0,0,0,.575-.213.966.966,0,0,0,.351-.516l.076-.281h-11.483Zm-68.523,1.951.623-2.325h17.518l-.624,2.325Zm21.233-1.854,1.754-6.553h19.158l-1.07,3.99a2.984,2.984,0,0,1-.467,1,3.856,3.856,0,0,1-.769.813,3.759,3.759,0,0,1-.969.551,2.934,2.934,0,0,1-1.042.2Zm3.516-2h12.489a.916.916,0,0,0,.575-.209.993.993,0,0,0,.35-.52l.482-1.806h-13.217Zm-8.311.519-.772-3.077h-10.521l-2.466,3.077h-3.407l4.015-5.072h15.284l1.271,5.072Zm48.2-2.28.555-2.063h8.267l-.089-.729h3.523l.085.729h8.853l-.555,2.063Z" transform="translate(-14891.152 10547)"/><path class="b" d="M103.587,160a1.955,1.955,0,0,1,1.581.8l3.6,4.951a1.955,1.955,0,0,1-.131,2.462L99.46,178.361a1.955,1.955,0,0,1-2.9,0l-9.177-10.143a1.955,1.955,0,0,1-.131-2.462l3.6-4.951a1.955,1.955,0,0,1,1.581-.8h11.153Zm0,1.676H92.434a.279.279,0,0,0-.226.115l-3.6,4.951a.279.279,0,0,0,.019.352L97.8,177.236a.279.279,0,0,0,.415,0l9.177-10.143a.279.279,0,0,0,.019-.352l-3.6-4.951a.279.279,0,0,0-.226-.115Zm-1.673,4.772a.838.838,0,1,1,1.242,1.125l-4.524,5a.838.838,0,0,1-1.242,0l-4.509-4.984a.838.838,0,1,1,1.242-1.125l3.888,4.3Z" transform="translate(934.112 117.997)"/></g></svg>