<svg xmlns="http://www.w3.org/2000/svg" width="380.002" height="150.004" viewBox="0 0 380.002 150.004"><defs><style>.a,.c{fill:#fff;}.b{fill:#c5aa7b;}.c{font-size:18px;font-family:MicrosoftYaHei, Microsoft YaHei;}</style></defs><g transform="translate(-359.998 -389.998)"><path class="a" d="M22403,20038h0l-60.01,0a12.5,12.5,0,0,0-24.979,0H22023v-150h295.012c-.008.188-.01.352-.01.5a12.5,12.5,0,0,0,25,0c0-.135,0-.285-.01-.5H22403v150Z" transform="translate(-21663 -19498)"/><path class="b" d="M22108,20038l0,0h-60.008a12.553,12.553,0,0,0-11.99-11.99v-125.02a12.459,12.459,0,0,0,12-12.49c0-.182,0-.336-.01-.5H22108v150h0v0Z" transform="translate(-21368 -19498)"/><text class="c" transform="translate(701 431)"><tspan x="0" y="0">立</tspan><tspan x="0" y="27">即</tspan><tspan x="0" y="54">领</tspan><tspan x="0" y="81">取</tspan></text></g></svg>