<svg xmlns="http://www.w3.org/2000/svg" xmlns:xlink="http://www.w3.org/1999/xlink" width="57" height="36" viewBox="0 0 57 36"><defs><style>.a{fill:#333;}.b{stroke:rgba(0,0,0,0);stroke-miterlimit:10;fill:url(#a);}</style><linearGradient id="a" x1="0.024" y1="0.398" x2="0.983" y2="0.36" gradientUnits="objectBoundingBox"><stop offset="0" stop-color="#c5aa7b"/><stop offset="1" stop-color="#ffebc4"/></linearGradient></defs><g transform="translate(-176 -394)"><rect class="a" width="57" height="36" transform="translate(176 394)"/><path class="b" d="M28.5,12.383l2.033-7.715H29.1L32.215.021h2.252L32.529,2.9h.629l-2.5,9.484Zm-5.215,0H9.414V12.35l.3-1.66L10.2,7.947H7.742l-1.35,4.4H4.305l1.338-4.4h-.7l.3-1.7h.909l.956-3.137H5.81l.3-1.7H7.241L6.953.021H9.227L9.5,1.408h1.725L11.981,0h2.274l-.775,1.408H14.6l-.3,1.7H13.152L12.59,6.246h1.144l-.3,1.7H12.289L11.8,10.689H23.9a.494.494,0,0,0,.361-.156.69.69,0,0,0,.2-.375l1.5-8.457H16.977L15.632,9.26H13.774L15.425,0h12.7L26.257,10.5A2.539,2.539,0,0,1,26,11.24a2.612,2.612,0,0,1-.448.6,2.057,2.057,0,0,1-.575.4,1.48,1.48,0,0,1-.649.143ZM8.244,6.246H10.5l.561-3.137H9.213ZM0,12.369l.588-1.184H.875a.5.5,0,0,0,.347-.156.671.671,0,0,0,.2-.375l.121-.686H.3L2.045,7.137l.883-4.918H1.765L2.026.756H3.189L3.316.021H5.288L5.155.756h.87L5.763,2.219h-.87L4.44,4.756h.989L4.045,7l-.676,3.77a2.019,2.019,0,0,1-.6,1.135,1.492,1.492,0,0,1-1.043.463Zm38.734-.055,2.053-7.8h2.039l-2.053,7.8Zm-6.759-.066,1.317-2.131,1.478-5.605h2.06l-1.478,5.605-1.337,2.131ZM19.744,9.879l.91-1.592h.2a.494.494,0,0,0,.361-.156.664.664,0,0,0,.2-.375l.555-3.121h-1.03L17.919,9.879H16.127l3.015-5.244H17.056l.288-1.594h4.915l.147-.822h1.751l-.147.822h1.117L24.84,4.635h-1.11l-.6,3.359a2.537,2.537,0,0,1-.253.742,2.887,2.887,0,0,1-.448.6,2.189,2.189,0,0,1-.582.4,1.48,1.48,0,0,1-.649.143ZM41.629,4.068l-.107-2.611H38.286l.007-.035L36.441,3.98H34L36.835,0h6.773l.462,4.068Z" transform="translate(182.877 405.811)"/></g></svg>