<svg xmlns="http://www.w3.org/2000/svg" xmlns:xlink="http://www.w3.org/1999/xlink" width="109.19" height="18.41" viewBox="0 0 109.19 18.41"><defs><style>.a{stroke:rgba(0,0,0,0);stroke-miterlimit:10;fill:url(#a);}.b{fill:#c5aa7b;}</style><linearGradient id="a" x1="0.024" y1="0.398" x2="0.983" y2="0.36" gradientUnits="objectBoundingBox"><stop offset="0" stop-color="#c5aa7b"/><stop offset="1" stop-color="#ffebc4"/></linearGradient></defs><g transform="translate(-1019.389 -306.09)"><path class="a" d="M32.529,17.675H13.145l.009-.05.415-2.283.685-3.763h-3.44L8.926,17.625H6.013l1.865-6.047H6.907l.424-2.332H8.605L9.932,4.938H8.113l.424-2.332h1.577L9.71.7h3.177l.383,1.9h2.4L16.736.677h3.172L18.832,2.606h1.557l-.422,2.332h-1.6l-.782,4.308h1.6l-.424,2.332h-1.6l-.683,3.763H33.392a.717.717,0,0,0,.5-.207.958.958,0,0,0,.276-.522l2.1-11.6H23.717L21.832,13.384H19.243L21.548.677H39.289L36.676,15.085A3.416,3.416,0,0,1,35.7,16.92a2.835,2.835,0,0,1-.809.556,2.164,2.164,0,0,1-.9.2ZM11.518,9.247h3.158l.78-4.308H12.867ZM0,17.65l.821-1.623h.405a.7.7,0,0,0,.483-.212.956.956,0,0,0,.276-.523l.17-.937H.415l2.444-3.881L4.086,3.718H2.469L2.83,1.71H4.451L4.633.7H7.385L7.2,1.71H8.414L8.051,3.718H6.837L6.2,7.2H7.582L5.646,10.284l-.938,5.175a2.78,2.78,0,0,1-.839,1.557,2.1,2.1,0,0,1-1.46.635ZM41.833,17.1l-.987-3.918h3.306l.228.977h7.858l1.535-1.825h-12.6l2.3-3.931H40.6l.312-2.208,3.865.029,1.473-2.473H41.841l.415-2.1h5.229l.579-.975h3.452l-.569.975h9.421l-.414,2.1H49.7L48.227,6.221H60.207L59.781,8.4h-12.8L45.8,10.24H58.4l-.323.526-3.894,5.465H44.912l.207.865Zm19.439-.089a1.686,1.686,0,0,1-1.4-.63,1.793,1.793,0,0,1-.316-1.546L61.95,2.906,62.339.937,62.384.7H81.968l-.443,2.2H65.166L62.881,14.279a.449.449,0,0,0,.072.382.366.366,0,0,0,.316.142H79.132l-1.229,2.2Zm-33.7-2.769,1.272-2.187h.285a.741.741,0,0,0,.506-.216.912.912,0,0,0,.278-.514l.776-4.291H29.255l-4.22,7.208H22.525L26.742,7.03H23.827l.4-2.183H31.09l.2-1.129h2.447l-.2,1.129H35.1L34.7,7.03H33.14L32.3,11.649a3.287,3.287,0,0,1-.355,1.013,3.475,3.475,0,0,1-.627.821,2.939,2.939,0,0,1-.809.556,2.2,2.2,0,0,1-.911.2Zm46.967-.862A14.119,14.119,0,0,1,71.57,12.04a21.762,21.762,0,0,1-3.513,1.337,28.555,28.555,0,0,1-4.194.839l.552-2.745c.922-.182,1.772-.388,2.566-.616a20.806,20.806,0,0,0,2.258-.794,12.9,12.9,0,0,1-1.762-2.774,22.736,22.736,0,0,1-1.274-3.5h3.307A21.541,21.541,0,0,0,70.8,6.385a9.943,9.943,0,0,0,1.51,1.949A20.32,20.32,0,0,0,74.6,6.385c.749-.751,1.527-1.607,2.341-2.593h3.305a37.151,37.151,0,0,1-2.693,3.5,23.658,23.658,0,0,1-2.881,2.774,13.348,13.348,0,0,0,1.952.794,23.592,23.592,0,0,0,2.33.616L78.4,14.216A22.3,22.3,0,0,1,74.543,13.376Z" transform="translate(1046 306.325)"/><g transform="translate(1019.389 306.09)"><path class="b" d="M3.809,102.565H1.335A5.891,5.891,0,0,1,4.654,98.1l1.028-.509L4.691,97a3.964,3.964,0,0,1,1.328-7.273,6.444,6.444,0,0,1,.909-1.31h-.2A5.236,5.236,0,0,0,1.5,93.6a5.155,5.155,0,0,0,1.736,3.873A7.273,7.273,0,0,0,0,103.14v.672H3.527a10.063,10.063,0,0,1,.282-1.245Zm13.645-12.9A3.955,3.955,0,0,1,19.092,97l-.991.591,1.026.509a5.891,5.891,0,0,1,3.328,4.464H19.728A10.213,10.213,0,0,1,20,103.82h3.846l-.056-.672a7.273,7.273,0,0,0-3.235-5.664,5.155,5.155,0,0,0,1.735-3.873,5.236,5.236,0,0,0-5.228-5.228h-.453a6.462,6.462,0,0,1,.845,1.282ZM16,97.658h0Z" transform="translate(0 -86.838)"/><path class="b" d="M240.021,1.254a4.545,4.545,0,0,1,2.336,8.465l-1.963,1.191,2.045,1a6.964,6.964,0,0,1,3.818,4.746H233.775a6.964,6.964,0,0,1,3.818-4.746l2.055-1-1.965-1.173a4.545,4.545,0,0,1,2.337-8.463v-.02Zm0-1.227a5.8,5.8,0,0,0-2.982,10.765,8.328,8.328,0,0,0-4.719,7.118h15.392a8.328,8.328,0,0,0-4.718-7.119A5.8,5.8,0,0,0,240.021,0V.027Z" transform="translate(-228.257 0)"/></g></g></svg>