<svg xmlns="http://www.w3.org/2000/svg" xmlns:xlink="http://www.w3.org/1999/xlink" width="57" height="36" viewBox="0 0 57 36">
  <defs>
    <style>
      .cls-1 {
        fill: #333;
      }

      .cls-2 {
        stroke: rgba(0,0,0,0);
        stroke-miterlimit: 10;
        fill: url(#linear-gradient);
      }
    </style>
    <linearGradient id="linear-gradient" x1="0.024" y1="0.398" x2="0.983" y2="0.36" gradientUnits="objectBoundingBox">
      <stop offset="0" stop-color="#c5aa7b"/>
      <stop offset="1" stop-color="#ffebc4"/>
    </linearGradient>
  </defs>
  <g id="组_14916" data-name="组 14916" transform="translate(-998 -1144)">
    <rect id="矩形_804" data-name="矩形 804" class="cls-1" width="57" height="36" transform="translate(998 1144)"/>
    <path id="联合_150" data-name="联合 150" class="cls-2" d="M13927.221-11229.622l2.032-7.716h-1.431l3.11-4.643h2.257l-1.938,2.88h.627l-2.5,9.479Zm-16.691,0,1.532-6.07h13.948l-1.057,4.185a2.274,2.274,0,0,1-.333.738,2.651,2.651,0,0,1-.556.6,2.733,2.733,0,0,1-.707.4,2.182,2.182,0,0,1-.78.146Zm2.831-1.7h8.607a.667.667,0,0,0,.42-.153.7.7,0,0,0,.252-.4l.539-2.128h-9.144Zm-13.665,1.68.424-1.68h.588l2.7-10.679h6.4a1.575,1.575,0,0,1,.688.144,1.346,1.346,0,0,1,.5.4,1.346,1.346,0,0,1,.255.6,1.7,1.7,0,0,1-.034.721l-2.226,8.811h.605l-.424,1.68Zm3.174-1.68h3.972l.49-1.938h-3.976Zm.879-3.481h3.975l.546-2.159h-3.975Zm.934-3.7h3.976l.356-1.406a.419.419,0,0,0-.062-.375.413.413,0,0,0-.357-.153h-3.422Zm-10.283,7.251,5.3-.528-.406,1.609-5.294.5Zm43.054,1.563,2.054-7.8h2.04l-2.054,7.8Zm-6.757-.069,1.319-2.124,1.477-5.609h2.054l-1.477,5.609-1.333,2.124Zm-35.989-2.709,2.9-3.891h-1.917l4.224-5.641h2.487l-2.9,3.873h1.922l-3.107,4.146h1.938l-.382,1.512Zm18.126-4.149.423-1.68h-1.158l2.869-3.7h11.254l1,3.7h-1.071l-.423,1.68Zm1.795-1.7h10.092l-.612-2.229h-7.744Zm25.723.378-.108-2.607h-3.233l.007-.035-1.852,2.559h-2.442l2.835-3.979h6.774l.462,4.063Z" transform="translate(-12892 12398)"/>
  </g>
</svg>
