<svg xmlns="http://www.w3.org/2000/svg" width="380.002" height="150.004" viewBox="0 0 380.002 150.004"><defs><style>.a,.c{fill:#fff;}.b{fill:#c83732;}.c{font-size:18px;font-family:MicrosoftYaHei, Microsoft YaHei;}.d,.e{fill:#eee;}.e{font-size:20px;font-family:SourceHanSansCN-Medium, Source Han Sans CN;font-weight:500;}</style></defs><g transform="translate(-359.997 -389.998)"><path class="a" d="M22403,20038h0l-60.01,0a12.5,12.5,0,0,0-24.979,0H22023v-150h295.012c-.008.188-.01.352-.01.5a12.5,12.5,0,0,0,25,0c0-.135,0-.285-.01-.5H22403v150Z" transform="translate(-21663 -19498)"/><path class="b" d="M22108,20038l0,0h-60.008a12.553,12.553,0,0,0-11.99-11.99v-125.02a12.459,12.459,0,0,0,12-12.49c0-.182,0-.336-.01-.5H22108v150h0v0Z" transform="translate(-21368 -19498)"/><text class="c" transform="translate(701 431)"><tspan x="0" y="0">立</tspan><tspan x="0" y="27">即</tspan><tspan x="0" y="54">使</tspan><tspan x="0" y="81">用</tspan></text><g transform="translate(-410.327 -5.059)"><g transform="translate(974.327 446.066)"><path class="d" d="M49.117,5.12a44,44,0,1,0,44,44A44.006,44.006,0,0,0,49.117,5.12Zm0,85.2A41.22,41.22,0,1,1,90.35,49.117,41.233,41.233,0,0,1,49.117,90.323Zm0,0" transform="translate(-5.12 -5.12)"/><path class="d" d="M157.973,147.625a32.192,32.192,0,0,0-11.715,15.039c0,.684,1.013,1.013,1.342,0s4.018-9.688,10.7-13.706c.658-.649.658-1-.329-1.333Zm29.527-3.831a32.079,32.079,0,0,0-19.057-1.1c-.569.382-.267,1.4.773,1.1,1.013-.293,10.257-2.2,17.359,1.04.951.178,1.218,0,.924-1.04ZM163.386,202.6a33.95,33.95,0,0,0,20.1,1.929c.6-.391.329-1.458-.747-1.191-1.1.267-10.968,1.9-18.346-1.787-.942-.231-1.271-.027-1,1.049Zm30.825-3.271a33.982,33.982,0,0,0,12.31-15.99c0-.711-1.067-1.067-1.431,0s-4.2,10.284-11.27,14.595c-.676.675-.676,1.031.391,1.4Zm0,0-32.22-51.7.658,2.675,1.7-2.346,2.675.356-1.342-2.347,1.342-2.675-2.675,1.013L162,142.283v2.675l-2.684,1.662M187.3,203.675l.658,2.675,1.7-2.347,2.675.356-1.342-2.347,1.342-2.675-2.675,1.013-2.347-2.018v2.675l-2.675,1.662" transform="translate(-131.548 -129.911)"/></g><text class="e" transform="matrix(0.914, -0.407, 0.407, 0.914, 994.171, 507.377)"><tspan x="0" y="0">已领取</tspan></text></g></g></svg>