<svg xmlns="http://www.w3.org/2000/svg" xmlns:xlink="http://www.w3.org/1999/xlink" width="57" height="36" viewBox="0 0 57 36"><defs><style>.a{fill:#333;}.b{stroke:rgba(0,0,0,0);stroke-miterlimit:10;fill:url(#a);}</style><linearGradient id="a" x1="0.024" y1="0.398" x2="0.983" y2="0.36" gradientUnits="objectBoundingBox"><stop offset="0" stop-color="#c5aa7b"/><stop offset="1" stop-color="#ffebc4"/></linearGradient></defs><g transform="translate(-176.051 -671)"><rect class="a" width="57" height="36" transform="translate(176.051 671)"/><path class="b" d="M.194,12.236l.89-1.452h.288a.566.566,0,0,0,.4-.154.67.67,0,0,0,.221-.377l.174-.993H0L2.645,6.492l.67-3.815H1.541L1.834,1.01H3.61L3.792,0H5.934l-.18,1.01H7.616L7.676.673,16.3.1l-.281,1.6-6.537.417L9.124,4.135h6.47l-.282,1.6H14.006l-.851,4.817h3.128v.008h.53a.381.381,0,0,0,.26-.114.406.406,0,0,0,.155-.244l.335-1.9-2.036.442.295-1.679,2.036-.455.649-3.7H16.685l.288-1.667H18.8L19,.088H21.08l-.2,1.155h1.894L22.48,2.91h-1.9l-.562,3.226,2.156-.471-.294,1.694-2.165.478-.542,3.1a1.5,1.5,0,0,1-.522.894,1.406,1.406,0,0,1-.959.368H10.824l1.139-6.471H8.842L8,10.557,7.006,12.2H4.943l.991-1.646L6.966,4.69l-2.278,2.4-.583,3.3a1.991,1.991,0,0,1-.274.72,2.566,2.566,0,0,1-.51.591,2.518,2.518,0,0,1-.657.4,2,2,0,0,1-.723.139ZM5.212,4.12H7.067l.254-1.444H5.459ZM31.69,12.23l2.036-7.62H32.292L35.407.021h2.264L35.729,2.87h.623l-2.5,9.36Zm10.248-.067,2.057-7.7h2.043l-2.057,7.7ZM35.173,12.1,36.492,10l1.48-5.538h2.057L38.549,10l-1.333,2.1ZM23.564,12.07H21.489l.287-1.648,1.515-8.607.04-.217L23.584.154H31.69l-.007.036L31.4,1.8l-1.581,9a1.518,1.518,0,0,1-.531.9,1.439,1.439,0,0,1-.95.364Zm.295-1.667h3.6a.409.409,0,0,0,.255-.1.375.375,0,0,0,.154-.248l1.446-8.238H25.367Zm20.98-6.384-.1-2.574H41.5l.006-.034L39.647,3.939H37.2L40.035.008h6.786l.469,4.011Z" transform="translate(180.905 682.653)"/></g></svg>