<svg xmlns="http://www.w3.org/2000/svg" xmlns:xlink="http://www.w3.org/1999/xlink" width="114.686" height="20.222" viewBox="0 0 114.686 20.222"><defs><style>.a{fill:#c5aa7b;stroke:#c5aa7b;stroke-width:0.2px;}.b{fill:url(#a);}</style><linearGradient id="a" x1="1" y1="0.469" x2="0.019" y2="0.441" gradientUnits="objectBoundingBox"><stop offset="0" stop-color="#ffebc4"/><stop offset="1" stop-color="#c5aa7b"/></linearGradient></defs><g transform="translate(-520.151 -778.396)"><g transform="translate(520.304 778.5)"><path class="a" d="M514.917,170.943a1.9,1.9,0,0,0-.951-.256,1.909,1.909,0,1,0,.952.256Zm-.374,1.989a.673.673,0,1,1,0-.672.674.674,0,0,1,0,.672Z" transform="translate(-502.333 -167.45)"/><path class="a" d="M20.245,5.179,15.14.355A.982.982,0,0,0,14.993.24a.989.989,0,0,0-.871-.215l-6.8,1.617a1.538,1.538,0,0,0-.907.679L.157,13.248a.979.979,0,0,0,.353,1.33l9.1,5.292a.96.96,0,0,0,1.053-.056h9.064a.972.972,0,0,0,.967-.973V6.223a1.547,1.547,0,0,0-.449-1.045Zm-2.92,2.278-1.4-4.644,3.464,3.273a.386.386,0,0,1,.06.14v12.34H11.477l5.72-9.98a1.551,1.551,0,0,0,.129-1.13Zm-1.205.509L9.994,18.653,1.368,13.634,7.492,2.947a.4.4,0,0,1,.122-.092L14.179,1.3l1.958,6.518a.407.407,0,0,1-.017.152Z" transform="translate(-0.028 0)"/></g><path class="b" d="M-2325.064,15234l1.24-2.008h.4a.809.809,0,0,0,.553-.223.909.909,0,0,0,.3-.523l.241-1.379h-3.011l3.692-3.854.935-5.3h-2.477l.408-2.312h2.476l.246-1.4h2.989l-.247,1.4h2.592l-.209,1.186.065-.367.227-1.285,12.025-.795-.391,2.219-9.116.584-.495,2.8h9.013l-.39,2.219h-1.823l-1.181,6.7h5.1a.566.566,0,0,0,.366-.15.567.567,0,0,0,.211-.34l.465-2.638-2.84.606.414-2.334,2.843-.632.906-5.137h-2.545l.408-2.312h2.544l.285-1.611h2.894l-.283,1.611h2.638l-.408,2.312h-2.638l-.792,4.483,3.011-.653-.417,2.357-3.01.655-.762,4.318a2.093,2.093,0,0,1-.72,1.239,2,2,0,0,1-1.34.513h-9.584l1.586-8.99h-4.344l-1.181,6.7-1.384,2.289h-2.872l1.384-2.289,1.437-8.146-3.182,3.338-.806,4.576a2.8,2.8,0,0,1-.387,1,3.552,3.552,0,0,1-.706.818,3.261,3.261,0,0,1-.913.548,2.758,2.758,0,0,1-1.017.2Zm6.984-11.277h2.592l.354-2.009h-2.592Zm-16.825,11.254,1.177-2.312h2.383a.832.832,0,0,0,.552-.21.885.885,0,0,0,.3-.536l1.746-9.9h-6.982l.407-2.312h6.982l.28-1.587h2.872l-.28,1.587h1.1l-.407,2.313h-1.1l-1.832,10.39a2.893,2.893,0,0,1-.376,1.006,3.241,3.241,0,0,1-.692.816,3.205,3.205,0,0,1-.914.55,2.756,2.756,0,0,1-1.015.2Zm-14.379,0h-2.988l-2.525-6.328h2.986l.614,1.541.831-1.213h2.9l-1.835,2.987h-1.168l.266.677h3.073l2.549-14.452h8.523l-2.515,14.266a2.742,2.742,0,0,1-.37.97,3.229,3.229,0,0,1-.662.782,3.206,3.206,0,0,1-.863.524,2.538,2.538,0,0,1-.815.192h0c-.059,0-.117.007-.177.007h-.711Zm4.75-2.334h2.708a.738.738,0,0,0,.474-.176.707.707,0,0,0,.264-.432l.766-4.344h-3.339Zm1.279-7.264h3.339l.882-5h-3.339Zm-13.688,9.526a2.232,2.232,0,0,1-.956-.2,2.127,2.127,0,0,1-.708-.539,1.924,1.924,0,0,1-.4-.8,2.4,2.4,0,0,1-.021-1l2.512-14.244h10.833l-1.26,7.146a2.8,2.8,0,0,1-.374.991,3.347,3.347,0,0,1-.688.807,3.273,3.273,0,0,1-.911.548,2.808,2.808,0,0,1-1.038.2h-5.563l-.812,4.6a.637.637,0,0,0,.114.539.584.584,0,0,0,.474.21h1.835l.458,1.75Zm1.784-9.151h4.693a.833.833,0,0,0,.552-.213.882.882,0,0,0,.3-.522l.179-1.017h-5.418Zm.671-3.807h5.417l.3-1.729h-5.417Zm-14.512,12.912,2.943-16.694h9.282l-3.281,7.237h2.005l-4.28,8.268h-3.148l3.389-6.395h-2.146l3.194-6.863h-2.284l-2.546,14.447Zm76.511-.094h-2.9l.4-2.285,2.109-11.958.053-.307.354-2h11.3l-.009.047-.4,2.242-2.207,12.515a2.039,2.039,0,0,1-.734,1.249,2.021,2.021,0,0,1-1.326.5Zm.408-2.312h5.02a.575.575,0,0,0,.363-.14.554.554,0,0,0,.214-.348l2.018-11.444h-5.511Zm-42-2.427-1.706-5.559h3.247l1.7,5.559Zm-10.5-11.839,0-.023,0,.023Z" transform="translate(2915.998 -14436.498)"/></g></svg>