<svg xmlns="http://www.w3.org/2000/svg" xmlns:xlink="http://www.w3.org/1999/xlink" width="27" height="27" viewBox="0 0 27 27"><defs><style>.a,.c,.k{fill:#fff;}.a,.f{stroke:#979797;}.a,.c,.e,.f,.g,.h{stroke-miterlimit:10;}.a,.f,.g,.h{stroke-width:0.5px;}.b{opacity:0;}.d{clip-path:url(#a);}.e,.f,.g,.h,.j,.o{fill:none;}.e,.f,.g{opacity:0.2;}.f{stroke-linecap:square;}.g,.h{stroke:#888;}.i{fill:#333;}.j{stroke:#333;stroke-width:1.4px;}.l,.m,.n{stroke:none;}.m{fill:#979797;}.n{fill:#888;}</style><clipPath id="a"><path class="a" d="M17.55,0c2.747,0,4.1,0,5.55.45A5.806,5.806,0,0,1,26.55,3.9C27,5.348,27,6.7,27,9.45v8.1c0,2.747,0,4.1-.45,5.55a5.806,5.806,0,0,1-3.45,3.45c-1.448.45-2.8.45-5.55.45H9.45c-2.747,0-4.1,0-5.55-.45A5.806,5.806,0,0,1,.45,23.1C0,21.652,0,20.3,0,17.55V9.45C0,6.7,0,5.348.45,3.9A5.806,5.806,0,0,1,3.9.45C5.348,0,6.7,0,9.45,0Z"/></clipPath></defs><g transform="translate(-225 -736)"><g class="b" transform="translate(225 736)"><g class="c"><path class="l" d="M 17.54999923706055 26.75 L 9.449999809265137 26.75 C 6.747824192047119 26.75 5.389630794525146 26.75003242492676 3.980520009994507 26.31322860717773 C 2.451884984970093 25.74810409545898 1.251888155937195 24.5480785369873 0.6867541670799255 23.01943206787109 C 0.2500294744968414 21.61018562316895 0.25 20.25187110900879 0.25 17.54999923706055 L 0.25 9.449999809265137 C 0.25 6.747824192047119 0.2499665468931198 5.389631271362305 0.6867713332176208 3.980520963668823 C 1.25190532207489 2.451885938644409 2.451885938644409 1.25190532207489 3.980520963668823 0.6867713332176208 C 5.389631271362305 0.2499665468931198 6.747824192047119 0.25 9.449999809265137 0.25 L 17.54999923706055 0.25 C 20.25187110900879 0.25 21.61018562316895 0.2500294744968414 23.01943206787109 0.6867541670799255 C 24.5480785369873 1.251888155937195 25.74810409545898 2.451884984970093 26.31322860717773 3.980520009994507 C 26.75003242492676 5.389630794525146 26.75 6.747824192047119 26.75 9.449999809265137 L 26.75 17.54999923706055 C 26.75 20.25187110900879 26.74996948242188 21.61018753051758 26.31324577331543 23.01943397521973 C 25.74812126159668 24.5480785369873 24.5480785369873 25.74812126159668 23.01943397521973 26.31324577331543 C 21.61018753051758 26.74996948242188 20.25187110900879 26.75 17.54999923706055 26.75 Z"/><path class="m" d="M 9.450000762939453 0.5 C 6.777156829833984 0.5 5.431598663330078 0.4999885559082031 4.06080436706543 0.9236240386962891 C 2.605962753295898 1.463590621948242 1.463590621948242 2.605962753295898 0.9236240386962891 4.06080436706543 C 0.4999885559082031 5.431598663330078 0.5 6.777156829833984 0.5 9.450000762939453 L 0.5 17.54999923706055 C 0.5 20.22270202636719 0.4999866485595703 21.56818389892578 0.9236316680908203 22.93921661376953 C 1.463598251342773 24.39404678344727 2.606014251708984 25.53641891479492 4.06086540222168 26.07639503479004 C 5.431659698486328 26.50003051757812 6.777156829833984 26.5 9.450000762939453 26.5 L 17.54999923706055 26.5 C 20.22270202636719 26.5 21.56812286376953 26.50003242492676 22.93915557861328 26.07638549804688 C 24.39399719238281 25.53641128540039 25.53641128540039 24.39399719238281 26.07638549804688 22.93915557861328 C 26.50003242492676 21.56812286376953 26.5 20.22270202636719 26.5 17.54999923706055 L 26.5 9.450000762939453 C 26.5 6.777156829833984 26.50003051757812 5.431659698486328 26.07639503479004 4.06086540222168 C 25.53641891479492 2.606014251708984 24.39404678344727 1.463598251342773 22.93921661376953 0.9236316680908203 C 21.56818389892578 0.4999866485595703 20.22270202636719 0.5 17.54999923706055 0.5 L 9.450000762939453 0.5 M 9.450000762939453 0 L 17.54999923706055 0 C 20.29724884033203 0 21.65220069885254 0 23.10000038146973 0.4500007629394531 C 24.70431900024414 1.041070938110352 25.95891952514648 2.295669555664062 26.54999923706055 3.899999618530273 C 27 5.347579956054688 27 6.702970504760742 27 9.450000762939453 L 27 17.54999923706055 C 27 20.29724884033203 27 21.65220069885254 26.54999923706055 23.10000038146973 C 25.95891952514648 24.70431900024414 24.70431900024414 25.95891952514648 23.10000038146973 26.54999923706055 C 21.65220069885254 27 20.29724884033203 27 17.54999923706055 27 L 9.450000762939453 27 C 6.702749252319336 27 5.347579956054688 27 3.899999618530273 26.54999923706055 C 2.295669555664062 25.95891952514648 1.041070938110352 24.70431900024414 0.4500007629394531 23.10000038146973 C 0 21.65220069885254 0 20.29724884033203 0 17.54999923706055 L 0 9.450000762939453 C 0 6.702970504760742 0 5.347579956054688 0.4500007629394531 3.899999618530273 C 1.041070938110352 2.295669555664062 2.295669555664062 1.041070938110352 3.899999618530273 0.4500007629394531 C 5.347579956054688 0 6.702749252319336 0 9.450000762939453 0 Z"/></g><g class="d"><g class="e" transform="translate(6.802 6.802)"><path class="l" d="M6.76,13.4A6.7,6.7,0,1,0,0,6.76,6.673,6.673,0,0,0,6.76,13.4Z"/><path class="n" d="M 6.759923458099365 12.89694309234619 C 8.385873794555664 12.89694309234619 9.92335319519043 12.25491333007812 11.08913326263428 11.08913326263428 C 12.25491333007812 9.92335319519043 12.89694309234619 8.385873794555664 12.89694309234619 6.759923458099365 C 12.89694309234619 3.308193445205688 10.14388370513916 0.500003457069397 6.759923458099365 0.500003457069397 C 5.074533462524414 0.500003457069397 3.498863458633423 1.147483468055725 2.323173522949219 2.323173522949219 C 1.147483468055725 3.498863458633423 0.500003457069397 5.074533462524414 0.500003457069397 6.759923458099365 C 0.500003457069397 10.14388370513916 3.308193445205688 12.89694309234619 6.759923458099365 12.89694309234619 M 6.759923458099365 13.39694309234619 C 2.999013423919678 13.39694309234619 3.453521685514716e-06 10.39793300628662 3.453521685514716e-06 6.759923458099365 C 3.453521685514716e-06 2.999013423919678 2.999013423919678 3.453521685514716e-06 6.759923458099365 3.453521685514716e-06 C 10.39793300628662 3.453521685514716e-06 13.39694309234619 2.999013423919678 13.39694309234619 6.759923458099365 C 13.39694309234619 10.39793300628662 10.39793300628662 13.39694309234619 6.759923458099365 13.39694309234619 Z"/></g><path class="f" d="M0,.206H27" transform="translate(0.103 6.492)"/><path class="f" d="M0,.206H27" transform="translate(0.103 20.095)"/><path class="f" d="M.206,0V27" transform="translate(6.492 -0.103)"/><path class="f" d="M.206,0V27" transform="translate(20.095 -0.103)"/><g class="e" transform="translate(2.267 2.267)"><path class="l" d="M11.336,22.466A11.233,11.233,0,1,0,0,11.336,11.189,11.189,0,0,0,11.336,22.466Z"/><path class="n" d="M 11.33587455749512 21.96564483642578 C 14.15287399291992 21.96564483642578 16.81610488891602 20.85381507873535 18.8349552154541 18.8349552154541 C 20.85381507873535 16.81610488891602 21.96564483642578 14.15287399291992 21.96564483642578 11.33587455749512 C 21.96564483642578 5.360954284667969 17.1971549987793 0.5000043511390686 11.33587455749512 0.5000043511390686 C 8.419194221496582 0.5000043511390686 5.691924095153809 1.620984315872192 3.65645432472229 3.65645432472229 C 1.620984315872192 5.691924095153809 0.5000043511390686 8.419194221496582 0.5000043511390686 11.33587455749512 C 0.5000043511390686 17.1971549987793 5.360954284667969 21.96564483642578 11.33587455749512 21.96564483642578 M 11.33587455749512 22.46564483642578 C 5.029104232788086 22.46564483642578 4.325561349105556e-06 17.43654441833496 4.325561349105556e-06 11.33587455749512 C 4.325561349105556e-06 5.029104232788086 5.029104232788086 4.325561349105556e-06 11.33587455749512 4.325561349105556e-06 C 17.43654441833496 4.325561349105556e-06 22.46564483642578 5.029104232788086 22.46564483642578 11.33587455749512 C 22.46564483642578 17.43654441833496 17.43654441833496 22.46564483642578 11.33587455749512 22.46564483642578 Z"/></g><g class="g" transform="translate(4.328 4.328)"><rect class="l" width="18.55" height="18.55"/><rect class="o" x="0.25" y="0.25" width="18.05" height="18.05"/></g><path class="f" d="M0,.206H27" transform="translate(0.103 13.294)"/><path class="f" d="M.206,0V27" transform="translate(13.294 -0.103)"/><path class="f" d="M0,0,26.773,26.567" transform="translate(0.103 0.309)"/><path class="f" d="M0,0-26.773,26.567" transform="translate(26.897 0.309)"/><g class="h" transform="translate(8.45 7.008)"><rect class="l" width="9.893" height="12.985"/><rect class="o" x="0.25" y="0.25" width="9.393" height="12.485"/></g></g></g><g transform="translate(224.624 739.006)"><path class="i" d="M433.188,905.275a1.323,1.323,0,1,1-1.327,1.323A1.329,1.329,0,0,1,433.188,905.275Zm6.637,0A1.323,1.323,0,1,1,438.5,906.6,1.329,1.329,0,0,1,439.826,905.275Z" transform="translate(-421.34 -885.781)"/><path class="j" d="M.588.693H4.551l2.97,17.119H20.848L23.9,3.785H10.567" transform="translate(0.822)"/><path class="i" d="M5.6,3.071h19.22l-.335,1.51L21.632,17.863H8.316Z"/></g><rect class="k" width="11" height="1.4" transform="translate(234.3 752.5)"/></g></svg>