<svg xmlns="http://www.w3.org/2000/svg" xmlns:xlink="http://www.w3.org/1999/xlink" width="170" height="170" viewBox="0 0 170 170"><defs><style>.a,.b{fill:#c5aa7b;}.a{opacity:0.1;}.b{opacity:0.2;}.c{fill:url(#a);}.d,.e{fill:none;stroke:#fff;}.d{stroke-width:3px;}.e{stroke-linejoin:round;stroke-width:2.5px;}.f{filter:url(#b);}</style><linearGradient id="a" x1="0.5" x2="0.5" y2="1" gradientUnits="objectBoundingBox"><stop offset="0" stop-color="#e6ce9d"/><stop offset="1" stop-color="#c5aa7b"/></linearGradient><filter id="b" x="39.719" y="42.001" width="96.283" height="99.999" filterUnits="userSpaceOnUse"><feOffset dy="5" input="SourceAlpha"/><feGaussianBlur stdDeviation="5" result="c"/><feFlood flood-color="#c5aa7b" flood-opacity="0.502"/><feComposite operator="in" in2="c"/><feComposite in="SourceGraphic"/></filter></defs><g transform="translate(-875 -391)"><circle class="a" cx="85" cy="85" r="85" transform="translate(875 391)"/><circle class="b" cx="65" cy="65" r="65" transform="translate(895 411)"/><g transform="translate(-176.281 43.051)"><g class="f" transform="matrix(1, 0, 0, 1, 1051.28, 347.95)"><path class="c" d="M-16862.436,11580.448a15.5,15.5,0,0,1,15.5-15.5,15.5,15.5,0,0,1,15.5,15.5,15.5,15.5,0,0,1-15.5,15.5A15.5,15.5,0,0,1-16862.436,11580.448Zm-.455,8.5h.006Zm-31.826,0a3,3,0,0,1-3-3v-57a3,3,0,0,1,3-3h55a3.006,3.006,0,0,1,3,3v37.148a17.522,17.522,0,0,0-10.633-3.549,17.793,17.793,0,0,0-17.773,17.772,17.814,17.814,0,0,0,2.23,8.626Z" transform="translate(16952.44 -11473.95)"/></g><line class="d" x2="45" transform="translate(1113.5 411.447)"/><line class="d" x2="45" transform="translate(1113.5 425.447)"/><line class="d" x2="24" transform="translate(1113.5 439.64)"/><path class="e" d="M0,7.935,7.936,0l5.538,5.308" transform="translate(1163.973 458.073) rotate(180)"/></g></g></svg>