<svg xmlns="http://www.w3.org/2000/svg" xmlns:xlink="http://www.w3.org/1999/xlink" width="75.622" height="19.873" viewBox="0 0 75.622 19.873"><defs><style>.a{stroke:rgba(0,0,0,0);stroke-miterlimit:10;fill:url(#a);}</style><linearGradient id="a" x1="0.024" y1="0.398" x2="0.983" y2="0.36" gradientUnits="objectBoundingBox"><stop offset="0" stop-color="#c5aa7b"/><stop offset="1" stop-color="#ffebc4"/></linearGradient></defs><path class="a" d="M13944.659-11223.126l3.1-11.767h-2.182l4.743-7.079h3.441l-2.956,4.392h.955l-3.811,14.454Zm-25.452,0,2.336-9.257h21.27l-1.611,6.38a3.424,3.424,0,0,1-.508,1.127,4.013,4.013,0,0,1-.847.911,4.19,4.19,0,0,1-1.079.615,3.337,3.337,0,0,1-1.189.224Zm4.317-2.589h13.124a1.012,1.012,0,0,0,.641-.234,1.059,1.059,0,0,0,.385-.6l.821-3.245h-13.942Zm-20.838,2.562.646-2.562h.9l4.115-16.284h9.754a2.4,2.4,0,0,1,1.05.219,2.082,2.082,0,0,1,.764.614,2.057,2.057,0,0,1,.389.918,2.577,2.577,0,0,1-.052,1.1l-3.395,13.435h.923l-.645,2.562Zm4.838-2.562h6.058l.747-2.956h-6.062Zm1.343-5.308h6.061l.831-3.294h-6.061Zm1.422-5.646h6.062l.544-2.146a.632.632,0,0,0-.1-.571.622.622,0,0,0-.544-.233h-5.218Zm-15.68,11.057,8.083-.808-.619,2.454-8.074.759Zm65.651,2.384,3.132-11.9h3.11l-3.132,11.9Zm-10.3-.105,2.012-3.239,2.251-8.554h3.134l-2.253,8.554-2.032,3.239Zm-54.878-4.132,4.421-5.933h-2.923l6.44-8.6h3.795l-4.42,5.906h2.931l-4.738,6.323h2.956l-.582,2.3Zm27.639-6.328.644-2.562h-1.765l4.375-5.645h17.161l1.526,5.645h-1.634l-.645,2.562Zm2.738-2.588h15.389l-.935-3.4h-11.81Zm39.223.577-.164-3.976h-4.931l.011-.053-2.825,3.9h-3.724l4.322-6.066h10.332l.7,6.2Z" transform="translate(-13893.34 11242.499)"/></svg>