<svg xmlns="http://www.w3.org/2000/svg" xmlns:xlink="http://www.w3.org/1999/xlink" width="148" height="131" viewBox="0 0 148 131"><defs><style>.a{fill:#fff;stroke:#707070;}.b{clip-path:url(#a);}.c{opacity:0.38;}.d,.e{fill:#ccc;}.e{font-size:34px;font-family:MicrosoftYaHei, Microsoft YaHei;}</style><clipPath id="a"><rect class="a" width="148" height="131" transform="translate(632 150)"/></clipPath></defs><g class="b" transform="translate(-632 -150)"><g class="c" transform="matrix(0.998, -0.07, 0.07, 0.998, -24.189, -62.053)"><g transform="translate(-271 -271.498)"><path class="d" d="M71.307,5.12a66.187,66.187,0,1,0,66.187,66.187A66.2,66.2,0,0,0,71.307,5.12Zm0,128.176a62.009,62.009,0,1,1,62.029-61.989A62.03,62.03,0,0,1,71.307,133.3Zm0,0" transform="translate(926.88 514.378)"/><path class="d" d="M163.239,150.577A48.428,48.428,0,0,0,145.616,173.2c0,1.03,1.524,1.524,2.019,0s6.044-14.575,16.1-20.618c.99-.976.99-1.511-.495-2.006Zm44.419-5.763a48.258,48.258,0,0,0-28.668-1.658c-.856.575-.4,2.1,1.163,1.658,1.524-.441,15.43-3.3,26.114,1.564,1.431.267,1.832,0,1.391-1.564Zm-36.276,88.464s12.836,6.351,30.232,2.9c.9-.588.495-2.193-1.123-1.792-1.658.4-16.5,2.861-27.6-2.688-1.417-.348-1.912-.04-1.511,1.578Zm46.371-4.921s12.208-7.515,18.519-24.055c0-1.07-1.6-1.6-2.153,0s-6.311,15.47-16.955,21.956c-1.016,1.016-1.016,1.551.588,2.1Zm0,0-48.47-77.78.989,4.025,2.554-3.53,4.025.535-2.019-3.53,2.019-4.025-4.025,1.524-3.53-3.035v4.025l-4.038,2.5m42.106,85.83.989,4.025,2.554-3.53,4.025.535-2.019-3.53,2.019-4.025-4.025,1.524-3.53-3.035v4.025l-4.025,2.5" transform="translate(808.515 395.57)"/></g><text class="e" transform="matrix(0.899, -0.438, 0.438, 0.899, 687.268, 345.311)"><tspan x="0" y="0">已使用</tspan></text></g></g></svg>