<svg xmlns="http://www.w3.org/2000/svg" width="350" height="110.001" viewBox="0 0 350 110.001"><defs><style>.a{fill:#f3f4f5;}.b,.c{fill:none;}.c{stroke:#e8e9eb;stroke-dasharray:2;}.d,.e{stroke:none;}.e{fill:#e8e9eb;}</style></defs><g transform="translate(-5495 3362)"><path class="a" d="M350,129H280a20,20,0,1,0-40,0H0V19H240.025c-.016.326-.025.662-.025,1a20,20,0,0,0,40,0c0-.331-.008-.668-.025-1H350V129Z" transform="translate(5495 -3381)"/><g class="b" transform="translate(5500 -3386)"><path class="d" d="M340,129H279.5a25.006,25.006,0,0,0-49,0H0V29H230.319a25,25,0,0,0,49.364,0H340V129Z"/><path class="e" d="M 339.0002746582031 128.0007019042969 L 339.0002746582031 29.99980545043945 L 280.5207824707031 29.99980545043945 C 278.1531372070312 42.21995544433594 267.5537414550781 51.00044250488281 255.0005950927734 51.00044250488281 C 242.4473876953125 51.00044250488281 231.8480529785156 42.21995544433594 229.4803924560547 29.99980545043945 L 1.000001430511475 29.99980545043945 L 1.000046014785767 127.9997177124023 L 229.6965179443359 127.9997177124023 C 232.4457702636719 116.3620147705078 242.9576721191406 107.9999389648438 255.0005950927734 107.9999389648438 C 267.04345703125 107.9999389648438 277.555419921875 116.3620300292969 280.3047485351562 127.9997253417969 L 339.0002746582031 128.0007019042969 M 340.0002746582031 129.0007171630859 L 279.5006408691406 128.9997100830078 C 277.1479187011719 117.4107131958008 266.8446044921875 108.9999389648438 255.0005950927734 108.9999389648438 C 243.1569061279297 108.9999389648438 232.8531799316406 117.4110336303711 230.5006408691406 128.9997100830078 L 4.642000931198709e-05 128.9997100830078 L 9.654652330937097e-07 28.99980545043945 L 230.3186340332031 28.99980545043945 C 232.2749176025391 41.16875839233398 242.6547241210938 50.00044250488281 255.0005950927734 50.00044250488281 C 267.3460388183594 50.00044250488281 277.726318359375 41.16839599609375 279.6825561523438 28.99980545043945 L 340.0002746582031 28.99980545043945 L 340.0002746582031 129.0007171630859 Z"/></g><path class="c" d="M5753.686-3334.094v54.933" transform="translate(2)"/></g></svg>