<svg xmlns="http://www.w3.org/2000/svg" width="90" height="90" viewBox="0 0 90 90"><defs><style>.a{fill:rgba(243,244,245,0);}.b,.c,.f,.h{fill:none;}.b,.c,.e,.f{stroke:currentColor;}.b{stroke-linejoin:round;}.b,.c,.d,.e{stroke-width:3px;}.d,.e{fill:#fff;}.d{stroke:#fff;}.f{stroke-width:2.5px;}.g{stroke:none;}</style></defs><g transform="translate(-668 -370)"><rect class="a" width="90" height="90" transform="translate(668 370)"/><g transform="translate(-0.5 2)"><g class="b" transform="translate(681.176 380.18)"><rect class="g" width="65.31" height="55.641"/><rect class="h" x="-1.5" y="-1.5" width="68.31" height="58.641"/></g><line class="c" x2="29" transform="translate(686.271 414)"/><line class="c" x2="67.949" transform="translate(678.536 397.104)"/><g transform="translate(-57.691 -10.947)"><path class="d" d="M16.68,0A16.759,16.759,0,0,1,32.917,12.844a16.189,16.189,0,0,1,.443,3.836A16.68,16.68,0,1,1,16.68,0Z" transform="translate(779.692 424.947)"/><g class="e" transform="translate(781 426.255)"><circle class="g" cx="15.5" cy="15.5" r="15.5"/><circle class="h" cx="15.5" cy="15.5" r="14"/></g></g><path class="f" d="M0,7.935,7.936,0l5.538,5.308" transform="translate(745.973 434.435) rotate(180)"/></g></g></svg>