<svg xmlns="http://www.w3.org/2000/svg" width="90" height="90" viewBox="0 0 90 90"><defs><style>.a{fill:rgba(243,244,245,0);}.b,.d,.f,.h{fill:none;}.b,.d,.e,.f{stroke:currentColor;}.b{stroke-linejoin:round;}.b,.c,.d,.e{stroke-width:3px;}.c,.e{fill:#fff;}.c{stroke:#fff;}.f{stroke-width:2.5px;}.g{stroke:none;}</style></defs><g transform="translate(-420 -370)"><rect class="a" width="90" height="90" transform="translate(420 370)"/><g transform="translate(-2 -2)"><g class="b" transform="translate(435 381)"><rect class="g" width="61" height="63"/><rect class="h" x="-1.5" y="-1.5" width="64" height="66"/></g><path class="c" d="M16.68,0A16.759,16.759,0,0,1,32.917,12.844a16.189,16.189,0,0,1,.443,3.836A16.68,16.68,0,1,1,16.68,0Z" transform="translate(468.692 418.692)"/><line class="d" x2="45" transform="translate(442.5 392.5)"/><line class="d" x2="45" transform="translate(442.5 406.5)"/><line class="d" x2="24" transform="translate(442.5 420.692)"/><g class="e" transform="translate(470 420)"><circle class="g" cx="15.5" cy="15.5" r="15.5"/><circle class="h" cx="15.5" cy="15.5" r="14"/></g><path class="f" d="M485.371,428.082v9.346h9.555" transform="translate(0 -2.056)"/></g></g></svg>