<svg xmlns="http://www.w3.org/2000/svg" width="78.195" height="65.162" viewBox="0 0 78.195 65.162"><defs><style>.a{fill:#fff;}.b{fill:none;stroke:#333;stroke-width:2px;}.c,.d{stroke:none;}.d{fill:#333;}</style></defs><g transform="translate(-148.403 -163.838)"><g class="a" transform="translate(148.403 163.838)"><path class="c" d="M 1.000001192092896 63.271484375 L 1.000001192092896 0.9999991059303284 L 77.194580078125 0.9999991059303284 L 77.194580078125 51.12968826293945 L 19.14137840270996 51.12968826293945 L 18.83326721191406 51.12968826293945 L 18.57859039306641 51.3030891418457 L 1.000001192092896 63.271484375 Z"/><path class="d" d="M 1.999992370605469 1.999996185302734 L 1.999992370605469 61.38086318969727 L 18.52517318725586 50.12969207763672 L 76.19458770751953 50.12969207763672 L 76.19458770751953 1.999996185302734 L 1.999992370605469 1.999996185302734 M -7.62939453125e-06 -7.62939453125e-06 L 78.19458770751953 -7.62939453125e-06 L 78.19458770751953 52.12969207763672 L 19.14138412475586 52.12969207763672 L -7.62939453125e-06 65.16211700439453 L -7.62939453125e-06 -7.62939453125e-06 Z"/></g><path class="b" d="M-1104.626,18568.506l9.23,9.639,13.359-13.361" transform="translate(1299.511 -18376.281)"/><line class="b" x2="40.835" transform="translate(160.132 178.174)"/><line class="b" x2="23.024" transform="translate(160.132 189.467)"/><line class="b" x2="23.024" transform="translate(160.132 200.764)"/></g></svg>