<svg xmlns="http://www.w3.org/2000/svg" xmlns:xlink="http://www.w3.org/1999/xlink" width="51.001" height="42.469" viewBox="0 0 51.001 42.469"><defs><style>.a{fill:url(#a);}</style><linearGradient id="a" x1="0.5" x2="0.5" y2="1" gradientUnits="objectBoundingBox"><stop offset="0" stop-color="#ffebc4"/><stop offset="1" stop-color="#c5aa7b"/></linearGradient></defs><path class="a" d="M8734.213-18990.531a3.979,3.979,0,0,1-2.382-.816c-.251-.187-.26-.287-.062-.523.142-.168.287-.336.434-.5.169-.2.258-.205.466-.051a2.584,2.584,0,0,0,1.723.578,1.767,1.767,0,0,0,.573-.135.664.664,0,0,0,.094-1.182,11.931,11.931,0,0,0-1.1-.512c-.32-.143-.656-.262-.965-.424a1.9,1.9,0,0,1-1.112-2,1.874,1.874,0,0,1,1.268-1.6,3.178,3.178,0,0,1,3.283.449c.235.176.236.277.05.51-.115.145-.238.283-.35.426a.291.291,0,0,1-.453.064,2.1,2.1,0,0,0-1.4-.41,1.552,1.552,0,0,0-.545.146.59.59,0,0,0-.073,1.045,6.642,6.642,0,0,0,.886.422c.425.189.863.354,1.278.559a1.832,1.832,0,0,1,1.09,1.738,2,2,0,0,1-1.077,1.814,3.1,3.1,0,0,1-1.58.395Zm-4.655-.049h-3.007c-.342,0-.4-.061-.4-.4v-6.539c0-.307.07-.381.375-.381q1.85-.006,3.7,0c.3,0,.385.084.389.381,0,.176,0,.35,0,.527-.006.295-.089.379-.384.379h-2.206c-.356,0-.369.016-.369.379,0,.314.006.627,0,.938,0,.2.075.27.274.27.6-.01,1.206,0,1.812,0,.344,0,.407.059.416.389,0,.191,0,.383,0,.576,0,.262-.076.336-.348.336-.367,0-.738,0-1.107,0h-.728c-.288,0-.317.031-.317.314,0,.41,0,.824,0,1.232,0,.271.031.3.309.3h2.341c.326,0,.4.064.4.381.006.2,0,.4,0,.6-.006.234-.083.314-.317.32-.112,0-.225.006-.339.006Zm-5.818,0a.394.394,0,0,1-.382-.238c-.392-.752-.8-1.49-1.19-2.24a.408.408,0,0,0-.426-.264c-.633.01-.633,0-.633.631,0,.568,0,1.143,0,1.715,0,.311-.081.387-.395.395-.238,0-.474,0-.713,0-.348,0-.416-.07-.416-.414v-3.246h0c0-1.08,0-2.164,0-3.242,0-.348.067-.422.414-.418.872,0,1.743-.012,2.614.033a2.2,2.2,0,0,1,1.9.975,2.337,2.337,0,0,1-.792,3.207c-.225.113-.169.25-.078.412.416.734.83,1.473,1.245,2.209.187.328.1.477-.28.48-.109,0-.219,0-.329,0-.174,0-.349,0-.521.006Zm-2.624-5.883c-.016.283-.007.564-.007.844s.007.551,0,.822c-.007.174.063.262.24.252.357-.016.717,0,1.075-.047a.943.943,0,0,0,.895-.758c.122-.553-.006-1.135-.66-1.236a10.97,10.97,0,0,0-1.411-.068h0C8721.2-18996.652,8721.117-18996.527,8721.115-18996.461Zm17.331,5.881c-.309,0-.384-.074-.384-.377,0-1.1,0-2.191,0-3.293h0c0-1.07,0-2.148,0-3.221,0-.379.054-.43.44-.432.238,0,.476-.006.712,0,.28,0,.357.082.357.357q0,1.093,0,2.191c0,.277.026.307.3.307l.766,0c.427,0,.852,0,1.278,0,.2,0,.267-.088.265-.277-.006-.719,0-1.434,0-2.148,0-.377.063-.432.446-.434q.309,0,.62,0c.384,0,.449.07.449.457,0,.84,0,1.678,0,2.516q0,1.954,0,3.906c0,.373-.071.439-.442.439-.229,0-.457.006-.688,0-.308-.008-.382-.076-.382-.379q0-1.222,0-2.445c0-.281-.014-.293-.3-.295-.681,0-1.361,0-2.043,0-.2,0-.267.068-.265.268.009.818,0,1.643,0,2.467,0,.313-.067.385-.393.389h-.733Zm-21.164,0h-3.2c-.345,0-.405-.061-.405-.4,0-1.092,0-2.178,0-3.268s0-2.148,0-3.223c0-.381.057-.434.44-.436,1.186,0,2.37,0,3.556,0,.391,0,.456.064.457.447,0,.15,0,.3,0,.457,0,.311-.08.383-.4.383h-2.2c-.324,0-.334.012-.335.338s.008.654,0,.98c-.008.2.067.271.265.268.6-.01,1.2,0,1.79,0,.377,0,.437.063.437.436,0,.172,0,.352,0,.529,0,.256-.078.336-.344.336H8715.5c-.295,0-.307.018-.308.314,0,.428.008.857,0,1.279,0,.191.07.256.256.256.781-.01,1.56,0,2.34,0,.39,0,.445.051.447.449,0,.178,0,.352,0,.529,0,.23-.081.314-.316.32-.131,0-.257,0-.387,0Zm35.853,0c-.3,0-.392-.092-.392-.4,0-.551,0-1.1,0-1.648v-4.84c0-.357.071-.434.433-.43h.66c.62,0,1.242,0,1.86.037a2.337,2.337,0,0,1,1.9.939,2.412,2.412,0,0,1-1.124,3.555,5.008,5.008,0,0,1-1.852.221c-.353,0-.361.01-.361.359,0,.607,0,1.217,0,1.826,0,.307-.07.375-.377.379-.138,0-.277,0-.415,0C8753.36-18990.58,8753.248-18990.58,8753.135-18990.584Zm1.133-5.838c0,.289,0,.578,0,.869,0,.313,0,.623,0,.936,0,.162.068.244.233.242.1,0,.191,0,.288,0a5.629,5.629,0,0,0,.6-.021,1.113,1.113,0,0,0,1.079-1.426.787.787,0,0,0-.688-.746c-.415-.068-.849-.061-1.273-.094l-.034,0C8754.319-18996.668,8754.266-18996.576,8754.268-18996.422Zm-46.119,5.066a3.191,3.191,0,0,1-1.049-1.9c-.027-.154-.048-.307-.065-.465a4.381,4.381,0,0,1,.087-1.574,3.5,3.5,0,0,1,.946-1.689,3.135,3.135,0,0,1,4.138-.232c.249.205.257.287.058.523-.1.125-.21.246-.311.363-.219.266-.274.271-.547.072a1.713,1.713,0,0,0-1.936-.1,1.985,1.985,0,0,0-.858,1.373,3.777,3.777,0,0,0,.1,1.873,1.736,1.736,0,0,0,2.826.813c.269-.227.319-.221.557.045.116.133.227.27.347.4a.261.261,0,0,1-.016.418,2.777,2.777,0,0,1-1.488.795,4.5,4.5,0,0,1-.7.059A3.076,3.076,0,0,1,8708.148-18991.355Zm39.854.762a2.921,2.921,0,0,1-2.1-.973,3.344,3.344,0,0,1-.764-1.484,4.842,4.842,0,0,1,.1-2.766,3.012,3.012,0,0,1,3.2-2.068,2.929,2.929,0,0,1,2.65,1.8,3.731,3.731,0,0,1,.347,1.721,4,4,0,0,1-.791,2.664,2.934,2.934,0,0,1-2.43,1.113C8748.142-18990.588,8748.073-18990.59,8748-18990.594Zm.175-6.021a1.508,1.508,0,0,0-1.441,1.08,3.627,3.627,0,0,0,.026,2.611,1.465,1.465,0,0,0,1.323,1.041,1.478,1.478,0,0,0,1.522-.914,3.4,3.4,0,0,0,.3-1.42,3.953,3.953,0,0,0-.26-1.4,1.439,1.439,0,0,0-1.419-.994Zm1.727,2.4a.01.01,0,0,1-.006,0Zm0,0Zm-18.229-10.545a13.315,13.315,0,0,1-6.983-2.424,12.173,12.173,0,0,1-3.792-4.48,14.437,14.437,0,0,1-1.33-4.158,17.839,17.839,0,0,1-.174-4.482,15.354,15.354,0,0,1,.551-2.975,12.943,12.943,0,0,1,3.975-6.264,13.774,13.774,0,0,1,5.173-2.809,15.126,15.126,0,0,1,5.437-.607,11.518,11.518,0,0,1,6.335,2.391.7.7,0,0,1,.163,1.1c-1,1.365-1.991,2.721-2.983,4.084-.183.248-.385.475-.728.424a1.176,1.176,0,0,1-.459-.18,4.589,4.589,0,0,0-2.014-.885,10.573,10.573,0,0,0-1.759-.031,7.7,7.7,0,0,0-2.234.457,3.25,3.25,0,0,0-2.145,2.512c-.144.648-.207,1.316-.306,1.979l.057,0a2.315,2.315,0,0,1,.643-1.115,1.247,1.247,0,0,1,1.841.023,2.352,2.352,0,0,1,.673,1.395,2.977,2.977,0,0,1-.437,2.188,1.46,1.46,0,0,1-.949.664,1.417,1.417,0,0,1-.5-.016,1.491,1.491,0,0,0-1.6.574,1.054,1.054,0,0,0,.135,1.547,4.45,4.45,0,0,0,.627.371,1.6,1.6,0,0,0,.2.088l0,.08c-.107.025-.214.057-.323.076a2.88,2.88,0,0,0-2.052,1.156,2.882,2.882,0,0,0-.27.648c-.049.135.012.2.157.2.306-.008.611,0,.917,0,.118,0,.263,0,.242.16-.007.053-.156.121-.247.129-.189.01-.383.01-.573.006-.084,0-.167,0-.249,0-.264,0-.283.025-.206.279a2.134,2.134,0,0,0,1.037,1.2,3.252,3.252,0,0,0,1.731.461c.946-.018,1.895-.059,2.834-.158a14.231,14.231,0,0,0,5.2-1.666c.181-.1.356-.205.539-.3a.668.668,0,0,1,.981.262c.351.574.686,1.154,1.023,1.734.494.846.985,1.7,1.485,2.549a.739.739,0,0,1-.208,1.145,12.558,12.558,0,0,1-3.753,1.973,14.424,14.424,0,0,1-4.59.736C8732.41-19004.723,8732.043-19004.736,8731.674-19004.762Zm-1.433-15.393a.329.329,0,0,0-.31.33.275.275,0,0,0,.307.293.287.287,0,0,0,.324-.3.334.334,0,0,0-.316-.322Z" transform="translate(-8707 19033)"/></svg>