<svg xmlns="http://www.w3.org/2000/svg" width="54" height="54" viewBox="0 0 54 54"><defs><style>.a,.b{fill:#fff;}.a{stroke:#f8f1df;}.b{opacity:0;}.c{fill:#f8f1df;}.c,.d{stroke:#c5aa7b;}.d,.f{fill:none;}.e{stroke:none;}</style></defs><g transform="translate(-1452 -158)"><g class="a" transform="translate(1452 158)"><circle class="e" cx="27" cy="27" r="27"/><circle class="f" cx="27" cy="27" r="26.5"/></g><g transform="translate(1332 -372)"><rect class="b" width="50" height="50" transform="translate(122 532)"/><g transform="translate(134.851 541.683)"><path class="c" d="M-5465.84,14103.727a26.377,26.377,0,0,1-5.379,2.925,41.6,41.6,0,0,1-6.769,1.859v16.562a24.036,24.036,0,0,0,4.958,5.256,36.989,36.989,0,0,0,7.19,4.031,37.118,37.118,0,0,0,7.156-4.031,24.752,24.752,0,0,0,4.994-5.256v-16.562a41.265,41.265,0,0,1-7.35-1.859A15.481,15.481,0,0,1-5465.84,14103.727Z" transform="translate(5477.988 -14103.727)"/><path class="d" d="M-5527.128,14107.594l6.128,6.217,8.293-8.291" transform="translate(5532.068 -14094.173)"/></g></g></g></svg>