<svg xmlns="http://www.w3.org/2000/svg" xmlns:xlink="http://www.w3.org/1999/xlink" width="54" height="54" viewBox="0 0 54 54"><defs><style>.a,.b,.d{fill:#fff;}.b{opacity:0;}.c{fill:#f8f1df;}.c,.d{stroke:#c5aa7b;}.e,.f{stroke:none;}.f{fill:#f8f1df;}.g{fill:none;}.h{filter:url(#a);}</style><filter id="a" x="6.857" y="10.339" width="40.323" height="33.907" filterUnits="userSpaceOnUse"><feOffset dy="2" input="SourceAlpha"/><feGaussianBlur stdDeviation="3" result="b"/><feFlood flood-color="#c5aa7b" flood-opacity="0.302"/><feComposite operator="in" in2="b"/><feComposite in="SourceGraphic"/></filter></defs><g transform="translate(-1333 -158)"><g class="a" transform="translate(1333 158)"><path class="e" d="M 27 53.5 C 23.42230033874512 53.5 19.95189094543457 52.79941177368164 16.68515968322754 51.41770172119141 C 13.52962017059326 50.0830192565918 10.69554042816162 48.17221069335938 8.261670112609863 45.73833084106445 C 5.827789783477783 43.30445861816406 3.916980028152466 40.47037887573242 2.582299947738647 37.31483840942383 C 1.200590014457703 34.04811096191406 0.5 30.57769966125488 0.5 27 C 0.5 23.42230033874512 1.200590014457703 19.95189094543457 2.582299947738647 16.68515968322754 C 3.916980028152466 13.52962017059326 5.827789783477783 10.69554042816162 8.261670112609863 8.261670112609863 C 10.69554042816162 5.827789783477783 13.52962017059326 3.916980028152466 16.68515968322754 2.582299947738647 C 19.95189094543457 1.200590014457703 23.42230033874512 0.5 27 0.5 C 30.57769966125488 0.5 34.04811096191406 1.200590014457703 37.31483840942383 2.582299947738647 C 40.47037887573242 3.916980028152466 43.30445861816406 5.827789783477783 45.73833084106445 8.261670112609863 C 48.17221069335938 10.69554042816162 50.0830192565918 13.52962017059326 51.41770172119141 16.68515968322754 C 52.79941177368164 19.95189094543457 53.5 23.42230033874512 53.5 27 C 53.5 30.57769966125488 52.79941177368164 34.04811096191406 51.41770172119141 37.31483840942383 C 50.0830192565918 40.47037887573242 48.17221069335938 43.30445861816406 45.73833084106445 45.73833084106445 C 43.30445861816406 48.17221069335938 40.47037887573242 50.0830192565918 37.31483840942383 51.41770172119141 C 34.04811096191406 52.79941177368164 30.57769966125488 53.5 27 53.5 Z"/><path class="f" d="M 27 1 C 23.48958015441895 1 20.08470153808594 1.687301635742188 16.87992858886719 3.042800903320312 C 13.78398895263672 4.352268218994141 11.00334167480469 6.22711181640625 8.615219116210938 8.615219116210938 C 6.22711181640625 11.00334167480469 4.352268218994141 13.78398895263672 3.042800903320312 16.87992858886719 C 1.687301635742188 20.08470153808594 1 23.48958015441895 1 27 C 1 30.51041984558105 1.687301635742188 33.91529846191406 3.042800903320312 37.12007141113281 C 4.352268218994141 40.21601104736328 6.22711181640625 42.99665832519531 8.615219116210938 45.38478088378906 C 11.00334167480469 47.77288818359375 13.78398895263672 49.64772796630859 16.87992858886719 50.95719909667969 C 20.08470153808594 52.31269836425781 23.48958015441895 53 27 53 C 30.51041984558105 53 33.91529846191406 52.31269836425781 37.12007141113281 50.95719909667969 C 40.21601104736328 49.64772796630859 42.99665832519531 47.77288818359375 45.38478088378906 45.38478088378906 C 47.77288818359375 42.99665832519531 49.64772796630859 40.21601104736328 50.95719909667969 37.12007141113281 C 52.31269836425781 33.91529846191406 53 30.51041984558105 53 27 C 53 23.48958015441895 52.31269836425781 20.08470153808594 50.95719909667969 16.87992858886719 C 49.64772796630859 13.78398895263672 47.77288818359375 11.00334167480469 45.38478088378906 8.615219116210938 C 42.99665832519531 6.22711181640625 40.21601104736328 4.352268218994141 37.12007141113281 3.042800903320312 C 33.91529846191406 1.687301635742188 30.51041984558105 1 27 1 M 27 0 C 41.91168975830078 0 54 12.08831024169922 54 27 C 54 41.91168975830078 41.91168975830078 54 27 54 C 12.08831024169922 54 0 41.91168975830078 0 27 C 0 12.08831024169922 12.08831024169922 0 27 0 Z"/></g><g transform="translate(1213 -249)"><rect class="b" width="50" height="50" transform="translate(122 409)"/><g transform="translate(132.401 421.034)"><path class="c" d="M0,0H29.239V25.206H0Z" transform="translate(0)"/><g class="h" transform="matrix(1, 0, 0, 1, -12.4, -14.03)"><g class="d" transform="matrix(1, -0.09, 0.09, 1, 15.86, 19.18)"><rect class="e" width="21.173" height="14.115"/><rect class="g" x="0.5" y="0.5" width="20.173" height="13.115"/></g></g><path class="c" d="M29.24,16.707H0V0H11.335a3.765,3.765,0,0,0-.243,1.336,3.53,3.53,0,1,0,7.055,0A3.747,3.747,0,0,0,17.9,0H29.24V16.706Z" transform="translate(0 8.497)"/></g></g></g></svg>