<svg xmlns="http://www.w3.org/2000/svg" xmlns:xlink="http://www.w3.org/1999/xlink" width="250" height="251" viewBox="0 0 250 251"><defs><style>.a{fill:url(#a);}.b{opacity:0.645;fill:url(#b);}.c{fill:url(#c);}.d,.e{fill:url(#d);}.e{stroke:#f8f8f8;stroke-width:2px;}.f{fill:url(#f);}.g{fill:url(#h);}.h{fill:url(#l);}.i{fill:url(#m);}.j{fill:url(#n);}.k{fill:url(#o);}.l{fill:url(#p);}.m{fill:url(#q);}.n{fill:url(#r);}.o{opacity:0.281;}.p,.q,.r,.s,.u{fill-rule:evenodd;}.p{fill:url(#s);}.q{fill:url(#t);}.r{fill:url(#u);}.s{fill:url(#w);}.t{fill:url(#y);}.u{fill:url(#aa);}</style><linearGradient id="a" x1="0.5" y1="0.309" x2="0.5" y2="1" gradientUnits="objectBoundingBox"><stop offset="0" stop-color="#fff"/><stop offset="1" stop-color="#f8f8f8"/></linearGradient><linearGradient id="b" x1="0.338" y1="0.533" x2="0.045" y2="-0.048" gradientUnits="objectBoundingBox"><stop offset="0" stop-color="#eee" stop-opacity="0"/><stop offset="1" stop-color="#d8d8d8"/></linearGradient><linearGradient id="c" y1="0.5" x2="1" y2="0.5" gradientUnits="objectBoundingBox"><stop offset="0" stop-color="#f2f2f2"/><stop offset="1" stop-color="#dadada"/></linearGradient><linearGradient id="d" x1="0.255" y1="0.245" x2="0.683" y2="0.571" gradientUnits="objectBoundingBox"><stop offset="0" stop-color="#f2f2f2"/><stop offset="1" stop-color="#dfdfdf"/></linearGradient><linearGradient id="f" x1="1" y1="0.5" x2="0" y2="0.5" gradientUnits="objectBoundingBox"><stop offset="0" stop-color="#f0f0f0"/><stop offset="1" stop-color="#dfdfdf"/></linearGradient><linearGradient id="h" x1="0.255" y1="0.245" x2="0.683" y2="0.571" gradientUnits="objectBoundingBox"><stop offset="0" stop-color="#ededed"/><stop offset="1" stop-color="#d6d6d6"/></linearGradient><linearGradient id="l" x1="0.5" y1="1" x2="0.5" gradientUnits="objectBoundingBox"><stop offset="0" stop-color="#e3e3e3"/><stop offset="1" stop-color="#d1d1d1"/></linearGradient><linearGradient id="m" x1="0.5" y1="1" x2="0.5" y2="0.205" gradientUnits="objectBoundingBox"><stop offset="0" stop-color="#ededed"/><stop offset="1" stop-color="#f0f0f0"/></linearGradient><linearGradient id="n" x1="0.5" y1="1" x2="0.5" gradientUnits="objectBoundingBox"><stop offset="0" stop-color="#fafafa"/><stop offset="1" stop-color="#dbdbdb"/></linearGradient><linearGradient id="o" y1="0.5" x2="1" y2="0.5" gradientUnits="objectBoundingBox"><stop offset="0" stop-color="#e4e5e6"/><stop offset="1" stop-color="#d1d1d1"/></linearGradient><linearGradient id="p" x1="0.5" y1="1" x2="0.5" gradientUnits="objectBoundingBox"><stop offset="0" stop-color="#ededed"/><stop offset="1" stop-color="#c9c9c9"/></linearGradient><linearGradient id="q" x1="0.5" y1="1" x2="0.5" gradientUnits="objectBoundingBox"><stop offset="0" stop-color="#e6e6e6"/><stop offset="1" stop-color="#d9d9d9"/></linearGradient><linearGradient id="r" x1="0.667" y1="0.285" x2="0.295" y2="0.678" gradientUnits="objectBoundingBox"><stop offset="0" stop-color="#ebebeb"/><stop offset="1" stop-color="#f2f2f2"/></linearGradient><linearGradient id="s" x1="0.5" y1="1" x2="0.5" gradientUnits="objectBoundingBox"><stop offset="0" stop-color="#f8f8f8"/><stop offset="1" stop-color="#dbdbdb"/></linearGradient><linearGradient id="t" x1="0.44" y1="0.386" x2="0.588" y2="1" gradientUnits="objectBoundingBox"><stop offset="0" stop-color="#f9f9f9"/><stop offset="1" stop-color="#ebebeb"/></linearGradient><linearGradient id="u" x1="0.255" y1="0.245" x2="0.683" y2="0.571" gradientUnits="objectBoundingBox"><stop offset="0" stop-color="#dfdfdf"/><stop offset="1" stop-color="#f2f2f2"/></linearGradient><linearGradient id="w" x1="0.439" y1="0.386" x2="0.589" xlink:href="#t"/><radialGradient id="y" cx="0.359" cy="0.347" r="1.257" gradientUnits="objectBoundingBox"><stop offset="0" stop-color="#fff"/><stop offset="1" stop-color="#eee"/></radialGradient><linearGradient id="aa" x1="0.442" y1="0.386" x2="0.585" xlink:href="#t"/></defs><g transform="translate(-835 -459)"><circle class="a" cx="125" cy="125" r="125" transform="translate(835 460)"/><g transform="translate(645.295 333.915)"><path class="b" d="M333.744,518.1l44.069,31.747L306.719,567.3,273.18,517.19Z" transform="translate(0 -207.514)"/><path class="c" d="M283.79,495.09l-10.61,1.757,33.729,8.585,26.835-7.706-7.911-1.146Z" transform="translate(0 -193.505)"/><path class="d" d="M309.463,236.84s-29.848,28.4-2.336,64.792c25.55,33.8,69.39,9.119,70.99,5.843C357.28,287.574,309.463,236.84,309.463,236.84Z" transform="translate(-14.134 -29.8)"/><path class="e" d="M377.264,255.493c19.264,19.264,29.3,40.458,22.413,47.344s-28.08-3.148-47.344-22.413-29.3-40.458-22.413-47.344S358,236.233,377.264,255.493Z" transform="translate(-34.591 -26.04)"/><path class="f" d="M391.568,306.938q2.592,2.592,5.224,4.957l29.754-35.762-1.757-1.893-35.505,30.351Q390.4,305.772,391.568,306.938Z" transform="translate(-73.26 -53.508)"/><circle class="d" cx="3.861" cy="3.861" r="3.861" transform="translate(350.333 215.656)"/><g transform="translate(347.24 201.582)"><path class="g" d="M497.484,246.408a2.646,2.646,0,0,1-2.574-2.339c-1.988-17.035-15.409-16.837-16.02-16.819-1.457.037-3.683-.677-3.386-3.471.154-1.45.857-1.8,2.314-1.845a23.149,23.149,0,0,1,10.229,2.453c4.8,2.413,10.024,7.6,12.751,18.115C500.8,245.866,498.831,246.408,497.484,246.408Z" transform="translate(-475.477 -221.931)"/></g><g transform="translate(347.264 200.641)"><path class="d" d="M498.187,243.454a2.651,2.651,0,0,1-2.621-2.288c-2.328-16.994-16.643-16.533-17.251-16.507a2.647,2.647,0,0,1-.278-5.286,23.138,23.138,0,0,1,10.276,2.248c4.844,2.317,10.943,7.461,12.5,18.825a2.651,2.651,0,0,1-2.263,2.984A2.411,2.411,0,0,1,498.187,243.454Z" transform="translate(-475.541 -219.361)"/></g><g transform="translate(347.199 190.43)"><path class="g" d="M507.349,226.941a3.128,3.128,0,0,1-2.775-3.211c-.6-11.3-5.4-19.242-14.293-23.606a30.909,30.909,0,0,0-12.176-3.361s-3.218.154-2.68-3.419c.582-.948,1.153-1.856,2.618-1.874a35.726,35.726,0,0,1,14.571,3.9c7.384,3.624,18.2,11.6,18.2,28.259A3.081,3.081,0,0,1,507.349,226.941Z" transform="translate(-475.364 -191.47)"/></g><g transform="translate(347.26 189.83)"><path class="d" d="M508.321,224.734a2.651,2.651,0,0,1-2.643-2.526c-.513-11.305-5.264-19.279-14.12-23.709a33.185,33.185,0,0,0-13.37-3.372h-.011a2.649,2.649,0,0,1-.011-5.3,38.373,38.373,0,0,1,15.764,3.928c7.355,3.679,16.284,11.558,17.042,28.2a2.648,2.648,0,0,1-2.526,2.764A.731.731,0,0,1,508.321,224.734Z" transform="translate(-475.53 -189.83)"/></g><path class="h" d="M374.058,458.11v6.513l-10.408,1.622v8.043l19.531-4.056V459.443A45.821,45.821,0,0,1,374.058,458.11Z" transform="translate(-57.349 -170.063)"/><path class="i" d="M339.673,426.492v6.678l-15.244,2.658.07-2.321s1.08-27.036-11.085-27.036S299.49,426.884,299.49,430.8v10.679l23.083,5.678h1.519l21.157-5.88V426.763A50.222,50.222,0,0,1,339.673,426.492Z" transform="translate(-16.678 -137.328)"/><path class="j" d="M295.33,441.484V430.8c0-3.921,1.757-24.335,13.923-24.335s11.085,27.036,11.085,27.036l-.406,13.656Z" transform="translate(-14.041 -137.328)"/><path class="k" d="M332.375,440.836a3.479,3.479,0,0,0-3.178-3.716H328.11l-.121.278a3.986,3.986,0,0,0,0,6.879l.073.271,1.095,0c.011,0,.022,0,.033,0h.081v0A3.5,3.5,0,0,0,332.375,440.836Z" transform="translate(-33.495 -156.758)"/><ellipse class="l" cx="3.178" cy="3.716" rx="3.178" ry="3.716" transform="translate(291.562 280.362)"/><path class="m" d="M273.18,506.224V499.89l33.729,8.585v7.351Z" transform="translate(0 -196.548)"/><path class="n" d="M392.145,508.653V502.29L365.31,510v7.351Z" transform="translate(-58.401 -198.069)"/></g><g class="o" transform="translate(855 517)"><path class="p" d="M21,30.638,42,20V59.362L21,70Z"/><path class="q" d="M0-30.638,21-20V-59.362L0-70Z" transform="translate(21) rotate(180)"/><path class="r" d="M13.154-13.647,33.045-2.54,29.754-25.873,8.955-36.945Z" transform="matrix(-0.574, 0.819, -0.819, -0.574, 16.873, -8.783)"/></g><g class="o" transform="translate(926 464)"><path class="p" d="M27,38.617,54,25V75.383L27,89Z"/><path class="s" d="M0-38.617,27-25V-75.383L0-89Z" transform="translate(27) rotate(180)"/><path class="r" d="M16.913-17.546,42.487-3.266l-4.231-30L11.513-47.5Z" transform="matrix(-0.574, 0.819, -0.819, -0.574, 21.694, -11.293)"/></g><circle class="t" cx="17" cy="17" r="17" transform="translate(935 459)"/><g class="o" transform="translate(1028 541)"><path class="p" d="M19,27.787,38,18V54.213L19,64Z"/><path class="u" d="M0-27.787,19-18V-54.213L0-64Z" transform="translate(19) rotate(180)"/><path class="r" d="M11.824-12.481,29.9-2.487,27-23.655,8.1-33.614Z" transform="matrix(-0.574, 0.819, -0.819, -0.574, 15.112, -7.867)"/></g></g></svg>