<svg xmlns="http://www.w3.org/2000/svg" xmlns:xlink="http://www.w3.org/1999/xlink" width="250" height="251" viewBox="0 0 250 251"><defs><style>.a{fill:url(#a);}.b{opacity:0.281;}.c,.d,.e,.f,.h{fill-rule:evenodd;}.c{fill:url(#b);}.d{fill:url(#c);}.e{fill:url(#d);}.f{fill:url(#f);}.g{fill:url(#h);}.h{fill:url(#j);}.i{fill:url(#l);}.j{fill:url(#m);}.k{fill:url(#n);}.l{fill:url(#o);}.m{fill:url(#p);}.n,.q{fill:#fff;}.o{fill:none;stroke:#ccc;stroke-width:7px;}.p,.q{opacity:0.4;}.p{fill:url(#q);}.r{fill:url(#r);}.s{fill:url(#s);}</style><linearGradient id="a" x1="0.5" y1="0.309" x2="0.5" y2="1" gradientUnits="objectBoundingBox"><stop offset="0" stop-color="#fff"/><stop offset="1" stop-color="#f8f8f8"/></linearGradient><linearGradient id="b" x1="0.5" y1="1" x2="0.5" gradientUnits="objectBoundingBox"><stop offset="0" stop-color="#f8f8f8"/><stop offset="1" stop-color="#dbdbdb"/></linearGradient><linearGradient id="c" x1="0.44" y1="0.386" x2="0.588" y2="1" gradientUnits="objectBoundingBox"><stop offset="0" stop-color="#f9f9f9"/><stop offset="1" stop-color="#ebebeb"/></linearGradient><linearGradient id="d" x1="0.255" y1="0.245" x2="0.683" y2="0.571" gradientUnits="objectBoundingBox"><stop offset="0" stop-color="#dfdfdf"/><stop offset="1" stop-color="#f2f2f2"/></linearGradient><linearGradient id="f" x1="0.439" y1="0.386" x2="0.589" xlink:href="#c"/><radialGradient id="h" cx="0.359" cy="0.347" r="1.257" gradientUnits="objectBoundingBox"><stop offset="0" stop-color="#fff"/><stop offset="1" stop-color="#eee"/></radialGradient><linearGradient id="j" x1="0.442" y1="0.386" x2="0.585" xlink:href="#c"/><linearGradient id="l" x1="0.5" y1="1.001" x2="0.5" y2="0.001" gradientUnits="objectBoundingBox"><stop offset="0" stop-color="#e5e5e5"/><stop offset="0.989" stop-color="#fff" stop-opacity="0"/><stop offset="1" stop-color="#fff" stop-opacity="0"/></linearGradient><linearGradient id="m" x1="0.5" x2="0.5" y2="1" gradientUnits="objectBoundingBox"><stop offset="0" stop-color="#ececec"/><stop offset="1" stop-color="#ccc"/></linearGradient><linearGradient id="n" x1="0.255" y1="0.245" x2="0.683" y2="0.571" gradientUnits="objectBoundingBox"><stop offset="0" stop-color="#e9e9e9"/><stop offset="1" stop-color="#bcbcbc"/></linearGradient><linearGradient id="o" x1="0.5" y1="1" x2="0.5" gradientUnits="objectBoundingBox"><stop offset="0" stop-color="#dcdcdc"/><stop offset="1" stop-color="#e8e8e8"/></linearGradient><linearGradient id="p" x1="0.528" x2="0.532" y2="1.033" gradientUnits="objectBoundingBox"><stop offset="0" stop-color="#f2f2f2"/><stop offset="1" stop-color="#dfdfdf"/></linearGradient><linearGradient id="q" y1="0.5" x2="1" y2="0.5" gradientUnits="objectBoundingBox"><stop offset="0" stop-color="#fafafa"/><stop offset="1" stop-color="#999"/></linearGradient><linearGradient id="r" x1="0.512" y1="-0.409" x2="0.497" y2="0.688" gradientUnits="objectBoundingBox"><stop offset="0" stop-color="#f2f2f2"/><stop offset="1" stop-color="#e0e0e0"/></linearGradient><linearGradient id="s" x1="0.489" y1="-1.356" x2="0.501" y2="0.583" gradientUnits="objectBoundingBox"><stop offset="0" stop-color="#f4f4f4"/><stop offset="1" stop-color="#dbdbdb"/></linearGradient></defs><g transform="translate(-835 -459)"><circle class="a" cx="125" cy="125" r="125" transform="translate(835 460)"/><g class="b" transform="translate(855 517)"><path class="c" d="M21,30.638,42,20V59.362L21,70Z"/><path class="d" d="M0-30.638,21-20V-59.362L0-70Z" transform="translate(21) rotate(180)"/><path class="e" d="M13.154-13.647,33.045-2.54,29.754-25.873,8.955-36.945Z" transform="matrix(-0.574, 0.819, -0.819, -0.574, 16.873, -8.783)"/></g><g class="b" transform="translate(926 464)"><path class="c" d="M27,38.617,54,25V75.383L27,89Z"/><path class="f" d="M0-38.617,27-25V-75.383L0-89Z" transform="translate(27) rotate(180)"/><path class="e" d="M16.913-17.546,42.487-3.266l-4.231-30L11.513-47.5Z" transform="matrix(-0.574, 0.819, -0.819, -0.574, 21.694, -11.293)"/></g><circle class="g" cx="17" cy="17" r="17" transform="translate(935 459)"/><g class="b" transform="translate(1028 541)"><path class="c" d="M19,27.787,38,18V54.213L19,64Z"/><path class="h" d="M0-27.787,19-18V-54.213L0-64Z" transform="translate(19) rotate(180)"/><path class="e" d="M11.824-12.481,29.9-2.487,27-23.655,8.1-33.614Z" transform="matrix(-0.574, 0.819, -0.819, -0.574, 15.112, -7.867)"/></g><g transform="translate(-314.487 8.481)"><g transform="translate(1197.1 536.764)"><path class="i" d="M182.9,776.472,156.8,730.1l35.225.76,41.629,32.805Z" transform="translate(-156.8 -669.912)"/><g transform="translate(25.459)"><path class="j" d="M270.018,604.013h-40.35a3.374,3.374,0,0,1-3.368-3.368V563.268a3.374,3.374,0,0,1,3.368-3.368h40.35Z" transform="translate(-226.3 -495.324)"/><path class="k" d="M276.918,604.013h-40.35a3.374,3.374,0,0,1-3.368-3.368V563.268a3.374,3.374,0,0,1,3.368-3.368h40.35Z" transform="translate(-232.014 -495.324)"/><path class="l" d="M338.992,207.9H258.636a3.441,3.441,0,0,0-3.368,3.5V313.089a3.441,3.441,0,0,1-3.368,3.5h87.092a3.441,3.441,0,0,0,3.368-3.5V211.4A3.43,3.43,0,0,0,338.992,207.9Z" transform="translate(-248.393 -207.9)"/><path class="m" d="M345.892,207.9H265.536a3.441,3.441,0,0,0-3.368,3.5V313.089a3.441,3.441,0,0,1-3.368,3.5h87.092a3.441,3.441,0,0,0,3.368-3.5V211.4A3.43,3.43,0,0,0,345.892,207.9Z" transform="translate(-253.215 -207.9)"/><path class="n" d="M407.8,439.415H346.158a1.36,1.36,0,0,1-1.358-1.358h0a1.36,1.36,0,0,1,1.358-1.358H407.8a1.36,1.36,0,0,1,1.358,1.358h0A1.36,1.36,0,0,1,407.8,439.415Z" transform="translate(-324.436 -420.408)"/><path class="n" d="M397.282,529.615H346.158a1.36,1.36,0,0,1-1.358-1.358h0a1.36,1.36,0,0,1,1.358-1.358h51.125a1.36,1.36,0,0,1,1.358,1.358h0A1.349,1.349,0,0,1,397.282,529.615Z" transform="translate(-324.436 -493.833)"/><path class="n" d="M407.8,619.815H346.158a1.36,1.36,0,0,1-1.358-1.357h0a1.36,1.36,0,0,1,1.358-1.358H407.8a1.36,1.36,0,0,1,1.358,1.358h0A1.36,1.36,0,0,1,407.8,619.815Z" transform="translate(-324.436 -567.911)"/><path class="n" d="M392.4,710.115H346.031a1.3,1.3,0,0,1-1.231-1.358h0a1.3,1.3,0,0,1,1.231-1.358H392.4a1.3,1.3,0,0,1,1.231,1.358h0A1.292,1.292,0,0,1,392.4,710.115Z" transform="translate(-324.436 -642.071)"/></g></g><g transform="translate(1289.801 597.645)"><ellipse class="o" cx="20.647" cy="21.022" rx="20.647" ry="21.022" transform="translate(0 0)"/><circle class="p" cx="18.684" cy="18.684" r="18.684" transform="translate(1.963 2.338)"/><circle class="q" cx="18.684" cy="18.684" r="18.684" transform="translate(1.963 2.338)"/><path class="n" d="M9.336,15.5h0A1.732,1.732,0,0,1,7.6,13.774,7.022,7.022,0,0,1,9.471,9.106,6.176,6.176,0,0,1,13.957,7.42a1.74,1.74,0,0,1-.023,3.481,2.4,2.4,0,0,0-2.426,1.249,4.021,4.021,0,0,0-.425,1.624A1.747,1.747,0,0,1,9.336,15.5Z" transform="translate(-0.726 1.095)"/><path class="r" d="M0,0H9.727V19.967H0Z" transform="matrix(0.684, -0.73, 0.73, 0.684, 36.386, 44.976)"/><path class="s" d="M0,0H4.084V7.409H0Z" transform="matrix(0.684, -0.73, 0.73, 0.684, 34.233, 39.087)"/></g></g></g></svg>