<svg xmlns="http://www.w3.org/2000/svg" xmlns:xlink="http://www.w3.org/1999/xlink" width="15" height="15.126" viewBox="0 0 15 15.126"><defs><style>.a{fill:url(#a);}</style><linearGradient id="a" x1="0.5" x2="0.5" y2="1" gradientUnits="objectBoundingBox"><stop offset="0" stop-color="#ffebc4"/><stop offset="1" stop-color="#c5aa7b"/></linearGradient></defs><path class="a" d="M30.2,14.931s-4.918-2.593-4.983-2.593h-1.92A1.3,1.3,0,0,1,22,11.042V4.387a1.3,1.3,0,0,1,1.273-1.3h1.941L30.2.195A.587.587,0,0,1,30.649,0,.649.649,0,0,1,31.3.648V14.478a.636.636,0,0,1-.647.648A.62.62,0,0,1,30.2,14.931ZM23.1,4.408v6.677a.216.216,0,0,0,.216.216h1.92a1.219,1.219,0,0,1,.388.065c.173.086,4.184,2.031,4.616,2.312L30.218,1.513,25.882,3.976a1.151,1.151,0,0,1-.625.216H23.316A.216.216,0,0,0,23.1,4.408Zm11.367,7.325a.523.523,0,0,1,0-.756,4.878,4.878,0,0,0,.087-6.872L34.446,4a.524.524,0,0,1,0-.757.547.547,0,0,1,.777,0A5.936,5.936,0,0,1,35.33,11.6c0,.043-.043.065-.086.108a.541.541,0,0,1-.388.173A.62.62,0,0,1,34.467,11.733ZM32.418,10.2a.516.516,0,0,1-.022-.735l.022-.022a2.568,2.568,0,0,0,.129-3.63l-.129-.13a.516.516,0,0,1-.022-.735l.022-.022a.547.547,0,0,1,.776,0,3.619,3.619,0,0,1,.173,5.1,1.273,1.273,0,0,0-.173.173.52.52,0,0,1-.388.151A.62.62,0,0,1,32.418,10.2Z" transform="translate(-22)"/></svg>