<svg xmlns="http://www.w3.org/2000/svg" xmlns:xlink="http://www.w3.org/1999/xlink" width="250" height="251" viewBox="0 0 250 251"><defs><style>.a{fill:#d5cbbc;}.b{fill:url(#a);}.c{fill:url(#an);}.d{opacity:0.645;fill:url(#ao);}.e{opacity:0.198;}.f,.g,.h,.j,.l{fill-rule:evenodd;}.f{fill:url(#ap);}.g{fill:url(#aq);}.h{fill:url(#ar);}.i{opacity:0.281;}.j{fill:url(#at);}.k{fill:url(#av);}.l{fill:url(#ax);}.m{fill:#d9d9d9;}.n{fill:#fff;}.o{fill:#e0d3bc;}.p{fill:url(#ba);}.q{fill:url(#bb);}.r{fill:url(#bc);}.s{fill:#ffbe92;}.t{fill:#171c61;}.u{fill:url(#bd);}.v{fill:#f8b62d;}.w{fill:#e6e8e8;}.x{fill:url(#be);}.y{fill:url(#bf);}.z{fill:none;stroke:#fff;stroke-width:4px;}</style><linearGradient id="a" x1="0.5" y1="1" x2="0.5" gradientUnits="objectBoundingBox"><stop offset="0" stop-color="#f8f1ed"/><stop offset="1" stop-color="#e0d2bb"/></linearGradient><linearGradient id="an" x1="0.5" y1="0.309" x2="0.5" y2="1" gradientUnits="objectBoundingBox"><stop offset="0" stop-color="#fff"/><stop offset="1" stop-color="#f2ede4"/></linearGradient><linearGradient id="ao" x1="0.221" y1="0.084" x2="0.5" y2="0.589" gradientUnits="objectBoundingBox"><stop offset="0" stop-color="#eee" stop-opacity="0"/><stop offset="1" stop-color="#d8d8d8"/></linearGradient><linearGradient id="ap" x1="0.5" y1="1" x2="0.5" gradientUnits="objectBoundingBox"><stop offset="0" stop-color="#f8f8f8"/><stop offset="1" stop-color="#dbdbdb"/></linearGradient><linearGradient id="aq" x1="0.44" y1="0.386" x2="0.588" y2="1" gradientUnits="objectBoundingBox"><stop offset="0" stop-color="#f9f9f9"/><stop offset="1" stop-color="#ebebeb"/></linearGradient><linearGradient id="ar" x1="0.255" y1="0.245" x2="0.683" y2="0.571" gradientUnits="objectBoundingBox"><stop offset="0" stop-color="#dfdfdf"/><stop offset="1" stop-color="#f2f2f2"/></linearGradient><linearGradient id="at" x1="0.439" y1="0.386" x2="0.589" xlink:href="#aq"/><radialGradient id="av" cx="0.359" cy="0.347" r="1.257" gradientUnits="objectBoundingBox"><stop offset="0" stop-color="#fff"/><stop offset="1" stop-color="#eee"/></radialGradient><linearGradient id="ax" x1="0.442" y1="0.386" x2="0.585" xlink:href="#aq"/><linearGradient id="ba" x1="0.5" y1="1" x2="0.5" gradientUnits="objectBoundingBox"><stop offset="0" stop-color="#f5f2eb"/><stop offset="1" stop-color="#e0d3bc"/></linearGradient><linearGradient id="bb" y1="0.5" x2="1" y2="0.5" gradientUnits="objectBoundingBox"><stop offset="0" stop-color="#f7f0eb"/><stop offset="1" stop-color="#e3d6c2"/></linearGradient><linearGradient id="bc" x1="0.448" y1="1.166" x2="0" y2="0.347" gradientUnits="objectBoundingBox"><stop offset="0" stop-color="#ddd0c6" stop-opacity="0.514"/><stop offset="1" stop-color="#b7c1cb" stop-opacity="0"/></linearGradient><linearGradient id="bd" x1="0.499" y1="1" x2="0.499" gradientUnits="objectBoundingBox"><stop offset="0.341" stop-color="#f4ae7f"/><stop offset="1" stop-color="#ffbe92"/></linearGradient><linearGradient id="be" x1="0.96" y1="0.977" x2="0.116" y2="-0.005" gradientUnits="objectBoundingBox"><stop offset="0" stop-color="#78c8ff"/><stop offset="0.69" stop-color="#2a80e2"/></linearGradient><linearGradient id="bf" x1="0.5" y1="1" x2="0.5" gradientUnits="objectBoundingBox"><stop offset="0" stop-color="#f2a319"/><stop offset="0.48" stop-color="#ffc552"/></linearGradient></defs><g transform="translate(-835 -308)"><circle class="c" cx="125" cy="125" r="125" transform="translate(835 309)"/><path class="d" d="M206.474,813.549,164.7,771.1l55.731.658,65.843,30.57Z" transform="translate(705.8 -306.373)"/><g class="e" transform="translate(855 366)"><path class="f" d="M21,30.638,42,20V59.362L21,70Z"/><path class="g" d="M0-30.638,21-20V-59.362L0-70Z" transform="translate(21) rotate(180)"/><path class="h" d="M13.154-13.647,33.045-2.54,29.754-25.873,8.955-36.945Z" transform="matrix(-0.574, 0.819, -0.819, -0.574, 16.873, -8.783)"/></g><g class="i" transform="translate(926 313)"><path class="f" d="M27,38.617,54,25V75.383L27,89Z"/><path class="j" d="M0-38.617,27-25V-75.383L0-89Z" transform="translate(27) rotate(180)"/><path class="h" d="M16.913-17.546,42.487-3.266l-4.231-30L11.513-47.5Z" transform="matrix(-0.574, 0.819, -0.819, -0.574, 21.694, -11.293)"/></g><circle class="k" cx="17" cy="17" r="17" transform="translate(935 308)"/><g class="i" transform="translate(1028 390)"><path class="f" d="M19,27.787,38,18V54.213L19,64Z"/><path class="l" d="M0-27.787,19-18V-54.213L0-64Z" transform="translate(19) rotate(180)"/><path class="h" d="M11.824-12.481,29.9-2.487,27-23.655,8.1-33.614Z" transform="matrix(-0.574, 0.819, -0.819, -0.574, 15.112, -7.867)"/></g><g transform="translate(-400.629 9.286)"><path class="a" d="M87.3,105.751H4.066l-.094,0H3.964l-.087-.006-.025,0-.088-.008-.022,0-.07-.009-.03,0-.084-.012-.029,0-.059-.01-.038-.007-.065-.013-.054-.012-.038-.008a.434.434,0,0,1-.05-.012l-.015,0-.108-.028-.018,0A4.208,4.208,0,0,1,0,101.57V4.182A4.2,4.2,0,0,1,2.159.527l0,0C2.216.5,2.27.467,2.325.44A.255.255,0,0,1,2.348.429c.016-.008.031-.015.046-.023L2.44.384,2.5.359,2.539.34,2.575.324,2.646.295,2.678.283,2.732.262,2.761.251,2.838.225l.029-.01C2.887.207,2.908.2,2.929.194L2.953.187,3.035.162,3.06.155l.068-.02.021,0L3.235.109l.021,0L3.335.087l.014,0L3.438.067l.021,0L3.542.05l.012,0L3.645.035l.022,0L3.752.021h.008L3.854.013l.021,0,.093,0h0l.1,0h83.37l.094,0h0l.09,0,.023,0,.092.009h.012l.081.01.026,0,.088.013.017,0,.075.012.026,0,.085.017.02,0L88.241.1l.025.006c.028.006.056.014.084.021l.023.006.066.019.026.007.082.024.024.008.065.021.024.008.081.028.021.008.067.026.02.008.081.033.021.009.069.03.016.007c.027.012.053.024.08.038l.02.009.07.035.012.006L89.294.5l.021.012.069.038.009.006L89.47.6l.019.012.073.046,0,0,.074.049.02.013.068.048.01.007c.022.017.043.031.065.049l.021.015c.022.017.044.033.066.051L89.9.9l.055.045.023.02.058.049.025.022.042.036.029.027.04.036.046.045.025.025c.012.011.024.023.036.035l.011.012c.027.026.053.055.079.082l.006.006A4.171,4.171,0,0,1,91.5,4.088c0,.03,0,.062,0,.094V101.57c0,.022,0,.046,0,.068a4.2,4.2,0,0,1-3.707,4.084h0c-.042.006-.084.01-.127.014h-.012l-.054,0-.043,0-.06,0-.066,0H87.3Zm-83.112,0h0Z" transform="translate(1310.999 392.864)"/><path class="b" d="M4.185,105.751h0Zm0,0A4.2,4.2,0,0,1,.223,102.9h0A4.077,4.077,0,0,1,0,101.57v-1.532H91.5v1.532a4.09,4.09,0,0,1-.216,1.314h0a4.217,4.217,0,0,1-3.988,2.866ZM0,100.038V94.324H91.5v5.714Zm0-5.714V91.461H91.5v2.863Zm0-2.863V85.748H91.5v5.713Zm0-5.713V80.034H91.5v5.714Zm0-5.714V77.167H91.5v2.867Zm0-2.867v-5.71H91.5v5.71Zm0-5.71V65.743H91.5v5.714Zm0-5.714V62.876H91.5v2.867Zm0-2.867V57.163H91.5v5.713Zm0-5.713V51.45H91.5v5.713ZM0,51.45V48.586H91.5V51.45Zm0-2.864V42.872H91.5v5.714Zm0-5.714V37.159H91.5v5.713Zm0-5.713V34.295H91.5v2.864Zm0-2.864V28.581H91.5v5.714Zm0-5.714V22.868H91.5v5.713Zm0-5.713V17.154H91.5v5.714Zm0-5.714V14.29H91.5v2.864ZM0,14.29V8.577H91.5V14.29ZM0,8.577v-4.4A4.164,4.164,0,0,1,.217,2.863H91.285A4.162,4.162,0,0,1,91.5,4.182v4.4ZM.217,2.863A4.2,4.2,0,0,1,4.185,0H87.317a4.207,4.207,0,0,1,3.968,2.863Z" transform="translate(1312.762 392.864)"/><path class="m" d="M373.934,399.081s-26.127-.908-35.809-.925c-9.219,0-39.012,1.94-39.012,1.94-1.05-1.958-1.014-11.818-1.014-11.818V303.9h75.746v50.972C373.863,354.872,371.728,384.167,373.934,399.081Z" transform="translate(1022.297 93.804)"/><path class="n" d="M378.038,397.248s-27.746-.3-37.428-.3c-9.219,0-38.069,1.228-38.069,1.228-2.136-1.833-1.958-11.106-1.958-11.106V303.9h75.746v49.744S375.831,382.333,378.038,397.248Z" transform="translate(1020.258 93.804)"/><ellipse class="o" cx="6.194" cy="6.194" rx="6.194" ry="6.194" transform="translate(1329.224 410.928)"/><path class="o" d="M365.184,494.864H347.849a.243.243,0,0,1-.249-.249v-2.865a.243.243,0,0,1,.249-.249h17.335a.243.243,0,0,1,.249.249v2.865A.255.255,0,0,1,365.184,494.864Z" transform="translate(981.607 -60.409)"/><path class="o" d="M404.545,573.464h-56.6a.243.243,0,0,1-.249-.249v-2.865a.243.243,0,0,1,.249-.249h56.6a.243.243,0,0,1,.249.249v2.865A.284.284,0,0,1,404.545,573.464Z" transform="translate(981.524 -125.02)"/><path class="o" d="M387.46,651.964h-39.51a.243.243,0,0,1-.249-.249v-2.865a.243.243,0,0,1,.249-.249h39.528a.243.243,0,0,1,.249.249v2.865A.27.27,0,0,1,387.46,651.964Z" transform="translate(981.525 -189.548)"/><path class="o" d="M365.184,730.564H347.849a.243.243,0,0,1-.249-.249v-2.865a.243.243,0,0,1,.249-.249h17.335a.243.243,0,0,1,.249.249v2.865A.243.243,0,0,1,365.184,730.564Z" transform="translate(981.607 -254.16)"/><path class="p" d="M.373,21.536A.376.376,0,0,1,0,21.163V9.72a.377.377,0,0,1,.373-.376H9.02a7.333,7.333,0,1,1,14.1,0h8.626a.379.379,0,0,1,.376.376V21.163a.351.351,0,0,1-.356.373ZM19.962,9.344a4.378,4.378,0,1,0-7.781,0Z" transform="translate(1342.448 379.229)"/></g><circle class="q" cx="25.451" cy="25.451" r="25.451" transform="translate(968 464.783)"/><circle class="o" cx="19.813" cy="19.813" r="19.813" transform="translate(973.638 470.421)"/><g transform="translate(885.077 457.397)"><path class="r" d="M264.773,623.3,237.96,582.68l19-1.78,17.737,40.207-3.3.423-9.4-14.054,5.818,13.593Z" transform="translate(-253.665 -567.633)"/><path class="s" d="M226.176,500.927s-.647-.885-1.258-.854c-1.411.076-6.393-2.7-6.735-3.459s5.135-1.739,5.063-2.026c-.732-.562-.633-3.518-.633-3.518s-9.821,3.5-7.93,6.281c1.159,1.7,6.389,3.28,8.4,4.111a1.471,1.471,0,0,1,.979.809,2.577,2.577,0,0,0,2.538,1.357c.863-.189-.436-1.343-.674-1.469s-1.056-.885-.1-.943C226.2,501.25,226.364,501.138,226.176,500.927Z" transform="translate(-214.442 -479.811)"/><path class="t" d="M241.391,466.553a1.448,1.448,0,0,1,1.15-.539c.723.072.535.53,1.029.633s.809.067.674,1.015c-.076.526-.013.521.126.768.085.148.683.651.279,1.3-.4.633-.512.4-.409,1.006a1.242,1.242,0,0,1-.494,1.325.5.5,0,0,0-.2.7.524.524,0,0,1-.737.566,2.153,2.153,0,0,0-1.608-.085c-.472.207-2.431.328-2.013-.526.382-.782-.148-.939-.508-1.289a1.577,1.577,0,0,1-.458-1.545,1.092,1.092,0,0,0-.166-1.231c-.44-.535.314-1.981.813-1.927S240.052,465.394,241.391,466.553Z" transform="translate(-227.374 -466.008)"/><path class="u" d="M240.936,471.824c-.445.463-.4.355-.508.638-.687-.368-.719,1.586-.144,1.635a2.242,2.242,0,0,0,.858,1.563,13.758,13.758,0,0,1-.229,2.956h2.952l-.162-3.024s.665-.211.8-1.411c.548.063.858-2.08.108-1.559.022-.566-.84-.71-.952-1.361a.115.115,0,0,0-.153-.1,3.2,3.2,0,0,1-1.339.481C241.745,471.626,241.237,471.5,240.936,471.824Z" transform="translate(-228.452 -468.84)"/><path class="v" d="M255.331,576.213a.6.6,0,0,1-.189.341c-.2.189-.3.458-.809.4-.764-.1-.917-.337-1.078-.791-.323.674.117,1.366-.031,2.323s-.485,2.5.948,3.244,2.543-.89,2.489-2.165-1.155-2.75-1.051-3.293a1.386,1.386,0,0,0-.148-.687S255.376,575.966,255.331,576.213Z" transform="translate(-235.721 -526.353)"/><path class="w" d="M256.705,582.28s.409,1.851-.553,2.588a1.891,1.891,0,0,1-2.633-.377,2,2,0,0,0,1.357,1.253,1.849,1.849,0,0,0,1.842-.939A3.249,3.249,0,0,0,256.705,582.28Z" transform="translate(-235.963 -530.043)"/><path class="v" d="M238.385,576.479a.6.6,0,0,0,.189.341c.2.189.3.458.809.4.764-.1.917-.337,1.078-.791a8.187,8.187,0,0,1,.481,2.323c.144.957.934,2.5-.5,3.244s-2.718-1.033-2.664-2.309.431-2.606.328-3.145a1.386,1.386,0,0,1,.148-.687S238.34,576.232,238.385,576.479Z" transform="translate(-227.293 -526.502)"/><path class="w" d="M237.822,582.53s-.04,1.9.858,2.588a1.658,1.658,0,0,0,2.48-.243,1.648,1.648,0,0,1-1.2,1.119,1.849,1.849,0,0,1-1.842-.939A3.952,3.952,0,0,1,237.822,582.53Z" transform="translate(-227.269 -530.181)"/><path class="x" d="M235.834,520.77a18.777,18.777,0,0,0-.858,7.723c.265,4.151,1.334,14.228,1.658,17.764a1.109,1.109,0,0,0,1.105,1.006h.189a1.107,1.107,0,0,0,1.105-1.02l1.635-18.73,2.5,18.753c.067.571.508.8,1.083.8l.1-.022c.6,0,1.033-.243,1.074-.836.332-4.915,1.595-23.587-.323-25.438Z" transform="translate(-225.722 -496.167)"/><path class="s" d="M275.281,489.129c-.193-.818-.544-1.253-.912-1.24,0,0,0,0-.009,0a2.01,2.01,0,0,0-1,.341,1.082,1.082,0,0,1,.045-.117c.13-.256.526-1.492-.072-1.581-.18-.027-.247.216-.44.863-.225.746-.845,1.307-.975,1.986s-5.256,2.372-6.573,3.006c-.858-.171-4.816-3.671-4.816-3.671s-.422,1.1-1.051,3.271c2.278,1.882,5.045,3.4,6.2,3.226s5.481-3.064,5.953-3.387a2.127,2.127,0,0,1,.813-.364h0a8.9,8.9,0,0,0,2.206-.66A1.348,1.348,0,0,0,275.281,489.129Z" transform="translate(-239.246 -477.308)"/><path class="y" d="M243.341,489.317l-2.13,3.527s-.7-.436-1.4-.777c.04.5.049.7.1,1.662s1.5,9.556-.031,10.126-10.32.517-11.488.283-.7-7.341-.44-9.96a8.825,8.825,0,0,0,.072-2.224l-2.79.818-1.505-4.16s1.46-.961,3.59-2.08a7.038,7.038,0,0,1,4.852-1.626,1.351,1.351,0,0,0,1.37,1.074,1.3,1.3,0,0,0,1.37-1.119,28.435,28.435,0,0,1,3.945.589C240.95,485.979,241.849,487.911,243.341,489.317Z" transform="translate(-219.557 -476.391)"/></g><path class="z" d="M-5897.584,15898.6l9.039,9.039,16.672-16.672" transform="translate(6879 -15408)"/></g></svg>