<svg xmlns="http://www.w3.org/2000/svg" width="20" height="20" viewBox="0 0 20 20"><defs><style>.a{fill:none;stroke-linecap:round;}.b,.c{stroke:none;}.c{fill:#333;}</style></defs><g class="a"><path class="b" d="M9.568.739a.5.5,0,0,1,.863,0L13.394,5.81a.5.5,0,0,0,.309.232l5.539,1.405a.5.5,0,0,1,.266.8l-3.72,4.59a.5.5,0,0,0-.11.352l.442,5.987a.5.5,0,0,1-.7.5L10.2,17.4a.5.5,0,0,0-.4,0L4.578,19.671a.5.5,0,0,1-.7-.5l.442-5.987a.5.5,0,0,0-.11-.352L.492,8.247a.5.5,0,0,1,.266-.8L6.3,6.042a.5.5,0,0,0,.309-.232Z"/><path class="c" d="M 9.999993324279785 1.982292175292969 L 7.469141006469727 6.314008712768555 C 7.267650604248047 6.658908843994141 6.930030822753906 6.91304874420166 6.542800903320312 7.011299133300781 L 1.761224746704102 8.224226951599121 L 4.989010810852051 12.20689868927002 C 5.230381011962891 12.50473880767822 5.347781181335449 12.879319190979 5.31959056854248 13.26171875 L 4.938673973083496 18.42397880554199 L 9.40255069732666 16.48592948913574 C 9.592190742492676 16.40356826782227 9.793210983276367 16.36180877685547 10.00000095367432 16.36180877685547 C 10.20679092407227 16.36180877685547 10.40780067443848 16.40356826782227 10.59737110137939 16.48588943481445 L 15.06132888793945 18.42397499084473 L 14.68041038513184 13.26172924041748 C 14.65219116210938 12.87937927246094 14.7696008682251 12.50475883483887 15.01101112365723 12.20686912536621 L 18.2387752532959 8.224220275878906 L 13.45725059509277 7.011299133300781 C 13.0700511932373 6.91309928894043 12.73240089416504 6.658968925476074 12.53087043762207 6.314048767089844 L 9.999993324279785 1.982292175292969 M 10 0.4911384582519531 C 10.16760349273682 0.4911384582519531 10.33520603179932 0.5737285614013672 10.43171119689941 0.7389087677001953 L 13.39430046081543 5.809578895568848 C 13.46192073822021 5.925309181213379 13.57316112518311 6.009038925170898 13.70308113098145 6.041989326477051 L 19.24233055114746 7.447118759155273 C 19.59607124328613 7.536859512329102 19.73762130737305 7.963068962097168 19.50783157348633 8.246588706970215 L 15.78790092468262 12.83650970458984 C 15.70775032043457 12.93540954589844 15.66833114624023 13.0611686706543 15.67770099639893 13.18812942504883 L 16.11948013305664 19.17519950866699 C 16.14714050292969 19.5501594543457 15.76658821105957 19.82035827636719 15.42171096801758 19.67062950134277 L 10.19912052154541 17.40316963195801 C 10.07210063934326 17.34801864624023 9.927900314331055 17.34801864624023 9.800870895385742 17.40316963195801 L 4.578290939331055 19.67062950134277 C 4.233402252197266 19.82035827636719 3.852851867675781 19.5501594543457 3.880521774291992 19.17518997192383 L 4.322300910949707 13.18812942504883 C 4.331661224365234 13.0611686706543 4.292250633239746 12.9354190826416 4.212100982666016 12.83651924133301 L 0.4921703338623047 8.246588706970215 C 0.2623805999755859 7.963068962097168 0.4039306640625 7.536859512329102 0.7576713562011719 7.447118759155273 L 6.296920776367188 6.041998863220215 C 6.426831245422363 6.009038925170898 6.538081169128418 5.925309181213379 6.605690956115723 5.809578895568848 L 9.568281173706055 0.7389087677001953 C 9.664791107177734 0.5737285614013672 9.832395553588867 0.4911384582519531 10 0.4911384582519531 Z"/></g></svg>