<svg xmlns="http://www.w3.org/2000/svg" xmlns:xlink="http://www.w3.org/1999/xlink" width="250" height="251" viewBox="0 0 250 251"><defs><style>.a{fill:url(#a);}.b{opacity:0.645;fill:url(#b);}.c{opacity:0.281;}.d,.e,.f,.g,.i{fill-rule:evenodd;}.d{fill:url(#c);}.e{fill:url(#d);}.f{fill:url(#e);}.g{fill:url(#g);}.h{fill:url(#i);}.i{fill:url(#k);}.j{fill:url(#m);}.k{fill:url(#n);}.l{fill:#fff;}</style><linearGradient id="a" x1="0.5" y1="0.309" x2="0.5" y2="1" gradientUnits="objectBoundingBox"><stop offset="0" stop-color="#fff"/><stop offset="1" stop-color="#f8f8f8"/></linearGradient><linearGradient id="b" x1="0.309" y1="-0.093" x2="0.5" y2="0.589" gradientUnits="objectBoundingBox"><stop offset="0" stop-color="#eee" stop-opacity="0"/><stop offset="1" stop-color="#d8d8d8" stop-opacity="0.631"/></linearGradient><linearGradient id="c" x1="0.5" y1="1" x2="0.5" gradientUnits="objectBoundingBox"><stop offset="0" stop-color="#f8f8f8"/><stop offset="1" stop-color="#dbdbdb"/></linearGradient><linearGradient id="d" x1="0.44" y1="0.386" x2="0.588" y2="1" gradientUnits="objectBoundingBox"><stop offset="0" stop-color="#f9f9f9"/><stop offset="1" stop-color="#ebebeb"/></linearGradient><linearGradient id="e" x1="0.255" y1="0.245" x2="0.683" y2="0.571" gradientUnits="objectBoundingBox"><stop offset="0" stop-color="#dfdfdf"/><stop offset="1" stop-color="#f2f2f2"/></linearGradient><linearGradient id="g" x1="0.439" y1="0.386" x2="0.589" xlink:href="#d"/><radialGradient id="i" cx="0.359" cy="0.347" r="1.257" gradientUnits="objectBoundingBox"><stop offset="0" stop-color="#fff"/><stop offset="1" stop-color="#eee"/></radialGradient><linearGradient id="k" x1="0.442" y1="0.386" x2="0.585" xlink:href="#d"/><linearGradient id="m" x1="0.5" x2="0.5" y2="1" gradientUnits="objectBoundingBox"><stop offset="0" stop-color="#f1f1f1"/><stop offset="1" stop-color="#d9d9d9"/></linearGradient><linearGradient id="n" x1="0.5" y1="1" x2="0.5" gradientUnits="objectBoundingBox"><stop offset="0" stop-color="#f0f0f0"/><stop offset="1" stop-color="#dbdbdb"/></linearGradient></defs><g transform="translate(-935 -308)"><circle class="a" cx="125" cy="125" r="125" transform="translate(935 309)"/><path class="b" d="M205.352,812.144,164.7,771.1l55.731.658,90.157,36.787Z" transform="translate(802.8 -306.373)"/><g class="c" transform="translate(955 366)"><path class="d" d="M21,30.638,42,20V59.362L21,70Z"/><path class="e" d="M0-30.638,21-20V-59.362L0-70Z" transform="translate(21) rotate(180)"/><path class="f" d="M13.154-13.647,33.045-2.54,29.754-25.873,8.955-36.945Z" transform="matrix(-0.574, 0.819, -0.819, -0.574, 16.873, -8.783)"/></g><g class="c" transform="translate(1026 313)"><path class="d" d="M27,38.617,54,25V75.383L27,89Z"/><path class="g" d="M0-38.617,27-25V-75.383L0-89Z" transform="translate(27) rotate(180)"/><path class="f" d="M16.913-17.546,42.487-3.266l-4.231-30L11.513-47.5Z" transform="matrix(-0.574, 0.819, -0.819, -0.574, 21.694, -11.293)"/></g><circle class="h" cx="17" cy="17" r="17" transform="translate(1035 308)"/><g class="c" transform="translate(1128 390)"><path class="d" d="M19,27.787,38,18V54.213L19,64Z"/><path class="i" d="M0-27.787,19-18V-54.213L0-64Z" transform="translate(19) rotate(180)"/><path class="f" d="M11.824-12.481,29.9-2.487,27-23.655,8.1-33.614Z" transform="matrix(-0.574, 0.819, -0.819, -0.574, 15.112, -7.867)"/></g><g transform="translate(-233 0.408)"><path class="j" d="M355.692,243.981c0-20.568-16.921-37.241-37.8-37.241s-37.8,16.673-37.8,37.241c0,19.944,15.305,42.081,35.853,54.065a3.717,3.717,0,0,0,3.843-.06C340.441,285.057,355.692,263.942,355.692,243.981Z" transform="translate(977.786 183.308)"/><path class="k" d="M364.819,258.109a36.209,36.209,0,0,0-72.419,0c0,19.392,14.663,40.916,34.346,52.567a3.516,3.516,0,0,0,3.68-.058C350.208,298.048,364.819,277.519,364.819,258.109Z" transform="translate(968.659 170.69)"/><path class="j" d="M309.37,465.97H297.457a99.055,99.055,0,0,1-26.325,24.48,4.053,4.053,0,0,1-4.257.076,89.3,89.3,0,0,1-26.6-24.555H227.156l-11.141,20.98a7.088,7.088,0,0,0,6.212,10.43h92.435a7.09,7.09,0,0,0,6.169-10.515Z" transform="translate(1025.04 9.57)"/><path class="k" d="M325.054,465.81H313.031a99.789,99.789,0,0,1-26.57,24.555,4.111,4.111,0,0,1-4.3.076,89.962,89.962,0,0,1-26.852-24.628H242.074l-11.247,21.041a7.111,7.111,0,0,0,6.27,10.462h93.294a7.108,7.108,0,0,0,6.224-10.544Z" transform="translate(1011.938 9.685)"/><circle class="l" cx="13.811" cy="13.811" r="13.811" transform="translate(1283.458 414.988)"/></g></g></svg>