<svg xmlns="http://www.w3.org/2000/svg" xmlns:xlink="http://www.w3.org/1999/xlink" width="250" height="251" viewBox="0 0 250 251"><defs><style>.a{fill:url(#a);}.b{opacity:0.281;}.c,.d,.e,.f,.h{fill-rule:evenodd;}.c{fill:url(#b);}.d{fill:url(#c);}.e{fill:url(#d);}.f{fill:url(#f);}.g{fill:url(#h);}.h{fill:url(#j);}.i{fill:url(#l);}.j{fill:url(#m);}.k{fill:url(#n);}.l{fill:none;stroke:#f7f8f8;stroke-linecap:round;stroke-miterlimit:10;stroke-width:2px;stroke-dasharray:9 7;}.m{fill:#fff;font-size:44px;font-family:MicrosoftYaHei, Microsoft YaHei;}.n{opacity:0.645;fill:url(#q);}.o{fill:#ffbe92;}.p{fill:#bfbfbf;}.q{fill:#e6e8e8;}.r{fill:url(#r);}.s{fill:url(#s);}.t{fill:#171c61;}.u{fill:#ccc;}.v{filter:url(#o);}</style><linearGradient id="a" x1="0.5" y1="0.309" x2="0.5" y2="1" gradientUnits="objectBoundingBox"><stop offset="0" stop-color="#fff"/><stop offset="1" stop-color="#f8f8f8"/></linearGradient><linearGradient id="b" x1="0.5" y1="1" x2="0.5" gradientUnits="objectBoundingBox"><stop offset="0" stop-color="#f8f8f8"/><stop offset="1" stop-color="#dbdbdb"/></linearGradient><linearGradient id="c" x1="0.44" y1="0.386" x2="0.588" y2="1" gradientUnits="objectBoundingBox"><stop offset="0" stop-color="#f9f9f9"/><stop offset="1" stop-color="#ebebeb"/></linearGradient><linearGradient id="d" x1="0.255" y1="0.245" x2="0.683" y2="0.571" gradientUnits="objectBoundingBox"><stop offset="0" stop-color="#dfdfdf"/><stop offset="1" stop-color="#f2f2f2"/></linearGradient><linearGradient id="f" x1="0.439" y1="0.386" x2="0.589" xlink:href="#c"/><radialGradient id="h" cx="0.359" cy="0.347" r="1.257" gradientUnits="objectBoundingBox"><stop offset="0" stop-color="#fff"/><stop offset="1" stop-color="#eee"/></radialGradient><linearGradient id="j" x1="0.442" y1="0.386" x2="0.585" xlink:href="#c"/><linearGradient id="l" x1="0.5" x2="0.5" y2="1" gradientUnits="objectBoundingBox"><stop offset="0" stop-color="#f1f1f1"/><stop offset="1" stop-color="#d9d9d9"/></linearGradient><linearGradient id="m" x1="0.5" y1="1" x2="0.5" gradientUnits="objectBoundingBox"><stop offset="0" stop-color="#f0f0f0"/><stop offset="1" stop-color="#dbdbdb"/></linearGradient><linearGradient id="n" x1="0.193" y1="0.517" x2="0.789" y2="0.369" gradientUnits="objectBoundingBox"><stop offset="0" stop-color="#ccc"/><stop offset="0.046" stop-color="#ccc"/><stop offset="0.387" stop-color="#f3f4f5"/><stop offset="0.672" stop-color="#e4e5e6"/><stop offset="0.933" stop-color="#f3f4f5"/><stop offset="1" stop-color="#ccc"/></linearGradient><filter id="o" x="71" y="124.448" width="56.703" height="84.325" filterUnits="userSpaceOnUse"><feOffset dx="4" dy="3" input="SourceAlpha"/><feGaussianBlur stdDeviation="3" result="p"/><feFlood flood-opacity="0.102"/><feComposite operator="in" in2="p"/><feComposite in="SourceGraphic"/></filter><linearGradient id="q" x1="0.338" y1="0.533" x2="0.045" y2="-0.048" gradientUnits="objectBoundingBox"><stop offset="0" stop-color="#eee" stop-opacity="0"/><stop offset="1" stop-color="#d8d8d8"/></linearGradient><linearGradient id="r" x1="0.5" y1="0.967" x2="0.5" y2="-0.033" gradientUnits="objectBoundingBox"><stop offset="0" stop-color="#ccc"/><stop offset="1" stop-color="#666"/></linearGradient><linearGradient id="s" x1="0.5" y1="0.967" x2="0.5" y2="-0.033" gradientUnits="objectBoundingBox"><stop offset="0" stop-color="#e4e5e6"/><stop offset="1" stop-color="#666"/></linearGradient></defs><g transform="translate(-935 -308)"><circle class="a" cx="125" cy="125" r="125" transform="translate(935 309)"/><g class="b" transform="translate(955 366)"><path class="c" d="M21,30.638,42,20V59.362L21,70Z"/><path class="d" d="M0-30.638,21-20V-59.362L0-70Z" transform="translate(21) rotate(180)"/><path class="e" d="M13.154-13.647,33.045-2.54,29.754-25.873,8.955-36.945Z" transform="matrix(-0.574, 0.819, -0.819, -0.574, 16.873, -8.783)"/></g><g class="b" transform="translate(1026 313)"><path class="c" d="M27,38.617,54,25V75.383L27,89Z"/><path class="f" d="M0-38.617,27-25V-75.383L0-89Z" transform="translate(27) rotate(180)"/><path class="e" d="M16.913-17.546,42.487-3.266l-4.231-30L11.513-47.5Z" transform="matrix(-0.574, 0.819, -0.819, -0.574, 21.694, -11.293)"/></g><circle class="g" cx="17" cy="17" r="17" transform="translate(1035 308)"/><g class="b" transform="translate(1128 390)"><path class="c" d="M19,27.787,38,18V54.213L19,64Z"/><path class="h" d="M0-27.787,19-18V-54.213L0-64Z" transform="translate(19) rotate(180)"/><path class="e" d="M11.824-12.481,29.9-2.487,27-23.655,8.1-33.614Z" transform="matrix(-0.574, 0.819, -0.819, -0.574, 15.112, -7.867)"/></g><g transform="translate(-309 -4.414)"><path class="i" d="M293.547,241.5l-5.4-21.728,77.386-12.451a3.749,3.749,0,0,1,4.107,3.731v23.688Z" transform="translate(1035.471 187.305)"/><path class="j" d="M377.005,262.592V242.639a3.558,3.558,0,0,0-3.559-3.559H282.469a3.559,3.559,0,0,0-3.559,3.559V262.6a3.488,3.488,0,0,1,0,6.976v5.314L299.1,341.212h74.348a3.559,3.559,0,0,0,3.559-3.559V269.576a3.492,3.492,0,0,1,0-6.984Z" transform="translate(1041.09 167.983)"/><g class="v" transform="matrix(1, 0, 0, 1, 1244, 312.41)"><path class="k" d="M278.91,330.42,299.1,396.746l17.382-16.982a3.767,3.767,0,0,0,.114-5.271Z" transform="translate(-202.91 -199.97)"/></g><g transform="translate(1327.795 434.517)"><g transform="translate(0 0)"><line class="l" x2="1.568"/><line class="l" x2="72.988" y2="0.02" transform="translate(6.083)"/><line class="l" x2="1.568" transform="translate(81.328 0.02)"/></g></g><text class="m" transform="translate(1368.986 484.779)"><tspan x="-22" y="0">￥</tspan></text></g><path class="n" d="M333.744,518.1l44.069,31.747L306.719,567.3,273.18,517.19Z" transform="translate(757.504 -12.409)"/><g transform="translate(724.145 57.646)"><path class="o" d="M303.17,508.942s.284.3-.28,1.588a4.811,4.811,0,0,0,2.5-.372l-.32-1.988Z" transform="translate(-11.314 -62.851)"/><path class="p" d="M300.449,513.108l-6.337-.32s-.228-1.916,2.264-1.712c.5.04.948-.5,1.364-.468a3.919,3.919,0,0,0,2.564.848Z" transform="translate(-6.044 -64.312)"/><path class="q" d="M300.445,516.494l-2.8.108-.076-.516-3.593.052-.052-.436,6.453-.152Z" transform="translate(-5.933 -67.278)"/><path class="p" d="M329.09,512.743a1.98,1.98,0,0,1,.124.828c-.072.28-.192.824.6.788a13.5,13.5,0,0,0,1.8-.228c.156-.028.036-.572.168-.9s.76-1.44.772-1.572a.959.959,0,0,0-.684-1.064c-.664-.148-1.252.52-1.52.8S329.09,512.743,329.09,512.743Z" transform="translate(-27.032 -64.295)"/><path class="r" d="M310.3,452.793c.084,0,1.956,1.6,2.052,6.181.328,2.961.24,4.7.848,6.861A110.735,110.735,0,0,1,315.915,478c-1.528.8-2.008.288-2.008.288s-3.457-9.41-4.293-11.246a21.681,21.681,0,0,0-5.917-7.781C303.025,455.682,306.986,452.653,310.3,452.793Z" transform="translate(-11.753 -29.626)"/><path class="s" d="M304.253,457.676s2.528,2.456-.336,6.373-3.7,5.189-3.365,6.373,1.032,7,1.228,8.5a8.842,8.842,0,0,1-2.208.024,64.563,64.563,0,0,1-2.288-7.689A10.367,10.367,0,0,1,297,466.73c.356-1.592,1.7-6.993,1.7-6.993A4.459,4.459,0,0,1,304.253,457.676Z" transform="translate(-7.684 -32.36)"/><path class="o" d="M290.3,406.66s1.328.84,1.6,1.464a6.715,6.715,0,0,1,.436,2.917c-.172.636-.716.488-.356,2.176a7.9,7.9,0,0,1-2.216,2.14l-.916-4.629s-.856-3.245-.568-3.493A9.112,9.112,0,0,1,290.3,406.66Z" transform="translate(-2.514 -1.952)"/><path class="t" d="M286.243,405.533s.132-.86.608-.608.76.364,1.1.136,1.108-.44,1.1.308.332.916.444,1a.6.6,0,0,1,.212.856c-.276.52-.608.572-.356.98s.28,1.108-.008,1.272-.024.444.1.48.2.476-.32.5a2.121,2.121,0,0,0-1.34.46c-.3.292-1.672.708-1.572.14.116-.672-.36-.648-.728-.8s-.876-.384-.908-.872c-.016-.28.232-1.1-.236-1.344-.484-.256-.332-1.528.056-1.636S284.9,405.089,286.243,405.533Z" transform="translate(0 -0.865)"/><path class="o" d="M310.742,409.125s1.52-.116,1.788-.2c.2-.064-.992-1.728-1.224-1.9s-.248-.188-.732-.216a2.284,2.284,0,0,1-1.96-1.42c-.076-.2.256-.2.688.112.168.124.392.044-.016-.224-.612-.4-1.836-2.016.432-1.868a2.522,2.522,0,0,1,1.812,1.156,8.341,8.341,0,0,0,.98,1.38,22.833,22.833,0,0,1,2.837,2.973c.476.868-.172,1.764-3.073,2.512C309.089,411.733,310.742,409.125,310.742,409.125Z" transform="translate(-14.621)"/><path class="o" d="M288.91,440.868a37.3,37.3,0,0,0,1.684,3.581,2.545,2.545,0,0,0,2.04,1.484c1.288.232-.144-6.513-.144-6.513l-3.241.428Z" transform="translate(-2.927 -21.606)"/><path class="u" d="M286.134,423.765a12.931,12.931,0,0,1,1.692-2.857c.112-.876,1.7-3.541,3.549-2.909a8.262,8.262,0,0,1,4.213-1.06,10.086,10.086,0,0,1,2.232.024l.848,2.853-2.256.728a49.435,49.435,0,0,0,4.285,10.418c.288.452.872,1.376-.428,2.612s-3.965,2.056-8.045,3.849c-1.108.5-1.808-.768-1.5-2.38s-1-6.349-1.98-7.757c-1.168.6-1.948.944-1.948.944S285.638,425.2,286.134,423.765Z" transform="translate(-1.187 -8.103)"/><path class="q" d="M332.536,511.98a2.643,2.643,0,0,1-.344,1.16,14.974,14.974,0,0,0-.708,1.484,1.6,1.6,0,0,1-1.168.46,1.547,1.547,0,0,1-1.1-.38,1.725,1.725,0,0,0,0,.62.11.11,0,0,0,.024.048c.108.1.672.556,1.968.132a.923.923,0,0,0,.6-.452,3.467,3.467,0,0,0,.2-.628l0-.4a1.576,1.576,0,0,1,.232-.564,2.03,2.03,0,0,0,.416-1.224C332.564,512.044,332.536,511.98,332.536,511.98Z" transform="translate(-27.089 -65.137)"/></g></g></svg>