<svg xmlns="http://www.w3.org/2000/svg" xmlns:xlink="http://www.w3.org/1999/xlink" width="30" height="30" viewBox="0 0 30 30"><defs><style>.a{fill:#333;opacity:0.55;}.b,.c,.f{fill:none;}.d{fill:#fff;}.e{clip-path:url(#a);}.f{stroke:#fff;stroke-width:1.5px;}.g,.h{stroke:none;}.h{fill:#fff;}</style><clipPath id="a"><rect class="a" width="7" height="4" transform="translate(343 55)"/></clipPath></defs><g transform="translate(-329 -51)"><rect class="b" width="30" height="30" transform="translate(329 51)"/><g transform="translate(-2 2)"><g class="c" transform="translate(338 57.995)"><path class="g" d="M2,1H15V8.431L17,14H0L2,8.431Z"/><path class="h" d="M 3.5 2.500001907348633 L 3.5 8.692341804504395 L 2.131908416748047 12.50488185882568 L 14.86809158325195 12.50488185882568 L 13.5 8.692341804504395 L 13.5 2.500001907348633 L 3.5 2.500001907348633 M 2 1.000001907348633 L 15 1.000001907348633 L 15 8.431362152099609 L 17 14.00488185882568 L 0 14.00488185882568 L 2 8.431362152099609 L 2 1.000001907348633 Z"/></g><rect class="d" width="9" height="1.5" transform="translate(342 73)"/><g class="e" transform="translate(0 -1)"><g class="f" transform="translate(343 55)"><rect class="g" width="7" height="10" rx="3.5"/><rect class="b" x="0.75" y="0.75" width="5.5" height="8.5" rx="2.75"/></g></g></g></g></svg>