<svg xmlns="http://www.w3.org/2000/svg" xmlns:xlink="http://www.w3.org/1999/xlink" width="250" height="251" viewBox="0 0 250 251"><defs><style>.a{fill:#dcdcdc;}.b{fill:url(#a);}.c{fill:url(#an);}.d{opacity:0.645;fill:url(#ao);}.e{opacity:0.281;}.f,.g,.h,.i,.k{fill-rule:evenodd;}.f{fill:url(#ap);}.g{fill:url(#aq);}.h{fill:url(#ar);}.i{fill:url(#at);}.j{fill:url(#av);}.k{fill:url(#ax);}.l{fill:#d9d9d9;}.m{fill:#fff;}.n{fill:#eee;}.o{fill:url(#ba);}</style><linearGradient id="a" x1="0.5" y1="1" x2="0.5" gradientUnits="objectBoundingBox"><stop offset="0" stop-color="#f0f0f0"/><stop offset="1" stop-color="#dbdbdb"/></linearGradient><linearGradient id="an" x1="0.5" y1="0.309" x2="0.5" y2="1" gradientUnits="objectBoundingBox"><stop offset="0" stop-color="#fff"/><stop offset="1" stop-color="#f8f8f8"/></linearGradient><linearGradient id="ao" x1="0.221" y1="0.084" x2="0.5" y2="0.589" gradientUnits="objectBoundingBox"><stop offset="0" stop-color="#eee" stop-opacity="0"/><stop offset="1" stop-color="#d8d8d8"/></linearGradient><linearGradient id="ap" x1="0.5" y1="1" x2="0.5" gradientUnits="objectBoundingBox"><stop offset="0" stop-color="#f8f8f8"/><stop offset="1" stop-color="#dbdbdb"/></linearGradient><linearGradient id="aq" x1="0.44" y1="0.386" x2="0.588" y2="1" gradientUnits="objectBoundingBox"><stop offset="0" stop-color="#f9f9f9"/><stop offset="1" stop-color="#ebebeb"/></linearGradient><linearGradient id="ar" x1="0.255" y1="0.245" x2="0.683" y2="0.571" gradientUnits="objectBoundingBox"><stop offset="0" stop-color="#dfdfdf"/><stop offset="1" stop-color="#f2f2f2"/></linearGradient><linearGradient id="at" x1="0.439" y1="0.386" x2="0.589" xlink:href="#aq"/><radialGradient id="av" cx="0.359" cy="0.347" r="1.257" gradientUnits="objectBoundingBox"><stop offset="0" stop-color="#fff"/><stop offset="1" stop-color="#eee"/></radialGradient><linearGradient id="ax" x1="0.442" y1="0.386" x2="0.585" xlink:href="#aq"/><linearGradient id="ba" x1="0.5" y1="1" x2="0.5" gradientUnits="objectBoundingBox"><stop offset="0" stop-color="#f2f2f2"/><stop offset="1" stop-color="#dbdbdb"/></linearGradient></defs><g transform="translate(-935 -308)"><circle class="c" cx="125" cy="125" r="125" transform="translate(935 309)"/><path class="d" d="M206.04,814.274,164.7,771.1l55.731.658,65.843,30.57Z" transform="translate(805.8 -306.373)"/><g class="e" transform="translate(955 366)"><path class="f" d="M21,30.638,42,20V59.362L21,70Z"/><path class="g" d="M0-30.638,21-20V-59.362L0-70Z" transform="translate(21) rotate(180)"/><path class="h" d="M13.154-13.647,33.045-2.54,29.754-25.873,8.955-36.945Z" transform="matrix(-0.574, 0.819, -0.819, -0.574, 16.873, -8.783)"/></g><g class="e" transform="translate(1026 313)"><path class="f" d="M27,38.617,54,25V75.383L27,89Z"/><path class="i" d="M0-38.617,27-25V-75.383L0-89Z" transform="translate(27) rotate(180)"/><path class="h" d="M16.913-17.546,42.487-3.266l-4.231-30L11.513-47.5Z" transform="matrix(-0.574, 0.819, -0.819, -0.574, 21.694, -11.293)"/></g><circle class="j" cx="17" cy="17" r="17" transform="translate(1035 308)"/><g class="e" transform="translate(1128 390)"><path class="f" d="M19,27.787,38,18V54.213L19,64Z"/><path class="k" d="M0-27.787,19-18V-54.213L0-64Z" transform="translate(19) rotate(180)"/><path class="h" d="M11.824-12.481,29.9-2.487,27-23.655,8.1-33.614Z" transform="matrix(-0.574, 0.819, -0.819, -0.574, 15.112, -7.867)"/></g><g transform="translate(-300.629 9.286)"><path class="a" d="M87.3,105.751H4.066l-.094,0H3.964l-.087-.006-.025,0-.088-.008-.022,0-.07-.009-.03,0-.084-.012-.029,0-.059-.01-.038-.007-.065-.013-.054-.012-.038-.008a.434.434,0,0,1-.05-.012l-.015,0-.108-.028-.018,0A4.208,4.208,0,0,1,0,101.57V4.182A4.2,4.2,0,0,1,2.159.527l0,0C2.216.5,2.27.467,2.325.44A.255.255,0,0,1,2.348.429c.016-.008.031-.015.046-.023L2.44.384,2.5.359,2.539.34,2.575.324,2.646.295,2.678.283,2.732.262,2.761.251,2.838.225l.029-.01C2.887.207,2.908.2,2.929.194L2.953.187,3.035.162,3.06.155l.068-.02.021,0L3.235.109l.021,0L3.335.087l.014,0L3.438.067l.021,0L3.542.05l.012,0L3.645.035l.022,0L3.752.021h.008L3.854.013l.021,0,.093,0h0l.1,0h83.37l.094,0h0l.09,0,.023,0,.092.009h.012l.081.01.026,0,.088.013.017,0,.075.012.026,0,.085.017.02,0L88.241.1l.025.006c.028.006.056.014.084.021l.023.006.066.019.026.007.082.024.024.008.065.021.024.008.081.028.021.008.067.026.02.008.081.033.021.009.069.03.016.007c.027.012.053.024.08.038l.02.009.07.035.012.006L89.294.5l.021.012.069.038.009.006L89.47.6l.019.012.073.046,0,0,.074.049.02.013.068.048.01.007c.022.017.043.031.065.049l.021.015c.022.017.044.033.066.051L89.9.9l.055.045.023.02.058.049.025.022.042.036.029.027.04.036.046.045.025.025c.012.011.024.023.036.035l.011.012c.027.026.053.055.079.082l.006.006A4.171,4.171,0,0,1,91.5,4.088c0,.03,0,.062,0,.094V101.57c0,.022,0,.046,0,.068a4.2,4.2,0,0,1-3.707,4.084h0c-.042.006-.084.01-.127.014h-.012l-.054,0-.043,0-.06,0-.066,0H87.3Zm-83.112,0h0Z" transform="translate(1310.999 392.864)"/><path class="b" d="M4.185,105.751h0Zm0,0A4.2,4.2,0,0,1,.223,102.9h0A4.077,4.077,0,0,1,0,101.57v-1.532H91.5v1.532a4.09,4.09,0,0,1-.216,1.314h0a4.217,4.217,0,0,1-3.988,2.866ZM0,100.038V94.324H91.5v5.714Zm0-5.714V91.461H91.5v2.863Zm0-2.863V85.748H91.5v5.713Zm0-5.713V80.034H91.5v5.714Zm0-5.714V77.167H91.5v2.867Zm0-2.867v-5.71H91.5v5.71Zm0-5.71V65.743H91.5v5.714Zm0-5.714V62.876H91.5v2.867Zm0-2.867V57.163H91.5v5.713Zm0-5.713V51.45H91.5v5.713ZM0,51.45V48.586H91.5V51.45Zm0-2.864V42.872H91.5v5.714Zm0-5.714V37.159H91.5v5.713Zm0-5.713V34.295H91.5v2.864Zm0-2.864V28.581H91.5v5.714Zm0-5.714V22.868H91.5v5.713Zm0-5.713V17.154H91.5v5.714Zm0-5.714V14.29H91.5v2.864ZM0,14.29V8.577H91.5V14.29ZM0,8.577v-4.4A4.164,4.164,0,0,1,.217,2.863H91.285A4.162,4.162,0,0,1,91.5,4.182v4.4ZM.217,2.863A4.2,4.2,0,0,1,4.185,0H87.317a4.207,4.207,0,0,1,3.968,2.863Z" transform="translate(1312.762 392.864)"/><path class="l" d="M373.934,399.081s-26.127-.908-35.809-.925c-9.219,0-39.012,1.94-39.012,1.94-1.05-1.958-1.014-11.818-1.014-11.818V303.9h75.746v50.972C373.863,354.872,371.728,384.167,373.934,399.081Z" transform="translate(1022.297 93.804)"/><path class="m" d="M378.038,397.248s-27.746-.3-37.428-.3c-9.219,0-38.069,1.228-38.069,1.228-2.136-1.833-1.958-11.106-1.958-11.106V303.9h75.746v49.744S375.831,382.333,378.038,397.248Z" transform="translate(1020.258 93.804)"/><ellipse class="n" cx="6.194" cy="6.194" rx="6.194" ry="6.194" transform="translate(1329.224 410.928)"/><path class="n" d="M365.184,494.864H347.849a.243.243,0,0,1-.249-.249v-2.865a.243.243,0,0,1,.249-.249h17.335a.243.243,0,0,1,.249.249v2.865A.255.255,0,0,1,365.184,494.864Z" transform="translate(981.607 -60.409)"/><path class="n" d="M404.545,573.464h-56.6a.243.243,0,0,1-.249-.249v-2.865a.243.243,0,0,1,.249-.249h56.6a.243.243,0,0,1,.249.249v2.865A.284.284,0,0,1,404.545,573.464Z" transform="translate(981.524 -125.02)"/><path class="n" d="M387.46,651.964h-39.51a.243.243,0,0,1-.249-.249v-2.865a.243.243,0,0,1,.249-.249h39.528a.243.243,0,0,1,.249.249v2.865A.27.27,0,0,1,387.46,651.964Z" transform="translate(981.525 -189.548)"/><path class="n" d="M365.184,730.564H347.849a.243.243,0,0,1-.249-.249v-2.865a.243.243,0,0,1,.249-.249h17.335a.243.243,0,0,1,.249.249v2.865A.243.243,0,0,1,365.184,730.564Z" transform="translate(981.607 -254.16)"/><path class="o" d="M.373,21.536A.376.376,0,0,1,0,21.163V9.72a.377.377,0,0,1,.373-.376H9.02a7.333,7.333,0,1,1,14.1,0h8.626a.379.379,0,0,1,.376.376V21.163a.351.351,0,0,1-.356.373ZM19.962,9.344a4.378,4.378,0,1,0-7.781,0Z" transform="translate(1342.448 379.229)"/></g></g></svg>