<svg xmlns="http://www.w3.org/2000/svg" width="30" height="30" viewBox="0 0 30 30"><defs><style>.a,.b,.c{fill:none;}.b{stroke:currentColor;}.d,.e{stroke:none;}.e{fill:currentColor;}</style></defs><g transform="translate(-590 -274)"><g transform="translate(597 279.449)"><g class="a"><path class="d" d="M7.655,0A7.655,7.655,0,0,1,15.31,7.655c0,4.228-7.655,11.446-7.655,11.446S0,11.883,0,7.655A7.655,7.655,0,0,1,7.655,0Z"/><path class="e" d="M 7.654860973358154 0.9999961853027344 C 3.985361099243164 0.9999961853027344 1.000000953674316 3.985356330871582 1.000000953674316 7.654855728149414 C 1.000000953674316 9.125125885009766 2.274081230163574 11.48970603942871 4.587551116943359 14.31301593780518 C 5.756479263305664 15.73955917358398 6.937861442565918 16.9759635925293 7.654860973358154 17.6982479095459 C 8.371891021728516 16.97593307495117 9.553242683410645 15.73955917358398 10.72217082977295 14.31301593780518 C 13.03564071655273 11.48970603942871 14.30972099304199 9.125125885009766 14.30972099304199 7.654855728149414 C 14.30972099304199 3.985356330871582 11.32436084747314 0.9999961853027344 7.654860973358154 0.9999961853027344 M 7.654860973358154 -3.814697265625e-06 C 11.88252067565918 -3.814697265625e-06 15.30972099304199 3.42719554901123 15.30972099304199 7.654855728149414 C 15.30972099304199 11.88252639770508 7.654860973358154 19.10067558288574 7.654860973358154 19.10067558288574 C 7.654860973358154 19.10067558288574 9.5367431640625e-07 11.88252639770508 9.5367431640625e-07 7.654855728149414 C 9.5367431640625e-07 3.42719554901123 3.427201271057129 -3.814697265625e-06 7.654860973358154 -3.814697265625e-06 Z"/></g><g class="b" transform="translate(3.956 3.945)"><circle class="d" cx="3.667" cy="3.667" r="3.667"/><circle class="c" cx="3.667" cy="3.667" r="3.167"/></g></g><rect class="c" width="30" height="30" transform="translate(590 274)"/></g></svg>