<svg xmlns="http://www.w3.org/2000/svg" xmlns:xlink="http://www.w3.org/1999/xlink" width="250" height="251" viewBox="0 0 250 251"><defs><style>.a{fill:url(#a);}.b{opacity:0.281;}.c,.d,.e,.f,.h{fill-rule:evenodd;}.c{fill:url(#b);}.d{fill:url(#c);}.e{fill:url(#d);}.f{fill:url(#f);}.g{fill:url(#h);}.h{fill:url(#j);}.i{opacity:0.612;}.j{fill:url(#l);}.k{fill:url(#m);}.l{fill:url(#n);}.m{fill:url(#o);}.n{opacity:0.746;}.o{fill:#fff;}.p{opacity:0.645;fill:url(#p);}.q{fill:#ffbe92;}.r{fill:#171c61;}.s{fill:url(#q);}.t{fill:#bfbfbf;}.u{fill:#e6e8e8;}.v{fill:url(#r);}.w{fill:#ccc;}</style><linearGradient id="a" x1="0.5" y1="0.309" x2="0.5" y2="1" gradientUnits="objectBoundingBox"><stop offset="0" stop-color="#fff"/><stop offset="1" stop-color="#f8f8f8"/></linearGradient><linearGradient id="b" x1="0.5" y1="1" x2="0.5" gradientUnits="objectBoundingBox"><stop offset="0" stop-color="#f8f8f8"/><stop offset="1" stop-color="#dbdbdb"/></linearGradient><linearGradient id="c" x1="0.44" y1="0.386" x2="0.588" y2="1" gradientUnits="objectBoundingBox"><stop offset="0" stop-color="#f9f9f9"/><stop offset="1" stop-color="#ebebeb"/></linearGradient><linearGradient id="d" x1="0.255" y1="0.245" x2="0.683" y2="0.571" gradientUnits="objectBoundingBox"><stop offset="0" stop-color="#dfdfdf"/><stop offset="1" stop-color="#f2f2f2"/></linearGradient><linearGradient id="f" x1="0.439" y1="0.386" x2="0.589" xlink:href="#c"/><radialGradient id="h" cx="0.359" cy="0.347" r="1.257" gradientUnits="objectBoundingBox"><stop offset="0" stop-color="#fff"/><stop offset="1" stop-color="#eee"/></radialGradient><linearGradient id="j" x1="0.442" y1="0.386" x2="0.585" xlink:href="#c"/><linearGradient id="l" x1="0.599" y1="-0.03" x2="0.552" y2="0.777" gradientUnits="objectBoundingBox"><stop offset="0" stop-color="#eae7e7"/><stop offset="1" stop-color="#f0eded"/></linearGradient><linearGradient id="m" x1="0.5" y1="1" x2="0.5" gradientUnits="objectBoundingBox"><stop offset="0" stop-color="#ebebeb"/><stop offset="1" stop-color="#f0f0f0"/></linearGradient><linearGradient id="n" x1="0.5" y1="1" x2="0.5" gradientUnits="objectBoundingBox"><stop offset="0" stop-color="#ccc"/><stop offset="1" stop-color="#eaeaea"/></linearGradient><linearGradient id="o" x1="0.516" x2="0.4" y2="0.976" gradientUnits="objectBoundingBox"><stop offset="0" stop-color="#f0f0f0"/><stop offset="1" stop-color="#e0e0e0"/></linearGradient><linearGradient id="p" x1="0.5" y1="0.785" x2="0.209" y2="-0.109" gradientUnits="objectBoundingBox"><stop offset="0" stop-color="#eee" stop-opacity="0"/><stop offset="1" stop-color="#d8d8d8"/></linearGradient><linearGradient id="q" y1="0.5" x2="1" y2="0.5" gradientUnits="objectBoundingBox"><stop offset="0" stop-color="#f7fafb"/><stop offset="1" stop-color="#cfdbea"/></linearGradient><linearGradient id="r" x1="0.5" y1="0.967" x2="0.5" y2="-0.033" gradientUnits="objectBoundingBox"><stop offset="0" stop-color="#ccc"/><stop offset="1" stop-color="#666"/></linearGradient></defs><g transform="translate(-935 -308)"><circle class="a" cx="125" cy="125" r="125" transform="translate(935 309)"/><g class="b" transform="translate(955 366)"><path class="c" d="M21,30.638,42,20V59.362L21,70Z"/><path class="d" d="M0-30.638,21-20V-59.362L0-70Z" transform="translate(21) rotate(180)"/><path class="e" d="M13.154-13.647,33.045-2.54,29.754-25.873,8.955-36.945Z" transform="matrix(-0.574, 0.819, -0.819, -0.574, 16.873, -8.783)"/></g><g class="b" transform="translate(1026 313)"><path class="c" d="M27,38.617,54,25V75.383L27,89Z"/><path class="f" d="M0-38.617,27-25V-75.383L0-89Z" transform="translate(27) rotate(180)"/><path class="e" d="M16.913-17.546,42.487-3.266l-4.231-30L11.513-47.5Z" transform="matrix(-0.574, 0.819, -0.819, -0.574, 21.694, -11.293)"/></g><circle class="g" cx="17" cy="17" r="17" transform="translate(1035 308)"/><g class="b" transform="translate(1128 390)"><path class="c" d="M19,27.787,38,18V54.213L19,64Z"/><path class="h" d="M0-27.787,19-18V-54.213L0-64Z" transform="translate(19) rotate(180)"/><path class="e" d="M11.824-12.481,29.9-2.487,27-23.655,8.1-33.614Z" transform="matrix(-0.574, 0.819, -0.819, -0.574, 15.112, -7.867)"/></g><g transform="translate(-186.914 249.401)"><g class="i"><path class="j" d="M344.541,218.01h-60.35a12.283,12.283,0,0,0-12.071,12.484v1.03h54A12.283,12.283,0,0,1,338.2,244.007v73.482h6.346a12.283,12.283,0,0,0,12.071-12.484V230.491A12.282,12.282,0,0,0,344.541,218.01Z" transform="translate(938.205 -77.617)"/><path class="k" d="M344.541,218.01h-60.35a12.283,12.283,0,0,0-12.071,12.484v1.03h54c6.667,0,5.462,4.864,5.462,11.758v73.482l12.955.725a12.283,12.283,0,0,0,12.071-12.484V230.491A12.282,12.282,0,0,0,344.541,218.01Z" transform="translate(936.205 -75.617)"/></g><path class="l" d="M278.229,366.286H217.464A11.864,11.864,0,0,1,205.6,354.423V278.673a11.864,11.864,0,0,1,11.864-11.863h60.766c4.873-.23,11.863,5.31,11.863,11.863v75.752A11.863,11.863,0,0,1,278.229,366.286Z" transform="translate(983.309 -112.906)"/><path class="m" d="M278.229,366.286H217.464A11.864,11.864,0,0,1,205.6,354.423V278.673a11.864,11.864,0,0,1,11.864-11.863h60.766a11.864,11.864,0,0,1,11.863,11.863v75.752A11.863,11.863,0,0,1,278.229,366.286Z" transform="translate(981.309 -110.906)"/><g class="n" transform="translate(1233.784 172.384)"><path class="o" d="M394.121,322.074c3.765-.064,12.29,1.224,10.853,10.18-.46,2.63-1.772,5.2-1.5,8.8s.061,13.27-8.713,12.412c-8.854-.864-6.725-10.914-5.044-12.963s1.071-4.433-1.836-6.542S381.524,322.29,394.121,322.074Z" transform="translate(-380.106 -314.253)"/><circle class="o" cx="3.923" cy="3.923" r="3.923" transform="translate(0.003 1.575)"/><circle class="o" cx="2.752" cy="2.752" r="2.752" transform="translate(8.873 0.831)"/><circle class="o" cx="2.345" cy="2.345" r="2.345" transform="translate(16.005 1.448)"/><circle class="o" cx="1.905" cy="1.905" r="1.905" transform="translate(21.617 4.15)"/><circle class="o" cx="1.717" cy="1.717" r="1.717" transform="translate(25.125 8.145)"/></g><g class="n" transform="translate(1197.41 189.641)"><path class="o" d="M259.331,383.474c-3.765-.064-12.29,1.224-10.853,10.18.46,2.63,1.772,5.2,1.5,8.8s-.061,13.27,8.713,12.412c8.854-.864,6.725-10.914,5.044-12.963s-1.071-4.433,1.836-6.542S271.928,383.69,259.331,383.474Z" transform="translate(-244.79 -375.91)"/><circle class="o" cx="3.923" cy="3.923" r="3.923" transform="translate(20.706 1.318)"/><circle class="o" cx="2.752" cy="2.752" r="2.752" transform="translate(14.178 0.573)"/><circle class="o" cx="2.345" cy="2.345" r="2.345" transform="translate(7.86 1.191)"/><circle class="o" cx="1.905" cy="1.905" r="1.905" transform="translate(3.129 3.893)"/><circle class="o" cx="1.717" cy="1.717" r="1.717" transform="translate(0 7.888)"/></g></g><path class="p" d="M371.625,496.5l43.567,35.778L315.87,567.3l-42.977-51.9,81.082-11.989s7.619.565,8.719,0a40.675,40.675,0,0,0,4.441-2.318A13.042,13.042,0,0,0,371.625,496.5Z" transform="translate(734.063 -12.409)"/><g transform="translate(1073.833 460.691)"><path class="q" d="M454.885,435.715l-.966.392a3.1,3.1,0,0,0-.2,1.807,5.71,5.71,0,0,0,.933,2.158,11.743,11.743,0,0,1,.054,2.191h2.558l.107-2.435a6.164,6.164,0,0,0,.767-1.23c.19-.5.574-1.325.442-1.717A3.261,3.261,0,0,0,454.885,435.715Z" transform="translate(-448.34 -412.162)"/><path class="r" d="M455.75,432.282s.413-.747.739-.342.532.607.908.52,1.114-.008.85.681-.012.751.091.937c.062.116.516.5.21,1s-.726.309-.652.776a.971.971,0,0,1-.376,1.023.393.393,0,0,0-.153.536.4.4,0,0,1-.557.437,1.59,1.59,0,0,0-1.213-.066c-.359.161-1.836.256-1.523-.4.289-.6-.111-.726-.38-.994a1.222,1.222,0,0,1-.342-1.193,1.5,1.5,0,0,0-.124-1.292c-.33-.408.239-1.527.615-1.486S454.735,431.39,455.75,432.282Z" transform="translate(-448.013 -409.991)"/><ellipse class="s" cx="5.265" cy="5.265" rx="5.265" ry="5.265" transform="translate(1.494 0.825)"/><path class="t" d="M455.835,397.571l-3.887-7.531a6.054,6.054,0,1,0-1.741.879l3.9,7.543a.979.979,0,0,0,.867.528,1.011,1.011,0,0,0,.446-.107A.973.973,0,0,0,455.835,397.571Zm-12.3-12.511a4.84,4.84,0,1,1,4.84,4.84A4.845,4.845,0,0,1,443.53,385.06Z" transform="translate(-441.611 -378.92)"/><path class="q" d="M440.927,459.9s-.978,4.176,1.407,4.485,3.986-5.583,3.986-5.583V456.13l-4.366.933Z" transform="translate(-440.729 -424.27)"/><path class="t" d="M465.479,538.487s-1.7-.5-1.729,1.027a14.186,14.186,0,0,1,.569,2.5,2.075,2.075,0,0,0,1.923,1.861c1.325.177,1.915-.862,1.457-2.319S467.084,538.764,465.479,538.487Z" transform="translate(-454.251 -472.597)"/><path class="u" d="M463.763,540.28a8.19,8.19,0,0,0,.4,1.527,6.255,6.255,0,0,1,.433,1.337,1.741,1.741,0,0,0,1.877,1.514c.957-.037,1.353-.5,1.349-.9a1.068,1.068,0,0,1-1.366,1.32,1.921,1.921,0,0,1-2.17-1.638,8.752,8.752,0,0,0-.219-1.349C463.953,541.757,463.569,540.684,463.763,540.28Z" transform="translate(-454.227 -473.697)"/><path class="t" d="M451.483,538.666s-2.063-.454-2.063,1.015c.095,1.3.314,1.882.3,2.525a2.078,2.078,0,0,0,1.923,1.861c1.325.177,1.915-.862,1.457-2.319S453.084,538.942,451.483,538.666Z" transform="translate(-445.834 -472.71)"/><path class="u" d="M449.587,539.52s-.359.516.029,1.927c.132.421.231.9.33,1.329a1.741,1.741,0,0,0,1.877,1.514c.957-.037,1.353-.5,1.349-.9a1.373,1.373,0,0,1-.124.862,1.651,1.651,0,0,1-1.238.458,1.921,1.921,0,0,1-2.171-1.638,8.744,8.744,0,0,0-.219-1.349C449.307,541.389,449.15,539.825,449.587,539.52Z" transform="translate(-445.762 -473.25)"/><path class="v" d="M449.58,485.74a17.246,17.246,0,0,0-.788,7.093c.285,4.5,1.605,18.891,1.605,18.891h2.047l1.576-19.79,2.414,19.79h1.9s1.774-24.053-.227-25.984Z" transform="translate(-445.436 -441.662)"/><path class="q" d="M465.354,411.861s.07,1.168.644,1.576a4,4,0,0,1,1.1,1.481c.239.429,1.225,2.43,1.415,2.715a2.736,2.736,0,0,1,.384,1.931c-.165.908-1.931,5.129-2.051,5.439a22.013,22.013,0,0,0,2.36,3.532s3.2-7.064,3.078-9.355-2.228-3.838-3.611-5.864a1.559,1.559,0,0,1-.4-1.362,2.824,2.824,0,0,0-1.539-2.843c-.949-.367-.466,1.51-.322,1.77s.429,1.477-.524.928C465.548,411.551,465.317,411.551,465.354,411.861Z" transform="translate(-455.191 -396.626)"/><path class="w" d="M452.7,443.7l4.329,1.886s-1.407,3.1-2.051,4.485a17.373,17.373,0,0,0-.747,3.627c.05.883,1.382,9.3-.025,9.821s-8.682.578-9.755.363-.623-7.609-.219-9.829a12.88,12.88,0,0,0,.215-2.2l-.681,1.754-2.637-1.139s.532-5.018,2.55-5.715a26.543,26.543,0,0,1,2.666-.772,5.044,5.044,0,0,1,2.129-.413,4.888,4.888,0,0,1,2.237.359C451.083,446.1,452.007,445.561,452.7,443.7Z" transform="translate(-440.964 -416.969)"/></g></g></svg>