<svg xmlns="http://www.w3.org/2000/svg" width="30" height="30" viewBox="0 0 30 30"><defs><style>.a,.b,.c{fill:none;}.a{stroke:currentColor;}.d,.e{stroke:none;}.e{fill:currentColor;}</style></defs><g transform="translate(-675 -274)"><g transform="translate(466.115 -52.434)"><g transform="translate(217.184 330.934)"><path class="a" d="M-5437.168,13906.528c.431,2.032-.857,2.818-.556,4.175a2.609,2.609,0,0,0,1.847,1.742s2.187.516,3.17-.639.673-3.406.983-4.405.988-1.44,1.7-2.484a4.106,4.106,0,0,0-.356-5.087,5.671,5.671,0,0,0-5.772-2.5,3.864,3.864,0,0,0-3.538,4.251C-5439.393,13903.687-5437.6,13904.5-5437.168,13906.528Z" transform="translate(5440.99 -13892.09)"/><path class="a" d="M-5433.377,13893.382s4-.487,6.884,3.959" transform="translate(5439.85 -13890.874)"/><g class="b" transform="translate(0 0.227) rotate(-3)"><path class="d" d="M2.157,0A2.212,2.212,0,0,1,4.345,2.2a2.144,2.144,0,0,1-2.157,2.17A2.212,2.212,0,0,1,0,2.17,2.144,2.144,0,0,1,2.157,0Z"/><path class="e" d="M 2.144403696060181 0.9999971389770508 C 1.837013721466064 0.9999971389770508 1.549283742904663 1.119297027587891 1.334213733673096 1.33592700958252 C 1.116453647613525 1.555257081985474 0.9977636337280273 1.849047183990479 1.000023603439331 2.163156986236572 C 1.004773616790771 2.82237720489502 1.540413618087769 3.361717224121094 2.19356369972229 3.365427017211914 L 2.2009437084198 3.365457057952881 C 2.508333683013916 3.365457057952881 2.796063661575317 3.246157169342041 3.011133670806885 3.029527187347412 C 3.228893756866455 2.810197114944458 3.347583770751953 2.516407012939453 3.34532356262207 2.202297210693359 C 3.340573787689209 1.543076992034912 2.804933547973633 1.003737211227417 2.15178370475769 1.000027179718018 L 2.144403696060181 0.9999971389770508 M 2.144402503967285 1.430511474609375e-06 C 2.148644208908081 1.430511474609375e-06 2.1527259349823 1.287460327148438e-05 2.156973600387573 3.719329833984375e-05 C 3.356873750686646 0.006866931915283203 4.336613655090332 0.9896371364593506 4.345293521881104 2.195097208023071 C 4.353963851928711 3.400567054748535 3.388293981552124 4.372247219085693 2.188373804092407 4.365417003631592 C 0.988473653793335 4.358587265014648 0.008733749389648438 3.375817060470581 5.388259887695312e-05 2.17035698890686 C -0.008585453033447266 0.9691545963287354 0.9504020214080811 1.430511474609375e-06 2.144402503967285 1.430511474609375e-06 Z"/></g></g></g><rect class="c" width="30" height="30" transform="translate(675 274)"/></g></svg>