<svg xmlns="http://www.w3.org/2000/svg" xmlns:xlink="http://www.w3.org/1999/xlink" width="30" height="30" viewBox="0 0 30 30"><defs><style>.a,.c{fill:none;}.b{clip-path:url(#a);}.c{stroke:currentColor;}.d{clip-path:url(#b);}.e{fill:currentColor;}</style><clipPath id="a"><path class="a" d="M0-.909H18.666V-17H0Z"/></clipPath><clipPath id="b"><path class="a" d="M17.667-1.91v-8.666H12.582A3.294,3.294,0,0,1,9.332-7.39a3.293,3.293,0,0,1-3.248-3.186H1V-1.91H17.667m1,1H0V-11.576H7.236a2.4,2.4,0,0,0-.155.853A2.3,2.3,0,0,0,9.332-8.39a2.3,2.3,0,0,0,2.253-2.333,2.392,2.392,0,0,0-.155-.853h7.237Z"/></clipPath></defs><g transform="translate(-703 -274)"><g transform="translate(327 -433)"><g transform="translate(382.5 714.5)"><path class="c" d="M0,0H17.666V15.091H0Z"/></g><g class="d" transform="translate(382 731)"><path class="e" d="M-1-12.576H19.667V.09H-1Z"/></g><path class="c" d="M-19055.055-21141.887l-.2-2.373,12.486-1.107.314,3.641" transform="translate(19440 21862)"/></g><rect class="a" width="30" height="30" transform="translate(703 274)"/></g></svg>