<svg xmlns="http://www.w3.org/2000/svg" width="30" height="30" viewBox="0 0 30 30"><defs><style>.a,.c{fill:none;}.a{stroke:currentColor;}.b{fill:currentColor;}.d{stroke:none;}</style></defs><g transform="translate(-603 -274)"><g transform="translate(221 -430.5)"><g class="a" transform="translate(389 710.5)"><rect class="d" width="16" height="19"/><rect class="c" x="0.5" y="0.5" width="15" height="18"/></g><line class="a" x2="9" transform="translate(392.5 726.5)"/><path class="b" d="M38,137a3.973,3.973,0,0,1-2.028-.558l-.728.728A5,5,0,0,0,43,133H42A4,4,0,0,1,38,137Zm0-9a5,5,0,0,0-5,5h1a3.992,3.992,0,0,1,6.027-3.441l.729-.728A4.979,4.979,0,0,0,38,128Zm3,5h3l-1.5-2Zm-6,0H32l1.5,2Z" transform="translate(359 585.927)"/></g><rect class="c" width="30" height="30" transform="translate(603 274)"/></g></svg>