<svg xmlns="http://www.w3.org/2000/svg" width="30" height="30" viewBox="0 0 30 30"><defs><style>.a,.c{fill:none;}.b{fill:currentColor;}.d,.e{stroke:none;}.e{fill:currentColor;}</style></defs><g transform="translate(-431 -274)"><g transform="translate(46 20)"><g class="a" transform="translate(392 262.996)"><path class="d" d="M2,1H15V8.431L17,14H0L2,8.431Z"/><path class="e" d="M 3 2.000001907348633 L 3 8.605352401733398 L 1.421267509460449 13.00488185882568 L 15.57873249053955 13.00488185882568 L 14 8.605352401733398 L 14 2.000001907348633 L 3 2.000001907348633 M 2 1.000001907348633 L 15 1.000001907348633 L 15 8.431362152099609 L 17 14.00488185882568 L 0 14.00488185882568 L 2 8.431362152099609 L 2 1.000001907348633 Z"/></g><rect class="b" width="9" height="1" transform="translate(396 278)"/><path class="b" d="M19447,21866h0l-1,0v-.5a2.5,2.5,0,1,0-5,0v.5h-1l0-.5a3.5,3.5,0,1,1,7,0v.5Z" transform="translate(-19043 -21603)"/></g><rect class="c" width="30" height="30" transform="translate(431 274)"/></g></svg>