<svg xmlns="http://www.w3.org/2000/svg" width="30" height="30" viewBox="0 0 30 30"><defs><style>.a,.c,.d{fill:none;}.b{fill:currentColor;}.c{stroke:currentColor;}.e,.f{stroke:none;}.f{fill:currentColor;}</style></defs><g transform="translate(-539 -274)"><g transform="translate(545 281)"><g class="a"><path class="e" d="M0,0H15.122V7.933L7.242,16.5H0Z"/><path class="f" d="M 1.000000953674316 0.9999961853027344 L 1.000000953674316 15.49701690673828 L 6.803507804870605 15.49701690673828 L 14.12226104736328 7.543369293212891 L 14.12226104736328 0.9999961853027344 L 1.000000953674316 0.9999961853027344 M 9.5367431640625e-07 -3.814697265625e-06 L 15.12226104736328 -3.814697265625e-06 L 15.12226104736328 7.933456420898438 L 7.242280960083008 16.49701690673828 L 9.5367431640625e-07 16.49701690673828 L 9.5367431640625e-07 -3.814697265625e-06 Z"/></g><rect class="b" width="8.936" height="1.031" transform="translate(2.75 3.437)"/><rect class="b" width="8.936" height="1.031" transform="translate(2.75 6.186)"/><rect class="b" width="5.499" height="1.031" transform="translate(2.75 8.936)"/><path class="c" d="M5.847,0,.649,5.2,0,7.506l2.477-.588L7.558,1.838Z" transform="translate(10.06 9.001) rotate(-3)"/></g><rect class="d" width="30" height="30" transform="translate(539 274)"/></g></svg>