<svg xmlns="http://www.w3.org/2000/svg" xmlns:xlink="http://www.w3.org/1999/xlink" width="250" height="251" viewBox="0 0 250 251"><defs><style>.a{fill:url(#a);}.b{opacity:0.281;}.c,.d,.e,.f,.h,.j,.k,.l,.m,.n{fill-rule:evenodd;}.c{fill:url(#b);}.d{fill:url(#c);}.e{fill:url(#d);}.f{fill:url(#f);}.g{fill:url(#h);}.h{fill:url(#j);}.i{opacity:0.645;fill:url(#l);}.j{fill:url(#n);}.k{stroke:#f8f8f8;stroke-width:2px;fill:url(#o);}.l{fill:url(#p);}.m{fill:#c3c3c3;}.n{fill:none;stroke:#d1cece;stroke-width:2px;stroke-dasharray:2;}.o{fill:url(#q);}.p{fill:url(#r);}.q{fill:url(#s);}.r{fill:url(#t);}.s{fill:#bfbfbf;}.t{fill:#ccc;}.u{fill:url(#v);}.v{fill:url(#w);}.w{fill:#d4e4fe;}</style><linearGradient id="a" x1="0.5" y1="0.309" x2="0.5" y2="1" gradientUnits="objectBoundingBox"><stop offset="0" stop-color="#fff"/><stop offset="1" stop-color="#f8f8f8"/></linearGradient><linearGradient id="b" x1="0.5" y1="1" x2="0.5" gradientUnits="objectBoundingBox"><stop offset="0" stop-color="#f8f8f8"/><stop offset="1" stop-color="#dbdbdb"/></linearGradient><linearGradient id="c" x1="0.44" y1="0.386" x2="0.588" y2="1" gradientUnits="objectBoundingBox"><stop offset="0" stop-color="#f9f9f9"/><stop offset="1" stop-color="#ebebeb"/></linearGradient><linearGradient id="d" x1="0.255" y1="0.245" x2="0.683" y2="0.571" gradientUnits="objectBoundingBox"><stop offset="0" stop-color="#dfdfdf"/><stop offset="1" stop-color="#f2f2f2"/></linearGradient><linearGradient id="f" x1="0.439" y1="0.386" x2="0.589" xlink:href="#c"/><radialGradient id="h" cx="0.359" cy="0.347" r="1.257" gradientUnits="objectBoundingBox"><stop offset="0" stop-color="#fff"/><stop offset="1" stop-color="#eee"/></radialGradient><linearGradient id="j" x1="0.442" y1="0.386" x2="0.585" xlink:href="#c"/><linearGradient id="l" x1="0.611" y1="0.225" x2="0.882" y2="0.944" gradientUnits="objectBoundingBox"><stop offset="0" stop-color="#eee" stop-opacity="0"/><stop offset="1" stop-color="#d8d8d8"/></linearGradient><linearGradient id="n" x1="0.312" x2="0.312" y2="0.861" gradientUnits="objectBoundingBox"><stop offset="0" stop-color="#f1f1f1"/><stop offset="1" stop-color="#d1d1d1"/></linearGradient><linearGradient id="o" x1="0.963" y1="0.964" x2="0.066" y2="0.109" gradientUnits="objectBoundingBox"><stop offset="0" stop-color="#f2f2f2"/><stop offset="0.527" stop-color="#e9e9e9"/><stop offset="0.529" stop-color="#e6e6e6"/><stop offset="1" stop-color="#e5e5e5"/></linearGradient><linearGradient id="p" x1="0.667" y1="0.285" x2="0.295" y2="0.678" gradientUnits="objectBoundingBox"><stop offset="0" stop-color="#ebebeb"/><stop offset="1" stop-color="#f2f2f2"/></linearGradient><linearGradient id="q" x1="0.5" y1="-0.001" x2="0.5" y2="0.999" gradientUnits="objectBoundingBox"><stop offset="0" stop-color="#f4ae98"/><stop offset="1" stop-color="#fad1bb"/></linearGradient><linearGradient id="r" x1="1" y1="0.5" x2="-0.001" y2="0.5" gradientUnits="objectBoundingBox"><stop offset="0" stop-color="#f4b9a4"/><stop offset="0.652" stop-color="#fad1bb"/></linearGradient><linearGradient id="s" y1="0.5" x2="1" y2="0.5" gradientUnits="objectBoundingBox"><stop offset="0" stop-color="#4f5c7c"/><stop offset="1" stop-color="#274168"/></linearGradient><linearGradient id="t" x1="0.5" y1="0.967" x2="0.5" y2="-0.033" gradientUnits="objectBoundingBox"><stop offset="0" stop-color="#ccc"/><stop offset="1" stop-color="#666"/></linearGradient><linearGradient id="v" x1="0.5" y1="1.001" x2="0.5" y2="0.001" xlink:href="#q"/><linearGradient id="w" x1="177.155" y1="1" x2="177.155" y2="0" xlink:href="#q"/></defs><g transform="translate(-935 -308)"><circle class="a" cx="125" cy="125" r="125" transform="translate(935 309)"/><g class="b" transform="translate(955 366)"><path class="c" d="M21,30.638,42,20V59.362L21,70Z"/><path class="d" d="M0-30.638,21-20V-59.362L0-70Z" transform="translate(21) rotate(180)"/><path class="e" d="M13.154-13.647,33.045-2.54,29.754-25.873,8.955-36.945Z" transform="matrix(-0.574, 0.819, -0.819, -0.574, 16.873, -8.783)"/></g><g class="b" transform="translate(1026 313)"><path class="c" d="M27,38.617,54,25V75.383L27,89Z"/><path class="f" d="M0-38.617,27-25V-75.383L0-89Z" transform="translate(27) rotate(180)"/><path class="e" d="M16.913-17.546,42.487-3.266l-4.231-30L11.513-47.5Z" transform="matrix(-0.574, 0.819, -0.819, -0.574, 21.694, -11.293)"/></g><circle class="g" cx="17" cy="17" r="17" transform="translate(1035 308)"/><g class="b" transform="translate(1128 390)"><path class="c" d="M19,27.787,38,18V54.213L19,64Z"/><path class="h" d="M0-27.787,19-18V-54.213L0-64Z" transform="translate(19) rotate(180)"/><path class="e" d="M11.824-12.481,29.9-2.487,27-23.655,8.1-33.614Z" transform="matrix(-0.574, 0.819, -0.819, -0.574, 15.112, -7.867)"/></g><path class="i" d="M12840.554-8475.734l-22.264-21.351,21.395-4.11,6.608,25.221Z" transform="translate(-11738 8993)"/><g transform="matrix(-0.883, 0.469, -0.469, -0.883, 2132.151, 398.952)"><g transform="translate(923 400)"><path class="c" d="M57,83.362,114,54v64.638L57,148Z"/><path class="j" d="M0-83.362,57-54v-64.638L0-148Z" transform="translate(57) rotate(180)"/><path class="k" d="M88.433-9.3,36.375-38.087l-10.73-60.92L80.091-70.32Z" transform="matrix(-0.574, 0.819, -0.819, -0.574, 45.336, -23.6)"/></g><path class="l" d="M63,112,41,138.638,100,173l20-31.638Z" transform="translate(860 342)"/><path class="m" d="M177,112l16,15.743-16-7.872Z" transform="translate(860 342)"/><path class="n" d="M26.573,36.519c19.026-1.959,29.957-9.9,28.54-24.341C51.217-12.188,18.04-10.1,17.673,2.45s34.9,9.255,17.548-14.8c-1.688-1.876-5.354-4.22-8.649-5.7" transform="translate(1017.017 460.953) rotate(-138)"/></g><g transform="translate(1086.178 461.189)"><path class="o" d="M471.255,440.117l-.721,3.473a.352.352,0,0,0,.189.393,4.966,4.966,0,0,0,1.886.443,3.472,3.472,0,0,0,1.892-.721.359.359,0,0,0,.123-.395l-1.1-3.541a.316.316,0,0,0-.357-.228l-1.653.316A.325.325,0,0,0,471.255,440.117Z" transform="translate(-453.743 -433.665)"/><path class="p" d="M471.9,422.883a.8.8,0,0,0,.086-.651.29.29,0,0,0-.417.057,14.421,14.421,0,0,0-.077-1.886c-.057-.566-.634-1.6-2.515-1.6a2.128,2.128,0,0,0-2.245,1.357,14.967,14.967,0,0,0-.086,2.127.288.288,0,0,0-.412-.053.811.811,0,0,0,.086.651,1.9,1.9,0,0,1,.193.706c.018.189-.118.691.377.627a2.973,2.973,0,0,0,2.234,2.169,2.861,2.861,0,0,0,2.2-2.171c.507.07.368-.436.386-.625A1.824,1.824,0,0,1,471.9,422.883Z" transform="translate(-450.358 -417.477)"/><path class="q" d="M467.456,413.687a1.45,1.45,0,0,0-1.776-.879c-1.408.276-1.5.943-2.055.967-.943.044-1.7,1.219-.487,2.465.539.555.083.792.34,1.283a2.293,2.293,0,0,1,.254.967,4.01,4.01,0,0,0,.154-2.05c-.154-.316.524-.4,1.37-.327s2.175-.2,2.28-.778c.25,1.177.5,1.3.816,1.48s.336,1.6.336,1.6a3.433,3.433,0,0,1,.276-1.283c.182-.386.539-1.905.136-2.272S469.037,413.312,467.456,413.687Z" transform="translate(-447.486 -412.765)"/><path class="r" d="M475.329,510.585c.024.079-.189,4.278.71,6.444s.853,9.709,1.136,11.222,1.184,11.363,1.184,11.363l2.25.053s1.09-9.054,1.09-10.711c0-1.7.4-5.526.539-7.26.138-1.682.136-2.918.373-6.754a8.788,8.788,0,0,0-2.427-6.392Z" transform="translate(-457.488 -487.547)"/><path class="r" d="M460.21,510.585c-.024.079.189,4.278-.71,6.444s-.853,9.709-1.136,11.222-1.184,11.363-1.184,11.363l-2.25.053s-1.09-9.054-1.09-10.711c0-1.7-.441-5.414-.583-7.148-.138-1.682-.27-3.03-.507-6.865a8.591,8.591,0,0,1,2.6-6.392Z" transform="translate(-439.853 -487.547)"/><path class="s" d="M464.326,647.461a.959.959,0,0,0-1.044-.691c-.813.114-1.068.818-1.263.768s-.2-.566-.3-.314a4.487,4.487,0,0,0-.158.787,6.957,6.957,0,0,0,.029,1.1c.064.651,0,1.552.493,1.822a2.373,2.373,0,0,0,2.315.217c.682-.239.616-1.4.531-1.748C464.868,649.126,464.326,647.461,464.326,647.461Z" transform="translate(-446.739 -595.451)"/><path class="t" d="M460.029,457.52s-.215-5.762-3.7-6.109c-1.388-.094-2.107-.132-2.107-.132s-.257,2.057-1.647,1.936-1.465-1.807-1.465-1.807-3.462.015-4.567,1.737-1.454,5.594-1.454,5.594l2.522-1.213L446.4,471.343s10.461-.7,13.005,0L457.7,457.369Z" transform="translate(-433.884 -442.835)"/><path class="u" d="M543.924,460.266a2.875,2.875,0,0,0,.522-.735c.081-.27.371-.371.684-.485s.868-.075,1.377-.259a7.4,7.4,0,0,1,1.59-.585c.175.075.094.5-.164.774a6.456,6.456,0,0,1-1.677,1.118,3.972,3.972,0,0,0-1.465,1.452c-.542.741-1.32-.546-1.32-.546Z" transform="translate(-510.692 -448.233)"/><path class="v" d="M398.25,460.745a2.875,2.875,0,0,1-.522-.735c-.081-.27-.371-.371-.684-.485s-.868-.075-1.377-.259a7.4,7.4,0,0,0-1.59-.585c-.175.075-.094.5.164.774a6.456,6.456,0,0,0,1.677,1.118,3.972,3.972,0,0,1,1.465,1.452c.542.741,1.32-.546,1.32-.546Z" transform="translate(-393.984 -448.608)"/><path class="t" d="M417.659,457.176a24.411,24.411,0,0,0-4.633,6.008c-1.669-1.886-4.434-4.4-4.434-4.4l-.982,1.559s3.519,6.361,5.6,5.96,5.127-3.6,5.519-4.223a4.76,4.76,0,0,0,.171-3.546C418.6,457.327,418.271,456.772,417.659,457.176Z" transform="translate(-404.622 -447.336)"/><path class="t" d="M500.9,456.4a24.41,24.41,0,0,1,4.633,6.008c1.669-1.886,4.434-4.4,4.434-4.4l.982,1.559s-3.519,6.361-5.6,5.96-5.1-3.973-5.484-4.6a4.731,4.731,0,0,1-.206-3.168C499.962,456.55,500.293,456,500.9,456.4Z" transform="translate(-476.361 -446.73)"/><path class="w" d="M461.522,656.75a2.055,2.055,0,0,0,2.083,2.241c.787,0,1.48-.6,1.153-2.228.373,1.193.623,2.535-1.14,2.758C461.928,659.734,461.3,658.046,461.522,656.75Z" transform="translate(-446.68 -603.251)"/><path class="s" d="M485.632,647.461a.96.96,0,0,1,1.044-.691c.814.114,1.068.818,1.263.768s.2-.566.3-.314a4.283,4.283,0,0,1,.158.787,6.957,6.957,0,0,1-.029,1.1c-.064.651,0,1.552-.493,1.822a2.373,2.373,0,0,1-2.315.217c-.682-.239-.616-1.4-.531-1.748C485.09,649.126,485.632,647.461,485.632,647.461Z" transform="translate(-465.021 -595.451)"/><path class="w" d="M488.022,656.75a2.055,2.055,0,0,1-2.083,2.241c-.787,0-1.48-.6-1.153-2.228-.373,1.193-.623,2.535,1.14,2.758C487.616,659.734,488.239,658.046,488.022,656.75Z" transform="translate(-464.666 -603.251)"/></g></g></svg>