<svg xmlns="http://www.w3.org/2000/svg" xmlns:xlink="http://www.w3.org/1999/xlink" width="250" height="251" viewBox="0 0 250 251"><defs><style>.a{fill:url(#a);}.b{opacity:0.281;}.c,.d,.e,.f,.h{fill-rule:evenodd;}.c{fill:url(#b);}.d{fill:url(#c);}.e{fill:url(#d);}.f{fill:url(#f);}.g{fill:url(#h);}.h{fill:url(#j);}.i{opacity:0.645;fill:url(#l);}.j{fill:url(#m);}.k{fill:url(#n);}.l{fill:url(#o);}.m{fill:#fff;}.n{fill:url(#q);}.o{fill:#ffbe92;}.p{fill:#171c61;}.q{fill:url(#r);}.r{fill:#bfbfbf;}.s{fill:#e6e8e8;}.t{fill:url(#s);}.u{fill:#ccc;}</style><linearGradient id="a" x1="0.5" y1="0.309" x2="0.5" y2="1" gradientUnits="objectBoundingBox"><stop offset="0" stop-color="#fff"/><stop offset="1" stop-color="#f8f8f8"/></linearGradient><linearGradient id="b" x1="0.5" y1="1" x2="0.5" gradientUnits="objectBoundingBox"><stop offset="0" stop-color="#f8f8f8"/><stop offset="1" stop-color="#dbdbdb"/></linearGradient><linearGradient id="c" x1="0.44" y1="0.386" x2="0.588" y2="1" gradientUnits="objectBoundingBox"><stop offset="0" stop-color="#f9f9f9"/><stop offset="1" stop-color="#ebebeb"/></linearGradient><linearGradient id="d" x1="0.255" y1="0.245" x2="0.683" y2="0.571" gradientUnits="objectBoundingBox"><stop offset="0" stop-color="#dfdfdf"/><stop offset="1" stop-color="#f2f2f2"/></linearGradient><linearGradient id="f" x1="0.439" y1="0.386" x2="0.589" xlink:href="#c"/><radialGradient id="h" cx="0.359" cy="0.347" r="1.257" gradientUnits="objectBoundingBox"><stop offset="0" stop-color="#fff"/><stop offset="1" stop-color="#eee"/></radialGradient><linearGradient id="j" x1="0.442" y1="0.386" x2="0.585" xlink:href="#c"/><linearGradient id="l" x1="0.338" y1="0.533" x2="0.045" y2="-0.048" gradientUnits="objectBoundingBox"><stop offset="0" stop-color="#eee" stop-opacity="0"/><stop offset="1" stop-color="#d8d8d8"/></linearGradient><linearGradient id="m" x1="0.5" y1="1" x2="0.5" gradientUnits="objectBoundingBox"><stop offset="0" stop-color="#f0f0f0"/><stop offset="1" stop-color="#dbdbdb"/></linearGradient><linearGradient id="n" x1="1.04" y1="0.488" x2="0.041" y2="0.486" gradientUnits="objectBoundingBox"><stop offset="0" stop-color="#e4e5e6"/><stop offset="1" stop-color="#fff"/></linearGradient><linearGradient id="o" x1="0.5" y1="1" x2="0.5" gradientUnits="objectBoundingBox"><stop offset="0" stop-color="#f8f9fa"/><stop offset="1" stop-color="#dbdbdb"/></linearGradient><linearGradient id="q" x1="0.5" y1="1" x2="0.5" gradientUnits="objectBoundingBox"><stop offset="0" stop-color="#f0f0f0"/><stop offset="1" stop-color="#ccc"/></linearGradient><linearGradient id="r" y1="0.5" x2="1" y2="0.5" gradientUnits="objectBoundingBox"><stop offset="0" stop-color="#f7fafb"/><stop offset="1" stop-color="#cfdbea"/></linearGradient><linearGradient id="s" x1="0.5" y1="0.967" x2="0.5" y2="-0.033" gradientUnits="objectBoundingBox"><stop offset="0" stop-color="#ccc"/><stop offset="1" stop-color="#666"/></linearGradient></defs><g transform="translate(-935 -308)"><circle class="a" cx="125" cy="125" r="125" transform="translate(935 309)"/><g class="b" transform="translate(955 366)"><path class="c" d="M21,30.638,42,20V59.362L21,70Z"/><path class="d" d="M0-30.638,21-20V-59.362L0-70Z" transform="translate(21) rotate(180)"/><path class="e" d="M13.154-13.647,33.045-2.54,29.754-25.873,8.955-36.945Z" transform="matrix(-0.574, 0.819, -0.819, -0.574, 16.873, -8.783)"/></g><g class="b" transform="translate(1026 313)"><path class="c" d="M27,38.617,54,25V75.383L27,89Z"/><path class="f" d="M0-38.617,27-25V-75.383L0-89Z" transform="translate(27) rotate(180)"/><path class="e" d="M16.913-17.546,42.487-3.266l-4.231-30L11.513-47.5Z" transform="matrix(-0.574, 0.819, -0.819, -0.574, 21.694, -11.293)"/></g><circle class="g" cx="17" cy="17" r="17" transform="translate(1035 308)"/><g class="b" transform="translate(1128 390)"><path class="c" d="M19,27.787,38,18V54.213L19,64Z"/><path class="h" d="M0-27.787,19-18V-54.213L0-64Z" transform="translate(19) rotate(180)"/><path class="e" d="M11.824-12.481,29.9-2.487,27-23.655,8.1-33.614Z" transform="matrix(-0.574, 0.819, -0.819, -0.574, 15.112, -7.867)"/></g><path class="i" d="M350.268,518.1l56.093,31.747L315.87,567.3,273.18,517.19Z" transform="translate(728.955 -12.409)"/><g transform="translate(-229.985)"><path class="j" d="M254.08,303.669H380.451V256.9l-54.992-36.96a14.589,14.589,0,0,0-16.39,0L254.08,256.9Z" transform="translate(972.72 176.627)"/><path class="k" d="M380.307,313.77l-86.753,22.662a6.434,6.434,0,0,1-7.82-4.931L271.9,276.864a7.679,7.679,0,0,1,5.426-9.012l85.763-22.245c3.462-.9,8.038,1.242,8.9,4.869l13.035,55.092A6.808,6.808,0,0,1,380.307,313.77Z" transform="translate(962.358 160.195)"/><path class="l" d="M379.962,317.643l-86.53,22.609a6.426,6.426,0,0,1-7.8-4.935L272.507,279.87a6.794,6.794,0,0,1,4.7-8.2l86.53-22.609a6.426,6.426,0,0,1,7.8,4.935l13.122,55.446A6.8,6.8,0,0,1,379.962,317.643Z" transform="translate(962.01 158.163)"/><path class="m" d="M329.512,335.21l-18.433,3.66-1.869-10.386,18.433-3.664Z" transform="translate(940.339 113.547)"/><path class="m" d="M394.62,344.92,319.9,361.751l-1.143-5.6,74.717-16.836Z" transform="translate(934.73 105.03)"/><path class="j" d="M371.963,385.011H262.568a8.712,8.712,0,0,1-8.488-8.917V313.1l63.183,56.057L380.451,313.1v62.994A8.712,8.712,0,0,1,371.963,385.011Z" transform="translate(972.72 120.431)"/><path class="n" d="M266.914,428.581h109.4a8.216,8.216,0,0,0,5.439-2.071l-55.665-37.843a7.9,7.9,0,0,0-8.942,0L261.48,426.51A8.2,8.2,0,0,0,266.914,428.581Z" transform="translate(968.374 76.86)"/><g transform="translate(1303.819 460.691)"><path class="o" d="M454.885,435.715l-.966.392a3.1,3.1,0,0,0-.2,1.807,5.71,5.71,0,0,0,.933,2.158,11.743,11.743,0,0,1,.054,2.191h2.558l.107-2.435a6.164,6.164,0,0,0,.767-1.23c.19-.5.574-1.325.442-1.717A3.261,3.261,0,0,0,454.885,435.715Z" transform="translate(-448.34 -412.162)"/><path class="p" d="M455.75,432.282s.413-.747.739-.342.532.607.908.52,1.114-.008.85.681-.012.751.091.937c.062.116.516.5.21,1s-.726.309-.652.776a.971.971,0,0,1-.376,1.023.393.393,0,0,0-.153.536.4.4,0,0,1-.557.437,1.59,1.59,0,0,0-1.213-.066c-.359.161-1.836.256-1.523-.4.289-.6-.111-.726-.38-.994a1.222,1.222,0,0,1-.342-1.193,1.5,1.5,0,0,0-.124-1.292c-.33-.408.239-1.527.615-1.486S454.735,431.39,455.75,432.282Z" transform="translate(-448.013 -409.991)"/><ellipse class="q" cx="5.265" cy="5.265" rx="5.265" ry="5.265" transform="translate(1.494 0.825)"/><path class="r" d="M455.835,397.571l-3.887-7.531a6.054,6.054,0,1,0-1.741.879l3.9,7.543a.979.979,0,0,0,.867.528,1.011,1.011,0,0,0,.446-.107A.973.973,0,0,0,455.835,397.571Zm-12.3-12.511a4.84,4.84,0,1,1,4.84,4.84A4.845,4.845,0,0,1,443.53,385.06Z" transform="translate(-441.611 -378.92)"/><path class="o" d="M440.927,459.9s-.978,4.176,1.407,4.485,3.986-5.583,3.986-5.583V456.13l-4.366.933Z" transform="translate(-440.729 -424.27)"/><path class="r" d="M465.479,538.487s-1.7-.5-1.729,1.027a14.186,14.186,0,0,1,.569,2.5,2.075,2.075,0,0,0,1.923,1.861c1.325.177,1.915-.862,1.457-2.319S467.084,538.764,465.479,538.487Z" transform="translate(-454.251 -472.597)"/><path class="s" d="M463.763,540.28a8.19,8.19,0,0,0,.4,1.527,6.255,6.255,0,0,1,.433,1.337,1.741,1.741,0,0,0,1.877,1.514c.957-.037,1.353-.5,1.349-.9a1.068,1.068,0,0,1-1.366,1.32,1.921,1.921,0,0,1-2.17-1.638,8.752,8.752,0,0,0-.219-1.349C463.953,541.757,463.569,540.684,463.763,540.28Z" transform="translate(-454.227 -473.697)"/><path class="r" d="M451.483,538.666s-2.063-.454-2.063,1.015c.095,1.3.314,1.882.3,2.525a2.078,2.078,0,0,0,1.923,1.861c1.325.177,1.915-.862,1.457-2.319S453.084,538.942,451.483,538.666Z" transform="translate(-445.834 -472.71)"/><path class="s" d="M449.587,539.52s-.359.516.029,1.927c.132.421.231.9.33,1.329a1.741,1.741,0,0,0,1.877,1.514c.957-.037,1.353-.5,1.349-.9a1.373,1.373,0,0,1-.124.862,1.651,1.651,0,0,1-1.238.458,1.921,1.921,0,0,1-2.171-1.638,8.744,8.744,0,0,0-.219-1.349C449.307,541.389,449.15,539.825,449.587,539.52Z" transform="translate(-445.762 -473.25)"/><path class="t" d="M449.58,485.74a17.246,17.246,0,0,0-.788,7.093c.285,4.5,1.605,18.891,1.605,18.891h2.047l1.576-19.79,2.414,19.79h1.9s1.774-24.053-.227-25.984Z" transform="translate(-445.436 -441.662)"/><path class="o" d="M465.354,411.861s.07,1.168.644,1.576a4,4,0,0,1,1.1,1.481c.239.429,1.225,2.43,1.415,2.715a2.736,2.736,0,0,1,.384,1.931c-.165.908-1.931,5.129-2.051,5.439a22.013,22.013,0,0,0,2.36,3.532s3.2-7.064,3.078-9.355-2.228-3.838-3.611-5.864a1.559,1.559,0,0,1-.4-1.362,2.824,2.824,0,0,0-1.539-2.843c-.949-.367-.466,1.51-.322,1.77s.429,1.477-.524.928C465.548,411.551,465.317,411.551,465.354,411.861Z" transform="translate(-455.191 -396.626)"/><path class="u" d="M452.7,443.7l4.329,1.886s-1.407,3.1-2.051,4.485a17.373,17.373,0,0,0-.747,3.627c.05.883,1.382,9.3-.025,9.821s-8.682.578-9.755.363-.623-7.609-.219-9.829a12.88,12.88,0,0,0,.215-2.2l-.681,1.754-2.637-1.139s.532-5.018,2.55-5.715a26.543,26.543,0,0,1,2.666-.772,5.044,5.044,0,0,1,2.129-.413,4.888,4.888,0,0,1,2.237.359C451.083,446.1,452.007,445.561,452.7,443.7Z" transform="translate(-440.964 -416.969)"/></g></g></g></svg>