<svg xmlns="http://www.w3.org/2000/svg" xmlns:xlink="http://www.w3.org/1999/xlink" width="250" height="251" viewBox="0 0 250 251"><defs><style>.a{fill:url(#a);}.b{opacity:0.281;}.c,.d,.e,.f,.h,.l,.m,.o{fill-rule:evenodd;}.c{fill:url(#b);}.d{fill:url(#c);}.e{fill:url(#d);}.f{fill:url(#f);}.g{fill:url(#h);}.h{fill:url(#j);}.i{opacity:0.645;fill:url(#l);}.j{fill:url(#m);}.k{fill:#fff;}.l{fill:url(#n);}.m{fill:url(#o);}.n{fill:#d8d8d8;}.o{fill:none;stroke:#d1cece;stroke-width:2px;stroke-dasharray:2;}.p{fill:#c60727;}.q{fill:#bfbfbf;}.r{fill:url(#p);}.s{fill:#ccc;}.t{fill:url(#q);}.u{fill:url(#r);}.v{fill:#ffbe92;}.w{fill:#171c61;}.x{fill:url(#s);}</style><linearGradient id="a" x1="0.5" y1="0.309" x2="0.5" y2="1" gradientUnits="objectBoundingBox"><stop offset="0" stop-color="#fff"/><stop offset="1" stop-color="#f8f8f8"/></linearGradient><linearGradient id="b" x1="0.5" y1="1" x2="0.5" gradientUnits="objectBoundingBox"><stop offset="0" stop-color="#f8f8f8"/><stop offset="1" stop-color="#dbdbdb"/></linearGradient><linearGradient id="c" x1="0.44" y1="0.386" x2="0.588" y2="1" gradientUnits="objectBoundingBox"><stop offset="0" stop-color="#f9f9f9"/><stop offset="1" stop-color="#ebebeb"/></linearGradient><linearGradient id="d" x1="0.255" y1="0.245" x2="0.683" y2="0.571" gradientUnits="objectBoundingBox"><stop offset="0" stop-color="#dfdfdf"/><stop offset="1" stop-color="#f2f2f2"/></linearGradient><linearGradient id="f" x1="0.439" y1="0.386" x2="0.589" xlink:href="#c"/><radialGradient id="h" cx="0.359" cy="0.347" r="1.257" gradientUnits="objectBoundingBox"><stop offset="0" stop-color="#fff"/><stop offset="1" stop-color="#eee"/></radialGradient><linearGradient id="j" x1="0.442" y1="0.386" x2="0.585" xlink:href="#c"/><linearGradient id="l" x1="0.745" y1="-0.264" x2="0.889" y2="0.924" gradientUnits="objectBoundingBox"><stop offset="0" stop-color="#eee" stop-opacity="0"/><stop offset="1" stop-color="#d8d8d8"/></linearGradient><linearGradient id="m" x1="1" y1="0.378" x2="0" y2="0.378" gradientUnits="objectBoundingBox"><stop offset="0" stop-color="#eee"/><stop offset="1" stop-color="#d8d8d8"/></linearGradient><linearGradient id="n" x1="0.415" x2="0.415" y2="1" gradientUnits="objectBoundingBox"><stop offset="0" stop-color="#f9f9f9"/><stop offset="1" stop-color="#e6e6e6"/></linearGradient><linearGradient id="o" x1="0.079" y1="1" x2="1.111" y2="-0.161" xlink:href="#m"/><linearGradient id="p" x1="-31.77" y1="24.102" x2="-31.77" y2="22.927" gradientUnits="objectBoundingBox"><stop offset="0" stop-color="#f4b9a4"/><stop offset="0.652" stop-color="#fad1bb"/></linearGradient><linearGradient id="q" x1="-16.755" y1="12.866" x2="-15.921" y2="12.866" gradientUnits="objectBoundingBox"><stop offset="0" stop-color="#4f5c7c"/><stop offset="1" stop-color="#274168"/></linearGradient><linearGradient id="r" x1="-16.185" y1="15.606" x2="-15.394" y2="15.606" gradientUnits="objectBoundingBox"><stop offset="0" stop-color="#18264b"/><stop offset="0.652" stop-color="#2d3c65"/></linearGradient><linearGradient id="s" x1="0.5" y1="0.967" x2="0.5" y2="-0.033" gradientUnits="objectBoundingBox"><stop offset="0" stop-color="#ccc"/><stop offset="1" stop-color="#666"/></linearGradient></defs><g transform="translate(-935 -308)"><circle class="a" cx="125" cy="125" r="125" transform="translate(935 309)"/><g class="b" transform="translate(955 366)"><path class="c" d="M21,30.638,42,20V59.362L21,70Z"/><path class="d" d="M0-30.638,21-20V-59.362L0-70Z" transform="translate(21) rotate(180)"/><path class="e" d="M13.154-13.647,33.045-2.54,29.754-25.873,8.955-36.945Z" transform="matrix(-0.574, 0.819, -0.819, -0.574, 16.873, -8.783)"/></g><g class="b" transform="translate(1026 313)"><path class="c" d="M27,38.617,54,25V75.383L27,89Z"/><path class="f" d="M0-38.617,27-25V-75.383L0-89Z" transform="translate(27) rotate(180)"/><path class="e" d="M16.913-17.546,42.487-3.266l-4.231-30L11.513-47.5Z" transform="matrix(-0.574, 0.819, -0.819, -0.574, 21.694, -11.293)"/></g><circle class="g" cx="17" cy="17" r="17" transform="translate(1035 308)"/><g class="b" transform="translate(1128 390)"><path class="c" d="M19,27.787,38,18V54.213L19,64Z"/><path class="h" d="M0-27.787,19-18V-54.213L0-64Z" transform="translate(19) rotate(180)"/><path class="e" d="M11.824-12.481,29.9-2.487,27-23.655,8.1-33.614Z" transform="matrix(-0.574, 0.819, -0.819, -0.574, 15.112, -7.867)"/></g><path class="i" d="M-15621.177,9036.605l-25.353-17.956h-48.968L-15721,8994h82.456l25.5,24.65h-18.95l25.35,17.956Z" transform="translate(16672.002 -8519.898)"/><g transform="translate(1000.328 386.594)"><rect class="j" width="14.536" height="55.903" transform="translate(51.642 74.21)"/><rect class="k" width="3.06" height="26.777" transform="translate(29.073)"/><path class="l" d="M36.057,21.6H80.43a35.957,35.957,0,0,1,35.957,35.957V77.448H.1V57.557C.1,37.7,3.025,21.6,36.057,21.6Z" transform="translate(-0.099 -3.239)"/><path class="m" d="M102.229,21.6a25.629,25.629,0,0,1,25.629,25.629V77.448H76.6V47.229A25.629,25.629,0,0,1,102.229,21.6Z" transform="translate(-11.57 -3.239)"/><rect class="n" width="116.287" height="2.295" transform="translate(0.001 73.444)"/><path class="o" d="M20.135,53.361Q0,50.489,0,29.56C0,8.631,24.328,10.289,29.722,19.924s-27.1,8.52-14.861-15.006A16.521,16.521,0,0,1,20.135,0" transform="translate(83.104 58.586) rotate(-97)"/><path class="p" d="M8.026,16.151,10.3,13.086,8.026,12.44v3.711ZM0,8.938l6.455,1.93,7.95-6.663L8.244,11.383l6.9,2.1L18.7,0,0,8.938Z" transform="translate(119.677 16.176) rotate(-27)"/></g><g transform="translate(660.583 183.276)"><path class="q" d="M467.43,445.118s.709,2.088,5.6,3.725a2.541,2.541,0,0,0,3.026-.93c.257-.782-.292-1.877-1.8-2.428S468.629,443.831,467.43,445.118Z" transform="translate(-53.335 -111.403)"/><path class="q" d="M515.694,453.65s.572,1.216,2.532.922a12.835,12.835,0,0,0,2.763,2.033,1.12,1.12,0,0,1,.465,1.56c-1.12-.409-4.465-1.083-6.543-2.426C515.427,454.246,515.694,453.65,515.694,453.65Z" transform="translate(-91.693 -118.78)"/><path class="k" d="M513.47,464.432l.25-.632a28.887,28.887,0,0,0,6.895,2.109,4.781,4.781,0,0,0-.027.53A33.92,33.92,0,0,1,513.47,464.432Z" transform="translate(-90.53 -126.98)"/><path class="r" d="M464.255,385.6a14.321,14.321,0,0,1,1.495-1.406c.375-.221,1.629-.653,1.979-.2a1.428,1.428,0,0,1,.252,1.395c-.188.217-3.114,1.814-3.114,1.814l-.826-.922Z" transform="translate(-50.596 -62.347)"/><path class="s" d="M438.757,395.866s3.4.036,4.762-.636c.415,1.4.634,2.346.634,2.346s-3.32,2.138-5.314,1.379-1.591-1.9-1.591-1.9Z" transform="translate(-28.925 -71.583)"/><path class="t" d="M469.91,373.058l.319-.008.125,1.7-6.964,4.591-.79-1.522.109-.35Z" transform="translate(-49.432 -53.664)"/><path class="u" d="M468.236,371l.288.394-7.631,4.772-.4-.457Z" transform="translate(-47.728 -52.008)"/><path class="v" d="M473.8,388.418c-.194-.259-.7-1.195-.451-1.42s.92.772.92.772-.417-.976-.085-1.064.5.409.611.659c.177.4.142.9.336.661s.029-.244-.038-.505-.407-1.222-.175-1.385.526.371.7,1.03.6-.555.619-.849.075-.574.244-.576.327.413.042,1.4-1.485,2.284-1.925,2.213S473.8,388.418,473.8,388.418Z" transform="translate(-58.064 -63.916)"/><path class="v" d="M435.966,319.853s-.926,2.361-2.7,2.8c-.2.056-.39.025-.736-.373s-.77.547-1.128,1.114-2.1-1.675-2.075-1.7,2.217-2.263,2.909-3.114S435.966,319.853,435.966,319.853Z" transform="translate(-22.553 -9.492)"/><path class="w" d="M441.318,307.923s-.567-1.495-1.708-.822c-1.258-1.072-2.4-.161-2.561,1.049a1.434,1.434,0,0,1-.549.7c-.257.223-1.387,1.354.077,2.924.484.488,1.268-.113,1.354-.726s.694-1.093.772-.419-.131.653-.05.715.446-.213.592-.717.373-.7.628.013,2.186,2.467,3.723.79S443.762,307.852,441.318,307.923Z" transform="translate(-27.815 0)"/><path class="x" d="M436.346,421.43s8.858,1.16,9.7,2.953-.9,3.185-3.915,3.335a19.29,19.29,0,0,1-1.842-.926l.524-.33a18.048,18.048,0,0,1-10.055-.549C430.335,423.643,436.346,421.43,436.346,421.43Z" transform="translate(-23.692 -92.75)"/><path class="x" d="M408.163,393.639s6.868,1.754,10.62-.432c3.886-2.263,5.214-3.335,6.58-2.774,2.125.874,6.539,13.05,6.539,13.05l-2.9-.113s-4.232-5.489-4.949-7.829c-1.4,1.79-6.326,5.9-9.108,5.863C405.965,401.3,408.163,393.639,408.163,393.639Z" transform="translate(-5.262 -67.588)"/><path class="s" d="M406.889,330.73a23.932,23.932,0,0,0,2.643,2.326,8.312,8.312,0,0,1-.451,1.009,22.69,22.69,0,0,1,.355,5.979,5.378,5.378,0,0,0,1.721,4.593s-5.389,3.685-7.779,6.81c-3.654-10.766-1.815-17.609,2.232-19.534A1.968,1.968,0,0,1,406.889,330.73Z" transform="translate(0 -19.474)"/><path class="s" d="M473.323,443.018c.4-.492,1.1-.413,1.75.192s2.157.59,3.133,1.06,2.106,1.057,1.643,2.034-1.7,1.026-3.447.167a16.185,16.185,0,0,1-2.864-1.727A1.062,1.062,0,0,1,473.323,443.018Z" transform="translate(-57.814 -109.93)"/><path class="v" d="M450.08,374.537a7.254,7.254,0,0,0,1.873-.98c.231-.35.54-1.975,1.012-2.388s1.139-.926,1.5-.84a3.965,3.965,0,0,1,.886.277c.063.065.317.279.282.4s-.119.194-.227.173a1.827,1.827,0,0,0-.426-.061,1.746,1.746,0,0,0,.382.945c.161.1.378.281.181.553s-.636.29-.874.653-.519,1.164-.861,1.383-1.341.6-1.666.761-.987.609-.987.609Z" transform="translate(-39.318 -51.458)"/><path class="s" d="M410.152,348.759c1.218.012,3.208,1.22,2,5.341-.617,2.107-1.032,3.366-1.032,3.366a28.11,28.11,0,0,0,5.329-.987,18.061,18.061,0,0,1,1.264,1.45s-6.645,5.406-9.079,4.069c-2.034-1.118-1.8-6.611-1.514-8.7S407.618,348.736,410.152,348.759Z" transform="translate(-4.46 -34.04)"/></g></g></svg>