<svg xmlns="http://www.w3.org/2000/svg" width="30" height="30" viewBox="0 0 30 30"><defs><style>.a,.b,.c{fill:none;}.b{stroke:currentColor;}.d,.e{stroke:none;}.e{fill:currentColor;}</style></defs><g transform="translate(-640 -274)"><g transform="translate(645 279)"><g class="a"><path class="d" d="M10,0l3.5,5.99L20,7.639,15.663,12.99,16.18,20,10,17.317,3.82,20l.517-7.01L0,7.639,6.5,5.99Z"/><path class="e" d="M 10 1.98228645324707 L 7.152039527893066 6.856748580932617 L 1.761226654052734 8.224225044250488 L 5.363340377807617 12.66877937316895 L 4.938672065734863 18.42397880554199 L 10 16.22653961181641 L 15.06132888793945 18.42397880554199 L 14.63665962219238 12.66877937316895 L 18.23877334594727 8.224225044250488 L 12.84795951843262 6.856748580932617 L 10 1.98228645324707 M 10 -1.9073486328125e-06 L 13.5 5.990479469299316 L 20 7.63931941986084 L 15.66312026977539 12.990478515625 L 16.18033981323242 20 L 10 17.31671905517578 L 3.819660186767578 20 L 4.336879730224609 12.990478515625 L 0 7.63931941986084 L 6.5 5.990479469299316 L 10 -1.9073486328125e-06 Z"/></g><path class="b" d="M-5613.553,13899.739l3.776-.92,1.651-2.857" transform="translate(5618.282 -13890.507)"/></g><rect class="c" width="30" height="30" transform="translate(640 274)"/></g></svg>