<svg xmlns="http://www.w3.org/2000/svg" width="24" height="24" viewBox="0 0 24 24">
  <defs>
    <style>
      .cls-1 {
        fill: rgba(255,255,255,0);
      }
    </style>
  </defs>
  <g id="待处理订单" transform="translate(-108 -20)">
    <rect id="矩形_2" data-name="矩形 2" class="cls-1" width="24" height="24" transform="translate(108 20)"/>
    <rect id="矩形_1" data-name="矩形 1" class="cls-1" width="20" height="20" transform="translate(110 22)"/>
    <path id="减去_5" data-name="减去 5" d="M-57.005-36.369h-13.99A1.465,1.465,0,0,1-72.5-37.786V-52.177a1.465,1.465,0,0,1,1.506-1.417h2.832A2.1,2.1,0,0,1-66.132-55h4.306A2.1,2.1,0,0,1-59.8-53.594H-57a1.554,1.554,0,0,1,1.1.447,1.361,1.361,0,0,1,.406.969v14.392A1.464,1.464,0,0,1-57.005-36.369ZM-64-51.385a6.007,6.007,0,0,0-6,6,6.007,6.007,0,0,0,6,6,6.006,6.006,0,0,0,6-6A6.007,6.007,0,0,0-64-51.385Zm0,10.6a4.605,4.605,0,0,1-4.6-4.6,4.606,4.606,0,0,1,4.6-4.6,4.606,4.606,0,0,1,4.6,4.6A4.605,4.605,0,0,1-64-40.784ZM-64-49a.7.7,0,0,0-.7.7v2.921a.7.7,0,0,0,.7.7h2.92a.7.7,0,0,0,.7-.7.7.7,0,0,0-.7-.7H-63.3V-48.3A.7.7,0,0,0-64-49Z" transform="translate(184 77.685)"/>
  </g>
</svg>
