<svg xmlns="http://www.w3.org/2000/svg" width="24" height="24" viewBox="0 0 24 24">
  <defs>
    <style>
      .cls-1 {
        fill: rgba(255,255,255,0);
      }
    </style>
  </defs>
  <g id="用户管理" transform="translate(-152 -64)">
    <rect id="矩形_2" data-name="矩形 2" class="cls-1" width="24" height="24" transform="translate(152 64)"/>
    <rect id="矩形_1" data-name="矩形 1" class="cls-1" width="20" height="20" transform="translate(154 66)"/>
    <g id="组_5" data-name="组 5" transform="translate(0 -0.5)">
      <path id="路径_14" data-name="路径 14" d="M292.407,84.022a5.072,5.072,0,0,0,7.131,0,4.97,4.97,0,0,0,0-7.071,5.072,5.072,0,0,0-7.131,0A4.97,4.97,0,0,0,292.407,84.022Z" transform="translate(-131.972 -9.486)"/>
      <path id="减去_12" data-name="减去 12" d="M-60.913-44.055h-9.1a2.639,2.639,0,0,1-2.6-2.667v-2.284a4.5,4.5,0,0,1,4.441-4.549h6.548l-1.823.987A2,2,0,0,0-64.5-50.809v3.617a2,2,0,0,0,1.048,1.759l2.54,1.376Z" transform="translate(227.81 130.055)"/>
      <path id="减去_13" data-name="减去 13" d="M-68-46.294a2,2,0,0,1-.98-.257l-2-1.125A2,2,0,0,1-72-49.42v-2.16a2,2,0,0,1,1.02-1.743l2-1.125a2,2,0,0,1,.98-.257,2,2,0,0,1,.981.257l2,1.125A2,2,0,0,1-64-51.58v2.16a2,2,0,0,1-1.02,1.743l-2,1.125A2,2,0,0,1-68-46.294ZM-68-52a1.5,1.5,0,0,0-1.5,1.5A1.5,1.5,0,0,0-68-49a1.5,1.5,0,0,0,1.5-1.5A1.5,1.5,0,0,0-68-52Z" transform="translate(236.81 131.555)"/>
    </g>
  </g>
</svg>
