<svg xmlns="http://www.w3.org/2000/svg" width="24" height="24" viewBox="0 0 24 24">
  <defs>
    <style>
      .cls-1 {
        fill: rgba(255,255,255,0);
      }
    </style>
  </defs>
  <g id="客户详情" transform="translate(-240 -64)">
    <rect id="矩形_2" data-name="矩形 2" class="cls-1" width="24" height="24" transform="translate(240 64)"/>
    <rect id="矩形_1" data-name="矩形 1" class="cls-1" width="20" height="20" transform="translate(242 66)"/>
    <path id="路径_14" data-name="路径 14" d="M292.407,84.022a5.072,5.072,0,0,0,7.131,0,4.97,4.97,0,0,0,0-7.071,5.072,5.072,0,0,0-7.131,0A4.97,4.97,0,0,0,292.407,84.022Z" transform="translate(-43.972 -9.986)"/>
    <path id="减去_15" data-name="减去 15" d="M-64.191-45.5h-5.2A2.639,2.639,0,0,1-72-48.167v-2.284A4.5,4.5,0,0,1-67.559-55h8.353a4.468,4.468,0,0,1,4.177,3h-7.162a2,2,0,0,0-2,2v4.5Z" transform="translate(315.19 131)"/>
    <rect id="矩形_71" data-name="矩形 71" width="1.5" height="8" rx="0.75" transform="translate(260.542 81) rotate(90)"/>
    <rect id="矩形_72" data-name="矩形 72" width="1.5" height="6" rx="0.75" transform="translate(258.542 84) rotate(90)"/>
  </g>
</svg>
