<svg xmlns="http://www.w3.org/2000/svg" width="24" height="24" viewBox="0 0 24 24">
  <defs>
    <style>
      .cls-1 {
        fill: rgba(255,255,255,0);
      }
    </style>
  </defs>
  <g id="组_9" data-name="组 9" transform="translate(-64 -152)">
    <rect id="矩形_2" data-name="矩形 2" class="cls-1" width="24" height="24" transform="translate(64 152)"/>
    <rect id="矩形_1" data-name="矩形 1" class="cls-1" width="20" height="20" transform="translate(66 154)"/>
    <path id="路径_32" data-name="路径 32" d="M71.66,162.909H88.029a1.793,1.793,0,0,1,1.263.474,1.573,1.573,0,0,1,.526,1.105v3.158h-20v-3.158A1.723,1.723,0,0,1,71.66,162.909Zm-1.842,6.316h20v7.895a1.481,1.481,0,0,1-.526,1.105,1.793,1.793,0,0,1-1.263.474H71.66a1.689,1.689,0,0,1-1.842-1.579Zm11.526,5.789v1.579h1.842v-1.579Zm2.421,0v1.579h1.842v-1.579Zm2.421,0v1.579h1.842v-1.579Zm0,0" transform="translate(-3.818 -6.804)"/>
  </g>
</svg>
