<svg xmlns="http://www.w3.org/2000/svg" width="24" height="24" viewBox="0 0 24 24">
  <defs>
    <style>
      .cls-1 {
        fill: rgba(255,255,255,0);
      }
    </style>
  </defs>
  <g id="售后订单" transform="translate(-152 -20)">
    <rect id="矩形_2" data-name="矩形 2" class="cls-1" width="24" height="24" transform="translate(152 20)"/>
    <rect id="矩形_1" data-name="矩形 1" class="cls-1" width="20" height="20" transform="translate(154 22)"/>
    <path id="减去_4" data-name="减去 4" d="M-56.506-36.369H-70.5A1.464,1.464,0,0,1-72-37.786V-52.177a1.464,1.464,0,0,1,1.5-1.417h2.833A2.1,2.1,0,0,1-65.633-55h4.307a2.1,2.1,0,0,1,2.03,1.406H-56.5a1.555,1.555,0,0,1,1.1.447,1.363,1.363,0,0,1,.407.97v14.392A1.465,1.465,0,0,1-56.506-36.369Zm-11.4-7.512a.751.751,0,0,0-.75.751.751.751,0,0,0,.75.75h6.832l-1.277,1.2a.725.725,0,0,0-.233.531.725.725,0,0,0,.233.531.82.82,0,0,0,.563.22.821.821,0,0,0,.564-.22l2.538-2.39a.749.749,0,0,0,.332-.622.751.751,0,0,0-.75-.751Zm2.684-5.993a.815.815,0,0,0-.563.22l-2.54,2.39a.751.751,0,0,0-.331.623.751.751,0,0,0,.75.751h8.8a.751.751,0,0,0,.75-.751.751.751,0,0,0-.75-.75h-6.833l1.278-1.2a.723.723,0,0,0,.234-.53.723.723,0,0,0-.234-.53A.817.817,0,0,0-65.217-49.874Z" transform="translate(227.5 77.685)"/>
  </g>
</svg>
