<svg xmlns="http://www.w3.org/2000/svg" width="24" height="24" viewBox="0 0 24 24">
  <defs>
    <style>
      .cls-1 {
        fill: rgba(255,255,255,0);
      }
    </style>
  </defs>
  <g id="运营计划" transform="translate(-372 -64)">
    <rect id="矩形_2" data-name="矩形 2" class="cls-1" width="24" height="24" transform="translate(372 64)"/>
    <rect id="矩形_1" data-name="矩形 1" class="cls-1" width="20" height="20" transform="translate(374 66)"/>
    <path id="减去_21" data-name="减去 21" d="M-55.5-37.5h-15A1.5,1.5,0,0,1-72-39V-52a1.5,1.5,0,0,1,1.5-1.5H-67v-.751a.751.751,0,0,1,.75-.75.751.751,0,0,1,.75.75v.751h5v-.751a.751.751,0,0,1,.75-.75.751.751,0,0,1,.75.75v.751h3.5A1.5,1.5,0,0,1-54-52v13A1.5,1.5,0,0,1-55.5-37.5ZM-65.749-43a.751.751,0,0,0-.751.75.751.751,0,0,0,.751.75h3.5a.751.751,0,0,0,.75-.75.751.751,0,0,0-.75-.75Zm-3,0a.751.751,0,0,0-.75.75.751.751,0,0,0,.75.75h.5a.751.751,0,0,0,.75-.75.751.751,0,0,0-.75-.75Zm3-3.5a.751.751,0,0,0-.751.75.751.751,0,0,0,.751.75h8.5a.751.751,0,0,0,.75-.75.751.751,0,0,0-.75-.75Zm-3,0a.751.751,0,0,0-.75.75.751.751,0,0,0,.75.75h.5a.751.751,0,0,0,.75-.75.751.751,0,0,0-.75-.75Zm3-3.5a.751.751,0,0,0-.751.75.751.751,0,0,0,.751.751h8.5a.751.751,0,0,0,.75-.751.751.751,0,0,0-.75-.75Zm-3,0a.751.751,0,0,0-.75.75.751.751,0,0,0,.75.751h.5a.751.751,0,0,0,.75-.751.751.751,0,0,0-.75-.75Z" transform="translate(447 121.75)"/>
  </g>
</svg>
