<svg xmlns="http://www.w3.org/2000/svg" width="24" height="24" viewBox="0 0 24 24">
  <defs>
    <style>
      .cls-1 {
        fill: rgba(255,255,255,0);
      }
    </style>
  </defs>
  <g id="物流设置" transform="translate(-372 -108)">
    <rect id="矩形_2" data-name="矩形 2" class="cls-1" width="24" height="24" transform="translate(372 108)"/>
    <rect id="矩形_1" data-name="矩形 1" class="cls-1" width="20" height="20" transform="translate(374 110)"/>
    <path id="路径_29" data-name="路径 29" d="M86.03,155.312h-.867a3.09,3.09,0,0,0-6.12,0h-4.4a3.09,3.09,0,0,0-6.12,0H66.772a.873.873,0,0,1-.872-.872V141.372a.875.875,0,0,1,.872-.872H79.045a.873.873,0,0,1,.872.872v2.614h3.055c.642,0,.912.392,1.309.872l1.951,3.469a3.712,3.712,0,0,1,.667,1.76v4.357A.867.867,0,0,1,86.03,155.312Zm-.928-5.967-1.838-3.41s-.2-.207-.336-.207H80.792v4.357H85.44A1.609,1.609,0,0,0,85.1,149.344ZM71.576,153.57a2.179,2.179,0,1,1-2.183,2.179A2.181,2.181,0,0,1,71.576,153.57Zm10.525,0a2.179,2.179,0,1,1-2.183,2.179A2.181,2.181,0,0,1,82.1,153.57Z" transform="translate(307.6 -28.799)"/>
  </g>
</svg>
