<svg xmlns="http://www.w3.org/2000/svg" width="24" height="24" viewBox="0 0 24 24">
  <defs>
    <style>
      .cls-1 {
        fill: rgba(255,255,255,0);
      }
    </style>
  </defs>
  <g id="客服管理" transform="translate(-416 -152)">
    <rect id="矩形_2" data-name="矩形 2" class="cls-1" width="24" height="24" transform="translate(416 152)"/>
    <rect id="矩形_1" data-name="矩形 1" class="cls-1" width="20" height="20" transform="translate(418 154)"/>
    <path id="减去_33" data-name="减去 33" d="M-63-37a9.009,9.009,0,0,1-4.436-1.167L-70.7-37.031a.611.611,0,0,1-.193.031.516.516,0,0,1-.393-.173.616.616,0,0,1-.081-.629l1.063-2.936A8.939,8.939,0,0,1-72-46a9.01,9.01,0,0,1,9-9,9.01,9.01,0,0,1,9,9A9.01,9.01,0,0,1-63-37Zm-2.669-7a.749.749,0,0,0-.423.13.746.746,0,0,0-.314.482.742.742,0,0,0,.118.56,3.968,3.968,0,0,0,3.251,1.722,4.216,4.216,0,0,0,3.308-1.7.743.743,0,0,0,.139-.556.744.744,0,0,0-.3-.492A.743.743,0,0,0-60.332-44a.754.754,0,0,0-.6.3,2.684,2.684,0,0,1-2.108,1.09,2.457,2.457,0,0,1-2.006-1.067A.748.748,0,0,0-65.669-44Z" transform="translate(491 210)"/>
  </g>
</svg>
