<svg xmlns="http://www.w3.org/2000/svg" width="24" height="24" viewBox="0 0 24 24">
  <defs>
    <style>
      .cls-1 {
        fill: rgba(255,255,255,0);
      }
    </style>
  </defs>
  <g id="店铺" transform="translate(-152 -108)">
    <rect id="矩形_2" data-name="矩形 2" class="cls-1" width="24" height="24" transform="translate(152 108)"/>
    <rect id="矩形_1" data-name="矩形 1" class="cls-1" width="20" height="20" transform="translate(154 110)"/>
    <path id="减去_24" data-name="减去 24" d="M-56.569-36.779H-69.436a1.8,1.8,0,0,1-1.749-1.85l0-4.1a.705.705,0,0,1,.684-.724.97.97,0,0,1,.152.02.1.1,0,0,0,.048.023.257.257,0,0,1,.048.018.065.065,0,0,1,.028.01.065.065,0,0,0,.028.01,4.043,4.043,0,0,0,1.616.362,4.275,4.275,0,0,0,2.87-1.066,4.164,4.164,0,0,0,2.851,1.006A4.316,4.316,0,0,0-60.026-44.2a3.975,3.975,0,0,0,2.7,1.005h.1a4.01,4.01,0,0,0,1.53-.3.526.526,0,0,1,.191-.041.706.706,0,0,1,.684.724l0,4.182A1.8,1.8,0,0,1-56.569-36.779Zm-.806-7.42a3.59,3.59,0,0,1-2.831-1.4A3.552,3.552,0,0,1-63-44.2a3.572,3.572,0,0,1-2.812-1.4,3.594,3.594,0,0,1-2.831,1.4,3.492,3.492,0,0,1-1.744-.442A3.412,3.412,0,0,1-72-47.974a4.036,4.036,0,0,1,.187-1.244.258.258,0,0,1,.012-.068.146.146,0,0,0,.007-.032l1.35-4.317A1.9,1.9,0,0,1-68.531-55h11.1a2.016,2.016,0,0,1,1.988,1.4l1.219,4.216a.3.3,0,0,1,.037.121v.04A3.762,3.762,0,0,1-54-47.994a3.518,3.518,0,0,1-1.594,3.352A3.619,3.619,0,0,1-57.375-44.2Zm-9.612-8.747a.751.751,0,0,0-.75.75.751.751,0,0,0,.75.75h7.974a.751.751,0,0,0,.75-.75.751.751,0,0,0-.75-.75Z" transform="translate(227 165.89)"/>
  </g>
</svg>
