<svg xmlns="http://www.w3.org/2000/svg" width="24" height="24" viewBox="0 0 24 24">
  <defs>
    <style>
      .cls-1 {
        fill: rgba(255,255,255,0);
      }
    </style>
  </defs>
  <g id="添加运营计划" transform="translate(-416 -64)">
    <rect id="矩形_2" data-name="矩形 2" class="cls-1" width="24" height="24" transform="translate(416 64)"/>
    <rect id="矩形_1" data-name="矩形 1" class="cls-1" width="20" height="20" transform="translate(418 66)"/>
    <path id="减去_22" data-name="减去 22" d="M-55.5-37.5h-15A1.5,1.5,0,0,1-72-39V-52a1.5,1.5,0,0,1,1.5-1.5H-67v-.751a.751.751,0,0,1,.75-.75.751.751,0,0,1,.75.75v.751h5v-.751a.751.751,0,0,1,.75-.75.751.751,0,0,1,.75.75v.751h3.5A1.5,1.5,0,0,1-54-52v13A1.5,1.5,0,0,1-55.5-37.5Zm-10.75-9a.751.751,0,0,0-.75.75.751.751,0,0,0,.75.751h2.5v2.5a.751.751,0,0,0,.75.751.751.751,0,0,0,.751-.751V-45h2.5a.751.751,0,0,0,.75-.751.751.751,0,0,0-.75-.75h-2.5V-49A.751.751,0,0,0-63-49.75a.751.751,0,0,0-.75.75v2.5Z" transform="translate(491 121.75)"/>
  </g>
</svg>
