<svg xmlns="http://www.w3.org/2000/svg" width="24" height="24" viewBox="0 0 24 24">
  <defs>
    <style>
      .cls-1 {
        fill: rgba(255,255,255,0);
      }
    </style>
  </defs>
  <g id="拼团" transform="translate(-284 -20)">
    <rect id="矩形_63" data-name="矩形 63" class="cls-1" width="24" height="24" transform="translate(284 20)"/>
    <rect id="矩形_62" data-name="矩形 62" class="cls-1" width="20" height="20" transform="translate(286 22)"/>
    <path id="减去_9" data-name="减去 9" d="M-67.837-37.375a.64.64,0,0,1-.524-.272.637.637,0,0,1-.075-.589A8.384,8.384,0,0,1-65-42a6.752,6.752,0,0,1-3.172-2.457,6.749,6.749,0,0,1-1.227-3.82,6.786,6.786,0,0,1,2.035-4.762A6.782,6.782,0,0,1-62.575-55h.176a6.784,6.784,0,0,1,4.787,1.962,6.785,6.785,0,0,1,2.036,4.763,6.752,6.752,0,0,1-1.23,3.821A6.748,6.748,0,0,1-59.982-42a8.337,8.337,0,0,1,3.437,3.749.63.63,0,0,1-.06.6.627.627,0,0,1-.52.275H-67.837Zm2.668-9.348a.75.75,0,0,0-.423.131.746.746,0,0,0-.314.482.742.742,0,0,0,.118.56,3.967,3.967,0,0,0,3.25,1.722,4.217,4.217,0,0,0,3.309-1.7.744.744,0,0,0,.137-.556.745.745,0,0,0-.3-.491.743.743,0,0,0-.445-.147.753.753,0,0,0-.6.3,2.684,2.684,0,0,1-2.108,1.09A2.454,2.454,0,0,1-64.549-46.4.748.748,0,0,0-65.168-46.723Zm-4.67,8.806h-1.545a.458.458,0,0,1-.379-.207.46.46,0,0,1-.041-.43,6.028,6.028,0,0,1,2.4-2.718,4.89,4.89,0,0,1-3.047-3.892,4.891,4.891,0,0,1,1.908-4.56,7.161,7.161,0,0,0-.149,1.478,7,7,0,0,0,1,3.755,10.772,10.772,0,0,0,2.682,2.814,9.028,9.028,0,0,0-2.576,3.37l-.062.094c-.068.1-.132.2-.189.3Zm16.185-.02h-1.559L-55.25-38c-.056-.094-.119-.2-.179-.283a8.946,8.946,0,0,0-2.6-3.424c2.437-2.037,3.674-3.607,3.674-6.541a7.361,7.361,0,0,0-.156-1.478,4.9,4.9,0,0,1,1.91,4.553,4.9,4.9,0,0,1-3.028,3.9,5.986,5.986,0,0,1,2.386,2.718.461.461,0,0,1-.049.41A.465.465,0,0,1-53.654-37.938Z" transform="translate(358.5 77.724)"/>
  </g>
</svg>
