<svg xmlns="http://www.w3.org/2000/svg" width="90" height="90" viewBox="0 0 90 90"><defs><style>.a{fill:rgba(255,255,255,0);}.b{fill:currentColor;}.c,.d{fill:#fff;stroke-width:3px;}.c{stroke:#fff;}.d,.e{stroke:currentColor;}.e,.g{fill:none;}.e{stroke-width:2.5px;}.f{stroke:none;}</style></defs><g transform="translate(-668 -390)"><rect class="a" width="90" height="90" transform="translate(668 390)"/><g transform="translate(590.156 262.695)"><path class="b" d="M279.641,169.718a23.426,23.426,0,0,0,1.8-9.014,22.526,22.526,0,0,0-45.051,0c0,9.2,6.555,18.955,14.752,21.394l.391.136-.848,2.829-4.665,15.775-2.9-.78,4.471-16.619a25.478,25.478,0,1,1,34.957-13.168,18.72,18.72,0,0,0-2.906-.552Z" transform="translate(-134.595 0)"/><path class="b" d="M809.7,274.731a18.778,18.778,0,0,0-2.029-2.444,17.927,17.927,0,0,0-5.534-26.817v-3.465a21.021,21.021,0,0,1,7.563,32.726Z" transform="translate(-651.254 -97.081)"/><path class="b" d="M97.819,246.056a17.947,17.947,0,0,0-9.364,15.762v.426a17.947,17.947,0,0,0,9.364,15.762v3.5A21.059,21.059,0,0,1,85.334,262.28v-.5a21.059,21.059,0,0,1,12.485-19.228v3.5Z" transform="translate(0 -97.577)"/><path class="b" d="M142.4,639.207l4.443-16.581,3.014.808-4.441,16.581Z" transform="translate(-50.98 -442.981)"/></g><g transform="translate(-65.188 10.692)"><path class="c" d="M16.68,0A16.759,16.759,0,0,1,32.917,12.844a16.189,16.189,0,0,1,.443,3.836A16.68,16.68,0,1,1,16.68,0Z" transform="translate(779.692 424.947)"/><g class="d" transform="translate(781 426.255)"><circle class="f" cx="15.5" cy="15.5" r="15.5"/><circle class="g" cx="15.5" cy="15.5" r="14"/></g></g><path class="e" d="M0,7.935,7.936,0l5.538,5.308" transform="translate(738.477 456.074) rotate(180)"/></g></svg>