<svg xmlns="http://www.w3.org/2000/svg" width="18" height="19.517" viewBox="0 0 18 19.517"><defs><style>.a{fill:#333;}</style></defs><g transform="translate(-391 -259.983)"><path class="a" d="M204.647,170.354v-2.365a7.023,7.023,0,0,0-4.161-6.288,7.036,7.036,0,0,0,4.161-6.288v-2.365H189.375v2.365a7.023,7.023,0,0,0,4.161,6.288,7.036,7.036,0,0,0-4.161,6.288v2.365ZM191.072,168a5.537,5.537,0,0,1,3.22-4.883,1.475,1.475,0,0,0,.93-1.417,1.647,1.647,0,0,0-.93-1.417,5.517,5.517,0,0,1-3.22-4.883v-2.354h11.879v2.365a5.537,5.537,0,0,1-3.22,4.883,1.475,1.475,0,0,0-.93,1.417,1.647,1.647,0,0,0,.93,1.417,5.517,5.517,0,0,1,3.22,4.883v2.365H191.072V168Z" transform="translate(203.182 107.685)"/><path class="a" d="M382.777,379.521a12.827,12.827,0,0,1-1.7-1.011l-.174-.232-.174.151a5.432,5.432,0,0,1-1.7,1.011,4.087,4.087,0,0,0-2.371,3.591v.779h8.485v-.779A3.882,3.882,0,0,0,382.777,379.521Zm-1.871-4.219.256-.232a7.965,7.965,0,0,1,1.7-1.093A3.349,3.349,0,0,0,384.3,372.8h-6.788a5.277,5.277,0,0,0,1.441,1.174,7.968,7.968,0,0,1,1.7,1.093Z" transform="translate(19.287 -107.456)"/><rect class="a" width="18" height="1.5" transform="translate(391 278)"/><rect class="a" width="18" height="1.5" transform="translate(391 259.983)"/></g></svg>