<svg xmlns="http://www.w3.org/2000/svg" width="90" height="90" viewBox="0 0 90 90"><defs><style>.a{fill:rgba(243,244,245,0);}.b,.d,.f,.h{fill:none;}.b,.d,.e,.f{stroke:currentColor;}.b{stroke-linejoin:round;}.b,.c,.d,.e{stroke-width:3px;}.c,.e{fill:#fff;}.c{stroke:#fff;}.f{stroke-width:2.5px;}.g{stroke:none;}</style></defs><g transform="translate(-1163 -390)"><rect class="a" width="90" height="90" transform="translate(1163 390)"/><g class="b" transform="translate(1176 399)"><rect class="g" width="61" height="63"/><rect class="h" x="-1.5" y="-1.5" width="64" height="66"/></g><path class="c" d="M16.68,0A16.759,16.759,0,0,1,32.917,12.844a16.189,16.189,0,0,1,.443,3.836A16.68,16.68,0,1,1,16.68,0Z" transform="translate(1209.692 436.692)"/><line class="d" x2="28.704" transform="translate(1191.648 419.5)"/><line class="d" y2="23.352" transform="translate(1206 418.148)"/><line class="d" x2="28.704" transform="translate(1191.648 429.5)"/><line class="d" x2="11.485" y2="13.293" transform="translate(1194.136 406.207)"/><line class="d" x1="11.485" y2="13.293" transform="translate(1206.379 406.207)"/><g class="e" transform="translate(1211 438)"><circle class="g" cx="15.5" cy="15.5" r="15.5"/><circle class="h" cx="15.5" cy="15.5" r="14"/></g><path class="f" d="M0,7.935,7.936,0l5.538,5.308" transform="translate(1233.664 457.127) rotate(180)"/></g></svg>