<svg xmlns="http://www.w3.org/2000/svg" width="24" height="24" viewBox="0 0 24 24">
  <defs>
    <style>
      .cls-1 {
        fill: rgba(255,255,255,0);
      }
    </style>
  </defs>
  <g id="新增拼团" transform="translate(-328 -20)">
    <rect id="矩形_2" data-name="矩形 2" class="cls-1" width="24" height="24" transform="translate(328 20)"/>
    <rect id="矩形_1" data-name="矩形 1" class="cls-1" width="20" height="20" transform="translate(330 22)"/>
    <path id="联合_10" data-name="联合 10" d="M-70.5-37.854a1.5,1.5,0,0,1-1.5-1.5v-3.6a2.32,2.32,0,0,0,2.317-2.317A2.32,2.32,0,0,0-72-47.586v-3.6a1.5,1.5,0,0,1,1.5-1.5h4.524A2.317,2.317,0,0,1-63.659-55a2.317,2.317,0,0,1,2.318,2.317h4.524a1.5,1.5,0,0,1,1.5,1.5v3.6A2.317,2.317,0,0,1-53-45.268a2.316,2.316,0,0,1-2.317,2.317,2.344,2.344,0,0,1-.283-.017,2.328,2.328,0,0,0,.283.017v3.6a1.5,1.5,0,0,1-1.5,1.5Zm12.866-7.415h0a2.337,2.337,0,0,1,.019-.294A2.326,2.326,0,0,0-57.634-45.269Zm.019-.294v0Z" transform="translate(403 77.9)"/>
  </g>
</svg>
