<svg xmlns="http://www.w3.org/2000/svg" width="24" height="24" viewBox="0 0 24 24">
  <defs>
    <style>
      .cls-1 {
        fill: rgba(255,255,255,0);
      }
    </style>
  </defs>
  <g id="优惠券管理" transform="translate(-240 -20)">
    <rect id="矩形_2" data-name="矩形 2" class="cls-1" width="24" height="24" transform="translate(240 20)"/>
    <rect id="矩形_1" data-name="矩形 1" class="cls-1" width="20" height="20" transform="translate(242 22)"/>
    <path id="减去_8" data-name="减去 8" d="M-55.5-39h-15A1.5,1.5,0,0,1-72-40.5v-4a2.488,2.488,0,0,0,1.767-.734A2.482,2.482,0,0,0-69.5-47,2.5,2.5,0,0,0-72-49.5v-4A1.5,1.5,0,0,1-70.5-55h15A1.5,1.5,0,0,1-54-53.5v4a2.486,2.486,0,0,0-1.767.734A2.483,2.483,0,0,0-56.5-47,2.5,2.5,0,0,0-54-44.5v4A1.5,1.5,0,0,1-55.5-39Zm-10.75-7a.751.751,0,0,0-.75.75.751.751,0,0,0,.75.75h6.5a.751.751,0,0,0,.75-.75.751.751,0,0,0-.75-.75Zm0-3.5a.751.751,0,0,0-.75.75.751.751,0,0,0,.75.751h6.5A.751.751,0,0,0-59-48.75a.751.751,0,0,0-.75-.75Z" transform="translate(315 79)"/>
  </g>
</svg>
