<svg xmlns="http://www.w3.org/2000/svg" width="24" height="24" viewBox="0 0 24 24">
  <defs>
    <style>
      .cls-1 {
        fill: rgba(255,255,255,0);
      }
    </style>
  </defs>
  <g id="财务明细" transform="translate(-20 -152)">
    <rect id="矩形_2" data-name="矩形 2" class="cls-1" width="24" height="24" transform="translate(20 152)"/>
    <rect id="矩形_1" data-name="矩形 1" class="cls-1" width="20" height="20" transform="translate(22 154)"/>
    <path id="减去_29" data-name="减去 29" d="M-56.506-36.369H-70.5A1.464,1.464,0,0,1-72-37.786V-52.177a1.464,1.464,0,0,1,1.5-1.417h2.833A2.1,2.1,0,0,1-65.633-55h4.307A2.1,2.1,0,0,1-59.3-53.594H-56.5a1.555,1.555,0,0,1,1.1.447,1.363,1.363,0,0,1,.407.97v14.392A1.465,1.465,0,0,1-56.506-36.369Zm-11.558-5.816a.751.751,0,0,0-.75.751.751.751,0,0,0,.75.75h9.125a.751.751,0,0,0,.751-.75.751.751,0,0,0-.751-.751Zm2.795-6.785a.734.734,0,0,0-.522.217L-68.7-45.847a.741.741,0,0,0,0,1.046.738.738,0,0,0,.523.217.736.736,0,0,0,.524-.217l2.327-2.326,1.506,1.843a.745.745,0,0,0,.535.271h.035a.746.746,0,0,0,.524-.216l2.948-2.937v.4a.741.741,0,0,0,.74.74.74.74,0,0,0,.739-.74V-49.76a.74.74,0,0,0-.739-.74h-2.194a.741.741,0,0,0-.74.74.741.741,0,0,0,.74.74h.215l-2.174,2.166L-64.7-48.7a.744.744,0,0,0-.535-.271Z" transform="translate(95.5 209.685)"/>
  </g>
</svg>
