<svg xmlns="http://www.w3.org/2000/svg" width="24" height="24" viewBox="0 0 24 24">
  <defs>
    <style>
      .cls-1 {
        fill: rgba(255,255,255,0);
      }
    </style>
  </defs>
  <g id="店铺设置" transform="translate(-328 -108)">
    <rect id="矩形_2" data-name="矩形 2" class="cls-1" width="24" height="24" transform="translate(328 108)"/>
    <rect id="矩形_1" data-name="矩形 1" class="cls-1" width="20" height="20" transform="translate(330 110)"/>
    <path id="减去_28" data-name="减去 28" d="M-58.185-36.779H-69.436a1.8,1.8,0,0,1-1.749-1.85l0-4.1a.705.705,0,0,1,.684-.724.97.97,0,0,1,.152.02.1.1,0,0,0,.048.023.257.257,0,0,1,.048.018.065.065,0,0,1,.028.01.065.065,0,0,0,.028.01,4.043,4.043,0,0,0,1.616.362,4.275,4.275,0,0,0,2.87-1.066,4.164,4.164,0,0,0,2.851,1.006,4.328,4.328,0,0,0,.78-.085v3.078a2,2,0,0,0,1.047,1.759l2.846,1.541ZM-63-44.2a3.572,3.572,0,0,1-2.812-1.4,3.594,3.594,0,0,1-2.831,1.4,3.492,3.492,0,0,1-1.744-.442A3.412,3.412,0,0,1-72-47.974a4.036,4.036,0,0,1,.187-1.244.258.258,0,0,1,.012-.068.146.146,0,0,0,.007-.032l1.35-4.317A1.9,1.9,0,0,1-68.531-55h11.1a2.016,2.016,0,0,1,1.988,1.4l1.219,4.216a.3.3,0,0,1,.037.121v.04A3.762,3.762,0,0,1-54-47.994a5.6,5.6,0,0,1-.155,1.4l-1.431-.775a2,2,0,0,0-.953-.242,2,2,0,0,0-.953.242l-3.539,1.916a2,2,0,0,0-.934,1.1A3.421,3.421,0,0,1-63-44.2Z" transform="translate(403 165.89)"/>
    <path id="减去_13" data-name="减去 13" d="M-67.8-45.86a2.008,2.008,0,0,1-.981-.256l-2.2-1.238A2,2,0,0,1-72-49.1v-2.386a2,2,0,0,1,1.02-1.743l2.2-1.238a2.008,2.008,0,0,1,.981-.256,2,2,0,0,1,.98.256l2.2,1.238a2,2,0,0,1,1.02,1.743V-49.1a2,2,0,0,1-1.02,1.743l-2.2,1.238A2,2,0,0,1-67.8-45.86Zm0-6.006a1.577,1.577,0,0,0-1.575,1.575A1.577,1.577,0,0,0-67.8-48.715a1.577,1.577,0,0,0,1.575-1.575A1.577,1.577,0,0,0-67.8-51.865Z" transform="translate(414.1 174.32)"/>
  </g>
</svg>
