<svg xmlns="http://www.w3.org/2000/svg" width="24" height="24" viewBox="0 0 24 24">
  <defs>
    <style>
      .cls-1 {
        fill: rgba(255,255,255,0);
      }
    </style>
  </defs>
  <g id="保证金" transform="translate(-108 -152)">
    <rect id="矩形_2" data-name="矩形 2" class="cls-1" width="24" height="24" transform="translate(108 152)"/>
    <rect id="矩形_1" data-name="矩形 1" class="cls-1" width="20" height="20" transform="translate(110 154)"/>
    <path id="减去_30" data-name="减去 30" d="M-63-34.434c-1.32,0-3.565-1.008-5.459-2.451A11.762,11.762,0,0,1-70.953-39.4,5.084,5.084,0,0,1-72-42.282v-9.08c0-1.3,1.016-1.3,2-1.3h.028A9.38,9.38,0,0,0-63.7-54.607,1.106,1.106,0,0,1-62.97-55a.888.888,0,0,1,.586.307c.034.031.066.061.1.086,1.45,1.335,3.389,1.935,6.286,1.944h.012c.932,0,1.988.006,1.988,1.3v9.084C-54-39.249-60.458-34.434-63-34.434ZM-66.251-44a.751.751,0,0,0-.75.75.751.751,0,0,0,.75.75h2.5v2a.751.751,0,0,0,.75.751.751.751,0,0,0,.751-.751v-2h2.5a.751.751,0,0,0,.75-.75.751.751,0,0,0-.75-.75h-2.5v-1h2.5a.751.751,0,0,0,.75-.75.751.751,0,0,0-.75-.75h-1.677l1.9-1.9a.753.753,0,0,0,0-1.061.747.747,0,0,0-.531-.219.747.747,0,0,0-.531.219L-63-47.052l-2.409-2.409a.747.747,0,0,0-.531-.219.747.747,0,0,0-.531.219.753.753,0,0,0,0,1.061l1.9,1.9h-1.677a.751.751,0,0,0-.75.75.751.751,0,0,0,.75.75h2.5v1Z" transform="translate(183 208)"/>
  </g>
</svg>
