<svg xmlns="http://www.w3.org/2000/svg" width="24" height="24" viewBox="0 0 24 24">
  <defs>
    <style>
      .cls-1 {
        fill: rgba(255,255,255,0);
      }
    </style>
  </defs>
  <g id="财务" transform="translate(-416 -108)">
    <rect id="矩形_2" data-name="矩形 2" class="cls-1" width="24" height="24" transform="translate(416 108)"/>
    <rect id="矩形_1" data-name="矩形 1" class="cls-1" width="20" height="20" transform="translate(418 110)"/>
    <path id="减去_31" data-name="减去 31" d="M-56.48-36.332H-69.52a2.342,2.342,0,0,1-1.754-.849A2.878,2.878,0,0,1-72-39.051a25.424,25.424,0,0,1,1.315-5.162,11.452,11.452,0,0,1,2.021-3.549A4.325,4.325,0,0,1-65.4-49.374h4.784a4.261,4.261,0,0,1,3.144,1.48,10.717,10.717,0,0,1,2,3.322,25.422,25.422,0,0,1,1.457,5.456c.008.052.01.064.011.065a2.879,2.879,0,0,1-.726,1.869A2.342,2.342,0,0,1-56.48-36.332Zm-9.77-5.657a.751.751,0,0,0-.75.75.751.751,0,0,0,.75.75h2.5v2a.751.751,0,0,0,.75.751.751.751,0,0,0,.751-.751v-2h2.5a.751.751,0,0,0,.75-.75.751.751,0,0,0-.75-.75h-2.5v-1h2.5a.751.751,0,0,0,.75-.75.751.751,0,0,0-.75-.75h-1.677l1.9-1.9a.753.753,0,0,0,0-1.061.747.747,0,0,0-.531-.219.747.747,0,0,0-.531.219L-63-45.038l-2.409-2.409a.747.747,0,0,0-.531-.219.747.747,0,0,0-.531.219.753.753,0,0,0,0,1.061l1.9,1.9h-1.677a.751.751,0,0,0-.75.75.751.751,0,0,0,.75.75h2.5v1Zm5.385-8.323H-65.4c-1.391,0-2.471-2.991-2.482-3.021,0-.715.134-1.666,1.3-1.666a2.639,2.639,0,0,1,.357.026,4.6,4.6,0,0,1,1.632.594,3.079,3.079,0,0,0,1.5.484,2.2,2.2,0,0,0,1.245-.481,2.85,2.85,0,0,1,1.7-.6l.108,0a1.741,1.741,0,0,1,1.413.5,1.888,1.888,0,0,1,.239,1.139C-58.4-53.3-59.483-50.313-60.866-50.313Z" transform="translate(491 165.666)"/>
  </g>
</svg>
