<svg xmlns="http://www.w3.org/2000/svg" width="24" height="24" viewBox="0 0 24 24">
  <defs>
    <style>
      .cls-1 {
        fill: rgba(255,255,255,0);
      }
    </style>
  </defs>
  <g id="限时折扣" transform="translate(-416 -20)">
    <rect id="矩形_2" data-name="矩形 2" class="cls-1" width="24" height="24" transform="translate(416 20)"/>
    <rect id="矩形_1" data-name="矩形 1" class="cls-1" width="20" height="20" transform="translate(418 22)"/>
    <path id="路径_12" data-name="路径 12" d="M220.914,243.443a1.308,1.308,0,0,0,1.828.071,1.293,1.293,0,0,0-.071-1.828,1.308,1.308,0,0,0-1.828-.071A1.292,1.292,0,0,0,220.914,243.443Zm8.144-.373a3.283,3.283,0,0,1,.745,2.005l-.124,9.363a1.238,1.238,0,0,1-1.189,1.189l-6.459.071h-1.26a1.238,1.238,0,0,1-1.189-1.189l.071-.386,6.282-6.28a4.008,4.008,0,0,0,1.313-3.07l-.2-3.708Zm-9.529-4.754,4.773.5a1.471,1.471,0,0,1,1.313,1.313l.32,4.577a2.771,2.771,0,0,1-.87,2.005l-7.4,7.4a1.031,1.031,0,0,1-1.562-.071l-5.891-5.891a1.006,1.006,0,0,1-.071-1.561l7.4-7.4A2.389,2.389,0,0,1,219.53,238.316Z" transform="translate(208.196 -214.995)"/>
  </g>
</svg>
