<svg xmlns="http://www.w3.org/2000/svg" width="24" height="24" viewBox="0 0 24 24">
  <defs>
    <style>
      .cls-1 {
        fill: rgba(255,255,255,0);
      }
    </style>
  </defs>
  <g id="标签管理" transform="translate(-284 -64)">
    <rect id="矩形_2" data-name="矩形 2" class="cls-1" width="24" height="24" transform="translate(284 64)"/>
    <rect id="矩形_1" data-name="矩形 1" class="cls-1" width="20" height="20" transform="translate(286 66)"/>
    <path id="减去_16" data-name="减去 16" d="M-70.083-36h0A1.462,1.462,0,0,1-71.5-37.5v-16A1.462,1.462,0,0,1-70.083-55h14.166A1.462,1.462,0,0,1-54.5-53.5v16A1.462,1.462,0,0,1-55.917-36l-7.1-4-7.064,4ZM-63-44.528a.5.5,0,0,1,.2.041l1.515.658a.5.5,0,0,0,.2.042.5.5,0,0,0,.368-.162.494.494,0,0,0,.131-.377l-.131-1.781a.5.5,0,0,1,.111-.352l1.118-1.379a.5.5,0,0,0,.086-.473.5.5,0,0,0-.351-.327l-1.64-.416a.5.5,0,0,1-.309-.232l-.862-1.476A.5.5,0,0,0-63-51.009a.5.5,0,0,0-.432.248l-.862,1.476a.5.5,0,0,1-.309.232l-1.64.416a.5.5,0,0,0-.351.327.5.5,0,0,0,.086.473l1.118,1.379a.5.5,0,0,1,.111.352l-.131,1.781a.493.493,0,0,0,.131.376.5.5,0,0,0,.367.162.5.5,0,0,0,.2-.042l1.515-.658A.5.5,0,0,1-63-44.528Z" transform="translate(359 121.5)"/>
  </g>
</svg>
