<svg xmlns="http://www.w3.org/2000/svg" width="24" height="24" viewBox="0 0 24 24">
  <defs>
    <style>
      .cls-1 {
        fill: rgba(255,255,255,0);
      }
    </style>
  </defs>
  <g id="商品" transform="translate(-64 -108)">
    <rect id="矩形_2" data-name="矩形 2" class="cls-1" width="24" height="24" transform="translate(64 108)"/>
    <rect id="矩形_1" data-name="矩形 1" class="cls-1" width="20" height="20" transform="translate(66 110)"/>
    <path id="减去_23" data-name="减去 23" d="M-55.5-36.5h-15A1.5,1.5,0,0,1-72-38l1-16a1.5,1.5,0,0,1,1.5-1.5h13A1.5,1.5,0,0,1-55-54l1,16A1.5,1.5,0,0,1-55.5-36.5ZM-65.669-50a.752.752,0,0,0-.423.13.746.746,0,0,0-.314.482.742.742,0,0,0,.118.56,3.969,3.969,0,0,0,3.251,1.723,4.219,4.219,0,0,0,3.308-1.7.743.743,0,0,0,.139-.557.747.747,0,0,0-.3-.492A.744.744,0,0,0-60.331-50a.755.755,0,0,0-.6.3,2.686,2.686,0,0,1-2.108,1.09,2.458,2.458,0,0,1-2.006-1.067A.748.748,0,0,0-65.669-50Z" transform="translate(139 166)"/>
  </g>
</svg>
