<svg xmlns="http://www.w3.org/2000/svg" width="24" height="24" viewBox="0 0 24 24">
  <defs>
    <style>
      .cls-1 {
        fill: rgba(255,255,255,0);
      }
    </style>
  </defs>
  <g id="角色管理" transform="translate(-328 -152)">
    <rect id="矩形_2" data-name="矩形 2" class="cls-1" width="24" height="24" transform="translate(328 152)"/>
    <rect id="矩形_1" data-name="矩形 1" class="cls-1" width="20" height="20" transform="translate(330 154)"/>
    <path id="减去_34" data-name="减去 34" d="M-60.88-36H-70.5A1.5,1.5,0,0,1-72-37.5v-16A1.5,1.5,0,0,1-70.5-55h15A1.5,1.5,0,0,1-54-53.5v7.846a4.886,4.886,0,0,0-2.391-.623h-.086a4.861,4.861,0,0,0-3.432,1.407,4.866,4.866,0,0,0-1.46,3.414v.038a4.85,4.85,0,0,0,.882,2.744,4.831,4.831,0,0,0,.4.5,5.756,5.756,0,0,0-.668,1.1l-.023.05-.019.052A1.816,1.816,0,0,0-60.88-36Zm-7.87-11.25a.751.751,0,0,0-.75.75.751.751,0,0,0,.75.75h6.5a.751.751,0,0,0,.75-.75.751.751,0,0,0-.75-.75Zm0-3.5a.751.751,0,0,0-.75.75.751.751,0,0,0,.75.751h11.5A.751.751,0,0,0-56.5-50a.751.751,0,0,0-.75-.75Zm13.476,14.733H-59.09a.318.318,0,0,1-.263-.135.319.319,0,0,1-.038-.293,4.164,4.164,0,0,1,1.708-1.869,3.391,3.391,0,0,1-2.186-3.119A3.374,3.374,0,0,1-58.857-43.8a3.373,3.373,0,0,1,2.381-.975h.083A3.373,3.373,0,0,1-54-43.788v4.713a3.346,3.346,0,0,1-1.19.76,4.138,4.138,0,0,1,1.178,1.007,1.506,1.506,0,0,1-1.261,1.291Z" transform="translate(403 209.5)"/>
    <g id="组_10" data-name="组 10" transform="translate(277.163 68.756)">
      <path id="路径_4" data-name="路径 4" d="M190.919,102.429a3.434,3.434,0,1,0-2.493,0,4.184,4.184,0,0,0-1.708,1.87.317.317,0,0,0,.3.428h5.313a.313.313,0,0,0,.3-.435A4.164,4.164,0,0,0,190.919,102.429Z" transform="translate(-120.272 0)"/>
    </g>
  </g>
</svg>
