<svg xmlns="http://www.w3.org/2000/svg" width="24" height="24" viewBox="0 0 24 24">
  <defs>
    <style>
      .cls-1 {
        fill: rgba(255,255,255,0);
      }
    </style>
  </defs>
  <g id="系统管理" transform="translate(-240 -152)">
    <rect id="矩形_2" data-name="矩形 2" class="cls-1" width="24" height="24" transform="translate(240 152)"/>
    <rect id="矩形_1" data-name="矩形 1" class="cls-1" width="20" height="20" transform="translate(242 154)"/>
    <path id="减去_32" data-name="减去 32" d="M-53.5-41h-17A1.5,1.5,0,0,1-72-42.5v-12A1.5,1.5,0,0,1-70.5-56h17A1.5,1.5,0,0,1-52-54.5v12A1.5,1.5,0,0,1-53.5-41ZM-62-45.34h0a1.286,1.286,0,0,1,.894.359l.085.094a.534.534,0,0,0,.378.152.442.442,0,0,0,.148-.024,3.734,3.734,0,0,0,.5-.255,3.547,3.547,0,0,0,.465-.3.534.534,0,0,0,.152-.523l-.037-.126a1.3,1.3,0,0,1,.138-.953,1.292,1.292,0,0,1,.755-.6l.123-.028a.538.538,0,0,0,.373-.392A3.66,3.66,0,0,0-58-48.5a3.762,3.762,0,0,0-.031-.56.529.529,0,0,0-.373-.392l-.131-.031a1.29,1.29,0,0,1-.75-.6,1.307,1.307,0,0,1-.138-.958l.041-.123a.537.537,0,0,0-.152-.523,3.638,3.638,0,0,0-.466-.3,4.086,4.086,0,0,0-.493-.255.43.43,0,0,0-.147-.024.54.54,0,0,0-.379.153l-.09.1a1.277,1.277,0,0,1-.886.355H-62a1.279,1.279,0,0,1-.889-.358l-.086-.094a.535.535,0,0,0-.379-.153.436.436,0,0,0-.147.024,3.9,3.9,0,0,0-.5.255,3.62,3.62,0,0,0-.467.306.537.537,0,0,0-.151.521l.037.124a1.306,1.306,0,0,1-.138.957,1.283,1.283,0,0,1-.754.6l-.126.029a.536.536,0,0,0-.373.392A3.769,3.769,0,0,0-66-48.5a3.77,3.77,0,0,0,.028.559.529.529,0,0,0,.373.392l.122.028a1.281,1.281,0,0,1,.756.6,1.308,1.308,0,0,1,.138.958l-.035.121a.54.54,0,0,0,.152.523,3.733,3.733,0,0,0,.466.3,3.691,3.691,0,0,0,.494.255.423.423,0,0,0,.147.025.538.538,0,0,0,.378-.153l.086-.094A1.286,1.286,0,0,1-62-45.34Zm0-1.554a1.6,1.6,0,0,1-1.6-1.606,1.591,1.591,0,0,1,.465-1.132A1.588,1.588,0,0,1-62-50.1,1.6,1.6,0,0,1-60.4-48.5,1.6,1.6,0,0,1-62-46.895Z" transform="translate(314 211)"/>
    <rect id="矩形_123" data-name="矩形 123" width="1.5" height="12" rx="0.75" transform="translate(258 171.5) rotate(90)"/>
  </g>
</svg>
