<svg id="订单" xmlns="http://www.w3.org/2000/svg" width="24" height="24" viewBox="0 0 24 24">
  <defs>
    <style>
      .cls-1 {
        fill: rgba(255,255,255,0);
      }
    </style>
  </defs>
  <rect id="矩形_2" data-name="矩形 2" class="cls-1" width="24" height="24"/>
  <rect id="矩形_1" data-name="矩形 1" class="cls-1" width="20" height="20" transform="translate(2 2)"/>
  <path id="减去_2" data-name="减去 2" d="M-18.5,18.631H-32.5A1.464,1.464,0,0,1-34,17.214V2.822a1.464,1.464,0,0,1,1.5-1.417h2.833A2.1,2.1,0,0,1-27.633,0h4.307A2.1,2.1,0,0,1-21.3,1.406H-18.5a1.555,1.555,0,0,1,1.1.447,1.363,1.363,0,0,1,.407.97V17.214A1.464,1.464,0,0,1-18.5,18.631Zm-11.557-5.815a.751.751,0,0,0-.751.75.751.751,0,0,0,.751.75h3.812a.751.751,0,0,0,.75-.75.751.751,0,0,0-.75-.75Zm0-3.5a.751.751,0,0,0-.751.75.751.751,0,0,0,.751.751h9.124a.751.751,0,0,0,.751-.751.751.751,0,0,0-.751-.75Zm0-3.5a.751.751,0,0,0-.751.75.751.751,0,0,0,.751.751h9.124a.751.751,0,0,0,.751-.751.751.751,0,0,0-.751-.75Z" transform="translate(37.5 2.685)"/>
</svg>
