<svg xmlns="http://www.w3.org/2000/svg" width="24" height="24" viewBox="0 0 24 24">
  <defs>
    <style>
      .cls-1 {
        fill: rgba(255,255,255,0);
      }
    </style>
  </defs>
  <g id="平台活动" transform="translate(-196 -152)">
    <rect id="矩形_2" data-name="矩形 2" class="cls-1" width="24" height="24" transform="translate(196 152)"/>
    <rect id="矩形_1" data-name="矩形 1" class="cls-1" width="20" height="20" transform="translate(198 154)"/>
    <path id="路径_38" data-name="路径 38" d="M31.7,29.174c-.46-.28-1.97-1.07-2.87-1.57-.785-.435-1.025.5-1.1,1.14s-.075,1.475.75,1.475H31.5c.825.005.825-.66.2-1.045Zm-8.915,3.26v1.885c0,.7.235,1.05,1.165,1.05h7.43V31.484h-7.45C22.989,31.484,22.784,31.8,22.784,32.434Zm.79,11.76c.01,1.455.855,2.285,2.67,2.285h5.1v-9.67H23.574S23.559,42.744,23.574,44.194Zm18.21-11.68c0-.635-.275-1.03-1.22-1.03H33.219v3.885h7.4c.93,0,1.165-.32,1.165-1.02C41.779,33.714,41.784,33.149,41.784,32.514Zm-4.76-3.78c-.075-.64-.315-1.58-1.1-1.14-.9.5-2.41,1.29-2.87,1.57-.625.38-.625,1.045.2,1.045h3.02C37.1,30.209,37.1,29.379,37.024,28.734Zm-3.805,8.075v9.67h4.965c1.81,0,2.625-.91,2.635-2.365s-.005-7.31-.005-7.31Z" transform="translate(175.716 126.519)"/>
  </g>
</svg>
