<svg xmlns="http://www.w3.org/2000/svg" width="24" height="24" viewBox="0 0 24 24">
  <defs>
    <style>
      .cls-1 {
        fill: rgba(255,255,255,0);
      }
    </style>
  </defs>
  <g id="客户列表" transform="translate(-196 -64)">
    <rect id="矩形_2" data-name="矩形 2" class="cls-1" width="24" height="24" transform="translate(196 64)"/>
    <rect id="矩形_1" data-name="矩形 1" class="cls-1" width="20" height="20" transform="translate(198 66)"/>
    <path id="减去_27" data-name="减去 27" d="M-55.5-35.5h-15A1.5,1.5,0,0,1-72-37V-53a1.5,1.5,0,0,1,1.5-1.5h15A1.5,1.5,0,0,1-54-53v16A1.5,1.5,0,0,1-55.5-35.5Zm-10.249-7.75a.751.751,0,0,0-.751.75.751.751,0,0,0,.751.75h3.5a.751.751,0,0,0,.75-.75.751.751,0,0,0-.75-.75Zm-3,0a.751.751,0,0,0-.75.75.751.751,0,0,0,.75.75h.5a.751.751,0,0,0,.75-.75.751.751,0,0,0-.75-.75Zm3-3.5A.751.751,0,0,0-66.5-46a.751.751,0,0,0,.751.75h8.5A.751.751,0,0,0-56.5-46a.751.751,0,0,0-.75-.75Zm-3,0a.751.751,0,0,0-.75.75.751.751,0,0,0,.75.75h.5A.751.751,0,0,0-67.5-46a.751.751,0,0,0-.75-.75Zm3-3.5a.751.751,0,0,0-.751.75.751.751,0,0,0,.751.751h8.5a.751.751,0,0,0,.75-.751.751.751,0,0,0-.75-.75Zm-3,0a.751.751,0,0,0-.75.75.751.751,0,0,0,.75.751h.5a.751.751,0,0,0,.75-.751.751.751,0,0,0-.75-.75Z" transform="translate(271 121)"/>
  </g>
</svg>
