<svg xmlns="http://www.w3.org/2000/svg" width="24" height="24" viewBox="0 0 24 24">
  <defs>
    <style>
      .cls-1 {
        fill: rgba(255,255,255,0);
      }
    </style>
  </defs>
  <g id="定价捆绑" transform="translate(-108 -64)">
    <rect id="矩形_2" data-name="矩形 2" class="cls-1" width="24" height="24" transform="translate(108 64)"/>
    <rect id="矩形_1" data-name="矩形 1" class="cls-1" width="20" height="20" transform="translate(110 66)"/>
    <path id="路径_13" data-name="路径 13" d="M9.5,0A9.5,9.5,0,1,0,19,9.5,9.5,9.5,0,0,0,9.5,0ZM8.977,13.834l-.571.553a2.726,2.726,0,0,1-3.763,0,2.527,2.527,0,0,1,0-3.655L6.741,8.7c1.306-1.264,2.805-1.445,3.822-.464a.671.671,0,0,1,0,.963.712.712,0,0,1-.989,0c-.6-.577-1.416.043-1.852.464L5.626,11.7a1.192,1.192,0,0,0,0,1.722,1.3,1.3,0,0,0,1.794,0l.571-.553a.712.712,0,0,1,.989,0,.668.668,0,0,1,0,.961Zm5.383-5.206L12.116,10.8a3.114,3.114,0,0,1-2.11,1.009,2.239,2.239,0,0,1-1.572-.681.667.667,0,0,1,0-.963.712.712,0,0,1,.989,0c.2.2.687.664,1.711-.328l2.241-2.169a1.19,1.19,0,0,0,0-1.722A1.15,1.15,0,0,0,11.717,5.8l-.711.688a.712.712,0,0,1-.989,0,.67.67,0,0,1,0-.965l.711-.688a2.542,2.542,0,0,1,3.624.135,2.537,2.537,0,0,1,0,3.659Z" transform="translate(110.5 66.5)"/>
  </g>
</svg>
