<svg xmlns="http://www.w3.org/2000/svg" width="24" height="24" viewBox="0 0 24 24">
  <defs>
    <style>
      .cls-1 {
        fill: rgba(255,255,255,0);
      }
    </style>
  </defs>
  <g id="设置" transform="translate(-284 -108)">
    <rect id="矩形_2" data-name="矩形 2" class="cls-1" width="24" height="24" transform="translate(284 108)"/>
    <rect id="矩形_1" data-name="矩形 1" class="cls-1" width="20" height="20" transform="translate(286 110)"/>
    <path id="减去_26" data-name="减去 26" d="M-63.5-35.321a2,2,0,0,1-1.014-.276l-6.5-3.823A2.007,2.007,0,0,1-72-41.144v-7.713a2.007,2.007,0,0,1,.986-1.724l6.5-3.823a2,2,0,0,1,1.014-.276,2,2,0,0,1,1.014.276l6.5,3.823A2.007,2.007,0,0,1-55-48.856v7.713a2.007,2.007,0,0,1-.986,1.724l-6.5,3.823A2,2,0,0,1-63.5-35.321Zm0-14.68a5.006,5.006,0,0,0-5,5,5.006,5.006,0,0,0,5,5,5.006,5.006,0,0,0,5-5A5.006,5.006,0,0,0-63.5-50Zm0,8.5A3.5,3.5,0,0,1-67-45a3.5,3.5,0,0,1,3.5-3.5A3.5,3.5,0,0,1-60-45,3.5,3.5,0,0,1-63.5-41.5Z" transform="translate(359.5 165)"/>
  </g>
</svg>
